<svg viewBox="-16.29945190027206 -58.67500000000018 1409.5989038005434 2405.6749999999993" xmlns="http://www.w3.org/2000/svg" xmlns:xlink="http://www.w3.org/1999/xlink" overflow="visible" width="1409.5989038005434px" height="2405.6749999999993px"><defs><polygon id="masterelementstall-vase-plantplant-5-path-1" points="0.857438596 0.375 438.324691 0.375 438.324691 791.798093 0.857438596 791.798093"></polygon><polygon id="masterelementstall-vase-plantplant-5-path-3" points="0 0.692690239 531.914788 0.692690239 531.914788 359.092807 0 359.092807"></polygon><polygon id="masterelementstall-vase-plantplant-5-path-5" points="0 2399.63 1400.628 2399.63 1400.628 1.005 0 1.005"></polygon></defs><g id="Master/Elements/Tall Vase Plant/Plant 5" stroke="none" stroke-width="1" fill="none" fill-rule="evenodd"><g id="Group-31" transform="translate(-12.000000, -53.000000)"><g id="Group-3" transform="translate(459.000000, 0.630000)"><mask id="masterelementstall-vase-plantplant-5-mask-2" fill="#fff"><use xlink:href="#masterelementstall-vase-plantplant-5-path-1"></use></mask><g id="Clip-2"></g><path d="M282.5922,791.4139 C282.5922,791.4139 123.5952,806.8879 67.8522,641.4279 C67.8522,641.4279 42.1922,579.4909 68.7372,575.0669 C95.2812,570.6429 135.0972,567.9889 135.0972,560.0249 C135.0972,552.0619 -0.3958,528.7219 0.8662,441.6279 C2.1282,354.5339 -1.4848,31.1439 70.7812,2.2369 C143.0472,-26.6691 377.9112,289.4949 372.4912,350.9199 C367.0712,412.3469 309.2592,457.5129 334.5512,462.9329 C359.8452,468.3519 386.9452,372.6009 406.8182,432.2199 C426.6912,491.8389 510.6632,706.1719 282.5922,791.4139" id="Fill-1" fill="#1BC0D7" mask="url(#masterelementstall-vase-plantplant-5-mask-2)"></path></g><path d="M894.0179,772.2568 C894.0179,772.2568 1000.1999,851.4638 1113.1249,752.9808 C1113.1249,752.9808 1158.8039,718.1588 1141.8919,703.5748 C1124.9809,688.9918 1097.8499,670.0578 1101.3769,664.1748 C1104.9049,658.2918 1211.5709,698.8038 1249.2539,633.9188 C1286.9389,569.0338 1432.7629,331.6488 1394.1919,279.4878 C1355.6209,227.3268 1048.5929,360.7988 1025.2359,408.4918 C1001.8779,456.1848 1022.9719,514.1978 1002.5889,507.4208 C982.2059,500.6438 1005.3569,418.3488 964.8179,453.9248 C924.2789,489.5018 769.6349,612.0608 894.0179,772.2568" id="Fill-4" fill="#237978"></path><g id="Group-8" transform="translate(0.000000, 466.630000)"><mask id="masterelementstall-vase-plantplant-5-mask-4" fill="#fff"><use xlink:href="#masterelementstall-vase-plantplant-5-path-3"></use></mask><g id="Clip-7"></g><path d="M507.9671,317.2025 C507.9671,317.2025 488.5141,398.0095 362.8151,335.1595 C237.1151,272.3095 250.5831,249.8635 267.0441,236.3955 C283.5051,222.9285 343.3611,184.0215 299.9651,191.5035 C256.5691,198.9855 250.5831,240.8855 193.7191,216.9425 C136.8561,192.9995 -20.2679,52.3365 2.1781,16.4225 C24.6241,-19.4915 296.9721,5.9475 422.6711,94.2365 C548.3701,182.5245 548.3701,278.2955 507.9671,317.2025" id="Fill-6" fill="#237978" mask="url(#masterelementstall-vase-plantplant-5-mask-4)"></path></g><path d="M793.8339,1061.1201 C793.8339,1061.1201 811.9829,1141.9271 929.2529,1079.0771 C1046.5229,1016.2271 1033.9589,993.7811 1018.6019,980.3131 C1003.2449,966.8461 947.4019,927.9391 987.8879,935.4211 C1028.3749,942.9031 1033.9589,984.8031 1087.0089,960.8601 C1140.0599,936.9171 1286.6479,796.2541 1265.7069,760.3401 C1244.7659,724.4261 990.6799,749.8651 873.4099,838.1541 C756.1399,926.4421 756.1399,1022.2131 793.8339,1061.1201" id="Fill-9" fill="#1BC0D7"></path><path d="M857.6791,1153.8701 C857.6791,1153.8701 772.4451,1206.3881 856.8181,1264.9321 C941.1911,1323.4761 995.4301,1552.4881 1066.8891,1546.4621 C1138.3471,1540.4351 1120.2671,1288.1781 1113.3801,1258.0451 C1106.4921,1227.9121 1060.8621,1262.3491 1057.4191,1242.5481 C1053.9751,1222.7461 1104.7701,1225.3281 1104.7701,1211.5541 C1104.7701,1197.7781 1058.2801,1052.2791 857.6791,1153.8701" id="Fill-11" fill="#237978"></path><path d="M276.5306,1297.0342 C276.5306,1297.0342 292.5196,1170.7182 409.2426,1082.7762 C525.9656,994.8342 684.2606,969.2512 714.6406,1060.3912 C745.0206,1151.5312 554.7466,1253.8632 521.1686,1234.6762 C487.5906,1215.4882 434.8256,1204.2962 446.0186,1242.6702 C457.2106,1281.0452 382.0606,1329.0132 276.5306,1297.0342" id="Fill-13" fill="#1BC0D7"></path><path d="M569.1371,932.4761 C569.1371,932.4761 268.5361,1061.9901 140.6201,1055.5941 C12.7051,1049.1991 174.1981,922.8821 332.4931,882.9091 C490.7891,842.9351 569.1371,874.9141 569.1371,932.4761" id="Fill-15" fill="#1BC0D7"></path><path d="M651.0004,1566.0362 C650.5684,1561.8542 640.7114,1461.8832 666.0854,1310.4482 C680.9644,1221.6552 704.9754,1133.6722 737.4504,1048.9432 C778.0434,943.0362 832.0504,841.9442 897.9714,748.4732 C963.6784,655.3072 1029.2464,574.7972 1092.8554,509.1802 C1143.9464,456.4762 1193.9414,413.1602 1241.4544,380.4362 C1323.7244,323.7742 1370.6354,318.1982 1372.5924,317.9882 L1375.1484,341.8512 C1374.7814,341.8962 1330.4704,347.6982 1252.3234,402.1022 C1206.3184,434.1302 1157.8074,476.4552 1108.1344,527.9042 C1046.0074,592.2512 981.8974,671.1162 917.5844,762.3052 C852.8084,854.1532 799.7424,953.4812 759.8604,1057.5322 C727.9574,1140.7692 704.3704,1227.1972 689.7554,1314.4142 C664.9134,1462.6732 674.7714,1562.5782 674.8734,1563.5692 L651.0004,1566.0362 Z" id="Fill-17" fill="#0A4343"></path><path d="M876.5795,1717.6548 L852.7285,1714.9818 C852.8115,1714.2378 860.8425,1638.3738 842.1505,1513.4278 C831.1735,1440.0558 813.2655,1364.3608 788.9225,1288.4438 C758.4915,1193.5398 717.8605,1098.0158 668.1565,1004.5258 C619.0455,912.1508 556.3225,828.8048 481.7285,756.8038 C421.5155,698.6828 353.4555,647.7588 279.4425,605.4468 C154.2015,533.8478 50.4515,509.3598 39.1255,508.1398 C39.4525,508.1748 39.7035,508.1718 39.8765,508.1718 L39.8765,484.1718 C45.5755,484.1718 76.2485,491.1968 117.0815,505.1938 C156.2175,518.6098 217.4075,542.8168 286.6665,581.9478 C363.1975,625.1868 433.5995,677.4048 495.9175,737.1518 C573.4265,811.4608 638.5055,897.6288 689.3475,993.2598 C739.8505,1088.2528 781.1215,1185.3518 812.0155,1281.8608 C836.7535,1359.1398 854.9335,1436.2258 866.0505,1510.9768 C885.0445,1638.6998 876.9335,1714.4908 876.5795,1717.6548" id="Fill-19" fill="#0A4343"></path><path d="M868.4354,1662.6382 C868.0564,1659.1712 829.7864,1311.6162 768.6814,938.2222 C732.8204,719.0822 696.2334,534.0832 659.9374,388.3642 C614.8714,207.4352 570.4294,87.5972 527.8464,32.1812 L546.8764,17.5582 C591.4854,75.6112 637.3644,198.4312 683.2364,382.6052 C719.6924,528.9722 756.4144,714.6372 792.3824,934.4422 C853.5844,1308.4532 891.9134,1656.5552 892.2924,1660.0282 L868.4354,1662.6382 Z" id="Fill-21" fill="#0A4343"></path><path d="M790.2455,1685.1773 L766.2525,1684.6193 C768.6225,1582.6973 738.4615,1412.6733 687.5385,1240.9003 C663.9225,1161.2363 638.2805,1089.7003 613.3845,1034.0253 C579.0415,957.2233 556.7305,934.4783 546.4875,927.7573 C529.8395,916.8313 501.4255,913.7833 462.0335,918.6963 C428.9455,922.8223 388.6625,932.5873 342.3045,947.7183 C262.7545,973.6823 192.3295,1006.7943 191.6275,1007.1253 L181.3795,985.4233 C182.0935,985.0863 253.6935,951.4123 334.6415,924.9733 C382.4955,909.3433 424.3215,899.2233 458.9595,894.8933 C504.8515,889.1583 537.7915,893.3433 559.6555,907.6913 C581.7515,922.1923 607.2005,961.4013 635.2945,1024.2283 C660.6145,1080.8523 686.6375,1153.4173 710.5495,1234.0783 C762.1325,1408.0803 792.6705,1580.9313 790.2455,1685.1773" id="Fill-23" fill="#0A4343"></path><path d="M333.2987,1269.6509 L317.2527,1251.8029 C317.9717,1251.1569 390.1497,1186.4689 472.6567,1130.0499 C521.4777,1096.6679 564.4407,1072.5819 600.3517,1058.4619 C648.0337,1039.7129 684.5567,1038.3209 708.9067,1054.3229 L695.7267,1074.3799 C663.1257,1052.9569 588.7167,1079.7639 486.2037,1149.8619 C404.9957,1205.3919 334.0067,1269.0149 333.2987,1269.6509" id="Fill-25" fill="#0A4343"></path><path d="M737.8822,1577.5464 L713.8822,1577.5464 C713.8822,1562.5044 731.6722,1475.4354 757.0222,1390.9584 C781.6072,1309.0294 821.5192,1200.9894 872.0442,1151.5514 C891.8312,1132.1894 912.3302,1122.6004 932.9912,1123.0494 C989.2242,1124.2724 1030.7422,1185.0464 1056.3942,1303.6844 C1074.7332,1388.5024 1078.1222,1471.4754 1078.2572,1474.9664 L1054.2752,1475.8974 C1054.2432,1475.0604 1050.8092,1391.2784 1032.8792,1308.4924 C1022.4902,1260.5294 1009.3812,1222.3994 993.9152,1195.1594 C976.0702,1163.7304 955.3972,1147.5424 932.4702,1147.0434 C918.5182,1146.7504 903.8472,1154.0194 888.8572,1168.6784 C800.1612,1255.4154 737.8952,1556.3024 737.8822,1577.5464" id="Fill-27" fill="#0A4343"></path><mask id="masterelementstall-vase-plantplant-5-mask-6" fill="#fff"><use xlink:href="#masterelementstall-vase-plantplant-5-path-5"></use></mask><g id="Clip-30"></g><polygon id="Fill-29" fill="#EC7070" mask="url(#masterelementstall-vase-plantplant-5-mask-6)" points="325.678 2399.63 1231.678 2399.63 1231.678 1558.63 325.678 1558.63"></polygon></g></g></svg>