<svg viewBox="374.15465116279074 847.0339918256133 1671.3686046511623 1225.4253405994548" xmlns="http://www.w3.org/2000/svg" xmlns:xlink="http://www.w3.org/1999/xlink" overflow="visible" width="1671.3686046511623px" height="1225.4253405994548px"><defs><polygon id="mastercharacteravatar-path-1" points="1.87952991 1.58079744 195.807393 1.58079744 195.807393 195.192308 1.87952991 195.192308"></polygon></defs><g id="Master/Character/Avatar" stroke="none" stroke-width="1" fill="none" fill-rule="evenodd"><g id="Avatar Background" opacity=".747" transform="translate(376.000000, 630.000000) scale(1 1)"><g id="Avatar Background/Backdrop 6" stroke="none" stroke-width="1" fill="none" fill-rule="evenodd"><path d="M1125.85132,220 C1294.93746,220 1479.78348,278.654344 1589.69955,413.342097 C1640.48585,475.576851 1665.91931,548.633291 1666,621.247208 C1666.04023,703.234556 1633.75465,784.658693 1569.06258,849.508352 C1509.23416,909.457008 1432.83321,950.044584 1354.80097,983.364387 L1346.19169,987.02126 C1337.40115,990.789691 1328.45394,995.011912 1322.91024,1002.66538 C1318.73732,1008.37889 1316.92087,1015.41449 1315.34385,1022.29307 L1315.05045,1023.58061 C1298.60939,1095.79223 1268.41573,1157.46377 1228.10914,1209.48028 L1228.07286,1209.48028 C1156.2828,1302.16863 1052.17087,1364.162 936.16851,1400.44885 C847.332787,1428.25133 751.483718,1441 657.734621,1441 C500.051213,1441 355.31025,1404.06949 241.927814,1342.4422 L241.887508,1342.39794 C222.137279,1331.73718 203.314102,1320.23159 185.579202,1308.08234 C70.1008237,1228.9915 -1,1120.97578 -1,1001.89701 C-1,774.882969 257.445851,588.09825 588.927243,565.171563 C625.888385,370.095582 852.169578,220 1125.85132,220 Z M398.502036,229 C456.214365,229 503,260.563951 503,299.5 C503,338.440111 456.214365,370 398.502036,370 C340.785635,370 294,338.440111 294,299.5 C294,260.563951 340.785635,229 398.502036,229 Z" id="Shape" fill="#FFF5F3" transform="translate(832.500019, 830.500000) scale(-1, 1) translate(-832.500019, -830.500000)"></path></g></g><path d="M1602.87669,1619.34102 C1581.5863,1719.97875 1508.65401,1927.03874 1348.44285,1907.73875 C1182.71158,1887.75347 1063.1047,1779.10078 1046.35661,1598.86067 C998.17749,1606.51084 986.813925,1481.33837 1000.22961,1441.12549 C1013.66354,1400.8605 1057.50375,1424.40508 1057.50375,1424.40508 L1056.81798,1435.32794 C1058.84663,1425.16593 1061.14385,1414.85801 1063.694,1404.41981 C1136.09176,1108.3198 1338.86544,1120.06343 1338.86544,1120.06343 C1711.46941,1139.41554 1624.16447,1518.71892 1602.87669,1619.34102" id="Fill-114" fill="#ecafa3"></path><g id="Hairstyle" transform="translate(-144.000000, 485.000000) scale(2.6053268765133173 2.606425702811245)"><defs><polygon id="hairstylesenior-1-path-1" points="0 0.000226663446 267.056737 0.000226663446 267.056737 209.265844 0 209.265844"></polygon></defs><g id="Hairstyle/Senior 1" stroke="none" stroke-width="1" fill="none" fill-rule="evenodd"><g id="Group-3" transform="translate(443.000000, 202.000000)"><mask id="hairstylesenior-1-mask-2" fill="#fff"><use xlink:href="#hairstylesenior-1-path-1"></use></mask><g id="Clip-2"></g><path d="M19.0412,171.117 C19.0412,171.117 -16.9588,126.117 10.0412,64.117 C37.0412,2.117 99.0412,-6.883 136.0412,6.117 C136.0412,6.117 265.0412,-30.883 267.0412,77.117 C268.6742,165.306 141.0412,95.117 141.0412,95.117 C141.0412,95.117 141.0412,147.117 90.0412,141.117 C39.0412,135.117 39.0412,213.117 30.0412,209.117 C21.0412,205.117 19.0412,171.117 19.0412,171.117" id="Fill-1" fill="#0f0f0f" mask="url(#hairstylesenior-1-mask-2)"></path></g></g></g><g id="Expression" transform="translate(1135.000000, 1336.000000) scale(2.603960396039604 2.611607142857143)"><defs><polygon id="expressionsmile-path-1" points="0.0345903013 0.044 67.6399607 0.044 67.6399607 19.4316 0.0345903013 19.4316"></polygon></defs><g id="Expression/Smile" stroke="none" stroke-width="1" fill="none" fill-rule="evenodd"><g id="Group-124" transform="translate(25.000000, 52.000000)" fill="#000" fill-rule="nonzero"><path d="M98.9388073,0.515726772 L102.747593,1.73767323 L102.375135,2.93095324 C102.075892,3.9043293 101.742122,5.01790967 101.382468,6.25291663 C100.354215,9.78380887 99.3257634,13.5761133 98.3662837,17.478955 C97.2996742,21.8175645 96.3854385,26.0250163 95.6702376,29.9976992 L95.4631649,31.1740325 C93.7257688,41.2776329 93.4803733,48.9926374 95.0328764,53.1417647 L95.1244408,53.3771728 C104.002358,75.340079 91.9464166,86.4779502 66.6424816,78.6786942 L65.8716485,78.4365483 L67.0907515,74.6268517 C89.8846425,81.9208968 99.0260452,73.7026714 91.4159925,54.8763096 C89.3210345,49.6942966 89.6433125,40.8993486 91.7335247,29.288974 C92.4647551,25.2272527 93.3964651,20.9393815 94.4819426,16.5240234 C95.3476055,13.0027971 96.2678852,9.57278889 97.1943734,6.33814281 L97.5420029,5.13451153 C97.7507758,4.41761123 97.9510908,3.74056192 98.1413397,3.10683734 L98.6297394,1.50244969 L98.9388073,0.515726772 Z" id="Stroke-114"></path><path d="M0.1850015,153.534088 L2.1419985,150.045512 L2.85620174,150.434727 L3.51128674,150.782909 C4.50308988,151.305335 5.6321651,151.880908 6.88714027,152.498006 L7.43266178,152.764985 C11.6537624,154.821142 16.3218862,156.878362 21.3004212,158.797989 C32.7483158,163.212076 44.0600582,166.224884 54.584272,167.202241 C59.3535856,167.645156 63.8735301,167.656119 68.1063644,167.201856 L68.9490919,167.10479 L69.4379081,171.07481 C64.6629697,171.662733 59.5745075,171.682884 54.2143935,171.185103 C43.2765951,170.169337 31.6251616,167.066055 19.8613669,162.530163 C14.7706849,160.567294 9.99959664,158.464698 5.68097489,156.361037 L4.04785364,155.55429 C3.35348222,155.206284 2.70158001,154.872883 2.09423579,154.556252 L0.962732129,153.958187 L0.1850015,153.534088 Z" id="Stroke-122"></path></g><g id="Group-16" transform="translate(27.000000, 30.000000)"><path d="M71.0371,131.9951 C52.1661,131.9951 37.9381,123.3511 37.2701,122.9381 C35.8611,122.0681 35.4251,120.2191 36.2961,118.8091 C37.1651,117.4011 39.0141,116.9631 40.4241,117.8341 C40.7061,118.0061 57.4191,128.0481 77.5681,125.6031 C79.2011,125.4051 80.7071,126.5751 80.9081,128.2201 C81.1081,129.8641 79.9361,131.3601 78.2911,131.5591 C75.8141,131.8611 73.3881,131.9951 71.0371,131.9951" id="Fill-3" fill="#000"></path><path d="M78.8252,103.1664 C74.7822,103.1664 69.7382,102.3754 63.4432,100.3614 L64.6612,96.5514 C76.3852,100.3024 85.0452,99.9964 89.0462,95.6874 C92.4492,92.0204 92.4282,85.3134 88.9872,76.8014 C86.6522,71.0264 87.2292,60.0734 90.7022,44.2454 C93.2432,32.6624 96.4772,22.5414 96.5102,22.4404 L100.3182,23.6624 C96.8112,34.5954 88.6062,65.1874 92.6952,75.3024 C97.8932,88.1604 95.1742,94.9644 91.9772,98.4084 C89.6972,100.8664 85.7182,103.1664 78.8252,103.1664" id="Fill-5" fill="#000"></path><g id="Group-9" transform="translate(0.000000, 0.956000)"><mask id="expressionsmile-mask-2" fill="#fff"><use xlink:href="#expressionsmile-path-1"></use></mask><g id="Clip-8"></g><path d="M62.1387,19.4316 C61.5377,19.4316 60.9257,19.3316 60.3267,19.1226 C54.4907,17.0866 37.6337,11.6746 29.8217,11.0966 C22.4657,10.5516 11.2427,14.1856 7.5387,15.6326 C4.7097,16.7366 1.5207,15.3416 0.4147,12.5146 C-0.6923,9.6866 0.7007,6.4986 3.5277,5.3896 C4.1637,5.1406 19.2597,-0.7164 30.6337,0.1266 C41.4887,0.9306 63.0387,8.4186 63.9507,8.7376 C66.8187,9.7386 68.3317,12.8746 67.3317,15.7426 C66.5397,18.0106 64.4127,19.4316 62.1387,19.4316" id="Fill-7" fill="#000" mask="url(#expressionsmile-mask-2)"></path></g><path d="M154.6772,39.1645 C153.5752,39.1645 152.4632,38.8265 151.5062,38.1245 C148.4472,35.8845 139.0022,29.8175 132.1372,28.6695 C124.8122,27.4455 107.9602,28.8295 102.0842,29.4645 C99.1372,29.7795 96.4882,27.6525 96.1692,24.7055 C95.8492,21.7575 97.9802,19.1085 100.9272,18.7895 C101.8492,18.6895 123.6282,16.3615 133.9072,18.0795 C144.7152,19.8855 157.3282,29.0775 157.8602,29.4685 C160.2492,31.2235 160.7642,34.5835 159.0092,36.9735 C157.9572,38.4055 156.3282,39.1645 154.6772,39.1645" id="Fill-10" fill="#000"></path></g><g id="Group-19" transform="translate(63.000000, 68.000000)" fill="#000"><path d="M12.5215,6.6586 C12.5215,9.9056 9.8885,12.5386 6.6415,12.5386 C3.3945,12.5386 0.7615,9.9056 0.7615,6.6586 C0.7615,3.4106 3.3945,0.7786 6.6415,0.7786 C9.8885,0.7786 12.5215,3.4106 12.5215,6.6586" id="Fill-10"></path><path d="M87.7615,13.3383 C87.7615,16.5863 85.1285,19.2183 81.8815,19.2183 C78.6345,19.2183 76.0015,16.5863 76.0015,13.3383 C76.0015,10.0913 78.6345,7.4583 81.8815,7.4583 C85.1285,7.4583 87.7615,10.0913 87.7615,13.3383" id="Fill-12"></path></g></g></g><g id="Accessories" transform="translate(1013.000000, 1424.000000) scale(2.606837606837607 2.6025641025641026)"><g id="Accessories/Glasses" stroke="none" stroke-width="1" fill="none" fill-rule="evenodd"><g id="Group-136" transform="translate(21.000000, 0.000000)" fill="#000" fill-rule="nonzero"><path d="M85.2331,-3.5185 C64.1379939,-3.5185 47.0361,13.5830433 47.0361,34.6775 C47.0361,55.7726319 64.1376692,72.8735 85.2331,72.8735 C106.328381,72.8735 123.4291,55.7727814 123.4291,34.6775 C123.4291,13.5828939 106.328057,-3.5185 85.2331,-3.5185 Z M85.2331,5.4815 C101.357453,5.4815 114.4291,18.5534154 114.4291,34.6775 C114.4291,50.8022186 101.357819,63.8735 85.2331,63.8735 C69.1081493,63.8735 56.0361,50.8019866 56.0361,34.6775 C56.0361,18.5536474 69.1085154,5.4815 85.2331,5.4815 Z" id="Stroke-128"></path><path d="M179.1536,5.5889 C158.058169,5.5889 140.9566,22.6897681 140.9566,43.7849 C140.9566,64.8800319 158.058169,81.9809 179.1536,81.9809 C200.248881,81.9809 217.3496,64.8801814 217.3496,43.7849 C217.3496,22.6896186 200.248881,5.5889 179.1536,5.5889 Z M179.1536,14.5889 C195.278319,14.5889 208.3496,27.6601814 208.3496,43.7849 C208.3496,59.9096186 195.278319,72.9809 179.1536,72.9809 C163.028649,72.9809 149.9566,59.9093866 149.9566,43.7849 C149.9566,27.6604134 163.028649,14.5889 179.1536,14.5889 Z" id="Stroke-130"></path><path d="M-3.64184511,7.30994196 C-2.74598214,5.07028454 -0.252551778,3.94709164 2.00319591,4.726899 L2.20755804,4.80305489 L52.207558,24.8030549 C54.5150839,25.7260652 55.6374554,28.3449322 54.7144451,30.652458 C53.8185821,32.8921155 51.3251518,34.0153084 49.0694041,33.235501 L48.865042,33.1593451 L-1.13495804,13.1593451 C-3.44248387,12.2363348 -4.56485544,9.61746778 -3.64184511,7.30994196 Z" id="Stroke-132"></path><path d="M114.843511,36.5654718 C115.110544,34.1660118 117.218034,32.4181733 119.60255,32.5722482 L119.813628,32.5908106 L146.033628,35.5088106 C148.503661,35.7836983 150.283177,38.0088957 150.008289,40.4789282 C149.741256,42.8783882 147.633766,44.6262267 145.24925,44.4721518 L145.038172,44.4535894 L118.818172,41.5355894 C116.348139,41.2607017 114.568623,39.0355043 114.843511,36.5654718 Z" id="Stroke-134"></path></g></g></g></g></svg>