<svg viewBox="392.8488372093025 647.4836624203822 1617.4534883720924 1526.7715498938423" xmlns="http://www.w3.org/2000/svg" xmlns:xlink="http://www.w3.org/1999/xlink" overflow="visible" width="1617.4534883720924px" height="1526.7715498938423px"><defs><polygon id="mastercharacteravatar-path-1" points="1.87952991 1.58079744 195.807393 1.58079744 195.807393 195.192308 1.87952991 195.192308"></polygon></defs><g id="Master/Character/Avatar" stroke="none" stroke-width="1" fill="none" fill-rule="evenodd"><g id="Avatar Background" opacity=".747" transform="translate(376.000000, 630.000000) scale(1 1)"><g id="Avatar Background/Backdrop 4" stroke="none" stroke-width="1" fill="none" fill-rule="evenodd"><path d="M1255.64333,44.9865217 C1366.09524,155.702828 1440.45583,302.852934 1498.63754,465.92072 C1556.81925,628.988506 1598.19983,807.26652 1577.66511,988.728069 C1557.13039,1170.54335 1474.36923,1354.8347 1343.38259,1443.26626 C1213.3978,1530.46331 1035.84227,1523.70816 868.981007,1506.06011 L863.927939,1505.52207 C695.605442,1487.48204 539.105966,1458.83021 395.985174,1374.9971 C253.175514,1291.16399 123.744536,1151.44213 91.3867917,988.374343 C59.6606456,826.587046 123.075975,641.225028 195.593783,480.339117 L197.79399,475.471328 C270.910047,313.464721 352.426672,176.572675 462.878588,65.8563685 C573.330504,-44.8599375 712.71771,-129.400503 855.838503,-134.706397 C998.648163,-140.01229 1144.88028,-65.7297843 1255.64333,44.9865217 Z M849.805179,338.749091 L840.490883,339.756073 C769.965968,347.606272 704.279141,360.329655 644.044219,395.412358 C581.96962,431.645314 525.710288,492.033574 511.645455,562.512024 C498.028886,631.556135 524.731741,710.534215 555.751422,779.453576 L557.897117,784.190446 C589.67823,854.210251 625.11079,913.375457 673.120556,961.22742 C721.130322,1009.07938 781.717295,1045.6181 843.927132,1047.91133 C906.001731,1050.20455 969.563957,1018.0994 1017.70896,970.247438 C1064.94438,923.167281 1096.99407,860.844178 1122.10123,791.723092 L1123.33045,788.318251 C1148.6201,717.839801 1166.60686,640.787439 1157.6811,562.359142 C1148.75534,483.777964 1112.78182,404.126614 1055.8463,365.906196 C999.389197,328.247988 922.286113,331.134516 849.805179,338.749091 L849.805179,338.749091 Z" id="Shape" fill="#FFF5F3" transform="translate(833.000000, 691.000000) rotate(62.000000) translate(-833.000000, -691.000000)"></path></g></g><path d="M1602.87669,1619.34102 C1581.5863,1719.97875 1508.65401,1927.03874 1348.44285,1907.73875 C1182.71158,1887.75347 1063.1047,1779.10078 1046.35661,1598.86067 C998.17749,1606.51084 986.813925,1481.33837 1000.22961,1441.12549 C1013.66354,1400.8605 1057.50375,1424.40508 1057.50375,1424.40508 L1056.81798,1435.32794 C1058.84663,1425.16593 1061.14385,1414.85801 1063.694,1404.41981 C1136.09176,1108.3198 1338.86544,1120.06343 1338.86544,1120.06343 C1711.46941,1139.41554 1624.16447,1518.71892 1602.87669,1619.34102" id="Fill-114" fill="#f5cdc6"></path><g id="Hairstyle" transform="translate(-144.000000, 485.000000) scale(2.6053268765133173 2.606425702811245)"><defs><polygon id="hairstylepompadour-path-1" points="0.893394597 0.106 258.492632 0.106 258.492632 218.7317 0.893394597 218.7317"></polygon></defs><g id="Hairstyle/Pompadour" stroke="none" stroke-width="1" fill="none" fill-rule="evenodd"><g id="Hairstyle" transform="translate(440.000000, 176.000000)"><mask id="hairstylepompadour-mask-2" fill="#fff"><use xlink:href="#hairstylepompadour-path-1"></use></mask><g id="Clip-126"></g><path d="M6.9223,181.4197 C6.9223,181.4197 -12.0337,88.1867 17.2793,85.3947 L46.5933,82.6027 C46.5933,82.6027 24.3793,25.1567 75.9493,7.9667 C127.5193,-9.2243 176.2763,1.6787 199.7183,41.6667 C223.1593,81.6537 247.2263,73.7077 256.5833,113.4727 C265.9393,153.2367 237.8703,218.7317 237.8703,218.7317 C237.8703,218.7317 233.9383,135.9397 224.5443,126.5457 C215.1503,117.1507 176.4293,151.5307 127.1493,140.9707 C77.8683,130.4107 47.1753,87.9977 38.2633,147.4107 C29.3513,206.8227 21.0163,188.8807 21.0163,188.8807 C21.0163,188.8807 17.9623,180.6537 6.6993,183.4697 L6.9223,181.4197 Z" id="Fill-125" fill="#9b5120" mask="url(#hairstylepompadour-mask-2)"></path></g></g></g><g id="Expression" transform="translate(1135.000000, 1336.000000) scale(2.603960396039604 2.611607142857143)"><defs><polygon id="expressionsurprised-path-1" points="0.0154 0.205862705 47.048 0.205862705 47.048 15.5632 0.0154 15.5632"></polygon></defs><g id="Expression/Surprised" stroke="none" stroke-width="1" fill="none" fill-rule="evenodd"><g id="Group-124" transform="translate(25.000000, 52.000000)" fill="#000" fill-rule="nonzero"><path d="M98.9388073,0.515726772 L102.747593,1.73767323 L102.375135,2.93095324 C102.075892,3.9043293 101.742122,5.01790967 101.382468,6.25291663 C100.354215,9.78380887 99.3257634,13.5761133 98.3662837,17.478955 C97.2996742,21.8175645 96.3854385,26.0250163 95.6702376,29.9976992 L95.4631649,31.1740325 C93.7257688,41.2776329 93.4803733,48.9926374 95.0328764,53.1417647 L95.1244408,53.3771728 C104.002358,75.340079 91.9464166,86.4779502 66.6424816,78.6786942 L65.8716485,78.4365483 L67.0907515,74.6268517 C89.8846425,81.9208968 99.0260452,73.7026714 91.4159925,54.8763096 C89.3210345,49.6942966 89.6433125,40.8993486 91.7335247,29.288974 C92.4647551,25.2272527 93.3964651,20.9393815 94.4819426,16.5240234 C95.3476055,13.0027971 96.2678852,9.57278889 97.1943734,6.33814281 L97.5420029,5.13451153 C97.7507758,4.41761123 97.9510908,3.74056192 98.1413397,3.10683734 L98.6297394,1.50244969 L98.9388073,0.515726772 Z" id="Stroke-114"></path><path d="M0.1850015,153.534088 L2.1419985,150.045512 L2.85620174,150.434727 L3.51128674,150.782909 C4.50308988,151.305335 5.6321651,151.880908 6.88714027,152.498006 L7.43266178,152.764985 C11.6537624,154.821142 16.3218862,156.878362 21.3004212,158.797989 C32.7483158,163.212076 44.0600582,166.224884 54.584272,167.202241 C59.3535856,167.645156 63.8735301,167.656119 68.1063644,167.201856 L68.9490919,167.10479 L69.4379081,171.07481 C64.6629697,171.662733 59.5745075,171.682884 54.2143935,171.185103 C43.2765951,170.169337 31.6251616,167.066055 19.8613669,162.530163 C14.7706849,160.567294 9.99959664,158.464698 5.68097489,156.361037 L4.04785364,155.55429 C3.35348222,155.206284 2.70158001,154.872883 2.09423579,154.556252 L0.962732129,153.958187 L0.1850015,153.534088 Z" id="Stroke-122"></path></g><g id="Group-31" transform="translate(43.000000, 35.000000)"><g id="Group-8" transform="translate(94.000000, 0.154000)"><mask id="expressionsurprised-mask-2" fill="#fff"><use xlink:href="#expressionsurprised-path-1"></use></mask><g id="Clip-7"></g></g><path d="M64.4146,120.3478 C64.4146,123.5948 61.7826,126.2278 58.5346,126.2278 C55.2876,126.2278 52.6546,123.5948 52.6546,120.3478 C52.6546,117.0998 55.2876,114.4678 58.5346,114.4678 C61.7826,114.4678 64.4146,117.0998 64.4146,120.3478" id="Fill-11" fill="#000"></path><line x1="1.262" y1="41.457" x2="25.262" y2="25.457" id="Fill-15" fill="#FFF"></line><polygon id="Fill-17" fill="#000" points="2.0935 42.7053 0.4295 40.2093 24.4295 24.2093 26.0935 26.7053"></polygon><line x1="12.261" y1="47.457" x2="36.261" y2="31.457" id="Fill-19" fill="#FFF"></line><polygon id="Fill-21" fill="#000" points="13.0935 48.7053 11.4295 46.2093 35.4295 30.2093 37.0935 32.7053"></polygon><line x1="95.261" y1="49.457" x2="119.261" y2="33.457" id="Fill-23" fill="#FFF"></line><polygon id="Fill-25" fill="#000" points="96.0935 50.7053 94.4295 48.2093 118.4295 32.2093 120.0935 34.7053"></polygon><line x1="106.261" y1="55.457" x2="130.262" y2="39.457" id="Fill-27" fill="#FFF"></line><polygon id="Fill-29" fill="#000" points="107.0935 56.7053 105.4295 54.2093 129.4295 38.2093 131.0935 40.7053"></polygon></g><path d="M57.1284725,14.4421457 C60.1764133,14.0301232 63.0082501,13.8934836 65.6003545,14.0855476 C69.2487059,14.3555192 74.0809651,15.3351793 79.9181239,16.8745094 C81.7033139,17.3452858 83.5576894,17.8626313 85.464859,18.419052 C88.6685947,19.3537487 91.8691575,20.353173 94.9198602,21.3526501 L96.9255582,22.0173639 L98.9181493,22.6958437 C101.786002,23.6969566 103.299294,26.8333733 102.298181,29.7012262 C101.322096,32.4973829 98.3161377,34.0058598 95.5083534,33.1516451 L95.2200107,33.0559245 L94.2872783,32.7364702 C93.46191,32.4562169 92.5248455,32.1432952 91.4951337,31.805939 C88.5514744,30.8415317 85.4628814,29.8770716 82.3840275,28.9788095 C80.5646596,28.448005 78.8014219,27.9560857 77.1131839,27.5108768 L76.00638,27.2229933 C71.275484,26.0100354 67.40312,25.2490245 64.7880614,25.0555147 C63.0338484,24.925535 60.9444428,25.0263514 58.6020561,25.3429966 C55.7852546,25.7237735 52.7250894,26.3971435 49.5811912,27.2800801 C48.0178306,27.7191363 46.5195545,28.1857255 45.1264265,28.6553343 L44.4388103,28.8902769 C43.9990677,29.0425654 43.5980344,29.1854817 43.2396726,29.3165269 L42.5087862,29.5901658 C39.6807486,30.6987737 36.4894669,29.3049006 35.3808589,26.4768631 C34.272251,23.6488256 35.6661241,20.4575438 38.4941616,19.3489359 L39.0670248,19.130558 C39.5213983,18.9610822 40.1178329,18.7457314 40.8391195,18.4959406 C42.6190316,17.8795345 44.5603414,17.264579 46.6070008,16.6897925 C50.208657,15.6782986 53.752343,14.8985329 57.1284725,14.4421457 Z" id="Stroke-116" fill="#000" fill-rule="nonzero"></path><path d="M154.326719,30.5147309 L155.651393,30.479821 C161.093169,30.3575034 165.559063,30.5269215 168.87523,31.0811021 C170.705207,31.3869499 172.61168,31.8997204 174.593783,32.595614 C177.53677,33.6288623 180.594244,35.0454203 183.711126,36.7499594 C185.700631,37.8379661 187.61628,38.9892975 189.413299,40.1493557 L190.176057,40.6468985 C191.395059,41.4503181 192.302355,42.0855363 192.826272,42.4703126 C195.216194,44.2255275 195.730727,47.5858256 193.975512,49.9757485 C192.267735,52.3010789 189.040464,52.8510215 186.665929,51.2623377 L185.924912,50.7371989 L185.312339,50.3137823 C184.988701,50.092775 184.639505,49.8583276 184.266863,49.6127267 C182.484983,48.4383263 180.554875,47.2627151 178.558914,46.1711778 C175.917218,44.726505 173.371579,43.5470854 171.036658,42.7273219 C169.603822,42.2242696 168.283432,41.8691337 167.105207,41.6722145 C164.384208,41.2174953 160.045432,41.0855225 154.649664,41.2478735 C151.358704,41.3468939 147.826806,41.5490471 144.227871,41.8238707 L142.667939,41.947234 C141.646392,42.0308058 140.663402,42.1167174 139.729412,42.203052 L137.051732,42.4663874 C134.103782,42.7859162 131.454966,40.6551595 131.135437,37.707209 C130.823897,34.8329573 132.841659,32.2430709 135.675077,31.8192146 L136.468722,31.7309427 L137.680653,31.6107396 L138.021722,31.578078 C139.67567,31.4207953 141.489921,31.263685 143.410271,31.1170423 C147.16253,30.8305105 150.854141,30.6192159 154.326719,30.5147309 Z" id="Stroke-118" fill="#000" fill-rule="nonzero"></path></g></g><g id="Accessories" transform="translate(1013.000000, 1424.000000) scale(2.606837606837607 2.6025641025641026)"><g id="Accessories/None" stroke="none" stroke-width="1" fill="none" fill-rule="evenodd" fill-opacity="0"></g></g></g></svg>