<svg viewBox="374.15465116279074 847.0339918256133 1671.3686046511623 1225.4253405994548" xmlns="http://www.w3.org/2000/svg" xmlns:xlink="http://www.w3.org/1999/xlink" overflow="visible" width="1671.3686046511623px" height="1225.4253405994548px"><defs><polygon id="mastercharacteravatar-path-1" points="1.87952991 1.58079744 195.807393 1.58079744 195.807393 195.192308 1.87952991 195.192308"></polygon></defs><g id="Master/Character/Avatar" stroke="none" stroke-width="1" fill="none" fill-rule="evenodd"><g id="Avatar Background" opacity=".747" transform="translate(376.000000, 630.000000) scale(1 1)"><g id="Avatar Background/Backdrop 6" stroke="none" stroke-width="1" fill="none" fill-rule="evenodd"><path d="M1125.85132,220 C1294.93746,220 1479.78348,278.654344 1589.69955,413.342097 C1640.48585,475.576851 1665.91931,548.633291 1666,621.247208 C1666.04023,703.234556 1633.75465,784.658693 1569.06258,849.508352 C1509.23416,909.457008 1432.83321,950.044584 1354.80097,983.364387 L1346.19169,987.02126 C1337.40115,990.789691 1328.45394,995.011912 1322.91024,1002.66538 C1318.73732,1008.37889 1316.92087,1015.41449 1315.34385,1022.29307 L1315.05045,1023.58061 C1298.60939,1095.79223 1268.41573,1157.46377 1228.10914,1209.48028 L1228.07286,1209.48028 C1156.2828,1302.16863 1052.17087,1364.162 936.16851,1400.44885 C847.332787,1428.25133 751.483718,1441 657.734621,1441 C500.051213,1441 355.31025,1404.06949 241.927814,1342.4422 L241.887508,1342.39794 C222.137279,1331.73718 203.314102,1320.23159 185.579202,1308.08234 C70.1008237,1228.9915 -1,1120.97578 -1,1001.89701 C-1,774.882969 257.445851,588.09825 588.927243,565.171563 C625.888385,370.095582 852.169578,220 1125.85132,220 Z M398.502036,229 C456.214365,229 503,260.563951 503,299.5 C503,338.440111 456.214365,370 398.502036,370 C340.785635,370 294,338.440111 294,299.5 C294,260.563951 340.785635,229 398.502036,229 Z" id="Shape" fill="#FFF5F3" transform="translate(832.500019, 830.500000) scale(-1, 1) translate(-832.500019, -830.500000)"></path></g></g><path d="M1602.87669,1619.34102 C1581.5863,1719.97875 1508.65401,1927.03874 1348.44285,1907.73875 C1182.71158,1887.75347 1063.1047,1779.10078 1046.35661,1598.86067 C998.17749,1606.51084 986.813925,1481.33837 1000.22961,1441.12549 C1013.66354,1400.8605 1057.50375,1424.40508 1057.50375,1424.40508 L1056.81798,1435.32794 C1058.84663,1425.16593 1061.14385,1414.85801 1063.694,1404.41981 C1136.09176,1108.3198 1338.86544,1120.06343 1338.86544,1120.06343 C1711.46941,1139.41554 1624.16447,1518.71892 1602.87669,1619.34102" id="Fill-114" fill="#ecafa3"></path><g id="Hairstyle" transform="translate(-144.000000, 485.000000) scale(2.6053268765133173 2.606425702811245)"><defs><polygon id="hairstyleshort-hair-path-1" points="0 0.00068458796 256.477 0.00068458796 256.477 187.855 0 187.855"></polygon></defs><g id="Hairstyle/Short Hair" stroke="none" stroke-width="1" fill="none" fill-rule="evenodd"><g id="Group-3" transform="translate(452.000000, 197.000000)"><mask id="hairstyleshort-hair-mask-2" fill="#fff"><use xlink:href="#hairstyleshort-hair-path-1"></use></mask><g id="Clip-2"></g><path d="M9.0688,167.6793 C9.0688,167.6793 12.1858,169.5373 11.0758,187.8553 C11.0758,187.8553 19.4018,179.5293 21.6218,169.5373 C23.8418,159.5463 38.8288,130.6823 51.5958,122.9103 C64.3628,115.1403 84.3458,115.6953 96.0018,97.9333 L107.6588,80.1703 C107.6588,80.1703 182.0388,85.1653 214.2328,109.0343 C214.2328,109.0343 229.2198,115.6953 225.8898,180.6393 C225.8898,180.6393 231.9958,145.6693 233.1058,127.9073 C234.2158,110.1443 241.9868,138.4533 238.6568,153.9953 C238.6568,153.9953 257.6618,137.7753 256.4188,102.9283 C254.7288,55.5333 231.6968,41.8383 216.4538,30.7693 C198.4878,17.7223 145.4818,-11.0527 112.1778,4.4893 C78.8728,20.0313 80.4598,23.5523 64.9178,29.6583 C49.3758,35.7643 29.9478,32.9893 13.2958,45.2003 C-3.3562,57.4123 0.3518,161.1243 0.3518,161.1243 C0.3518,161.1243 6.9378,163.7943 9.0688,167.6793" id="Fill-1" fill="#0f0f0f" mask="url(#hairstyleshort-hair-mask-2)"></path></g></g></g><g id="Expression" transform="translate(1135.000000, 1336.000000) scale(2.603960396039604 2.611607142857143)"><g id="Expression/Sweet" stroke="none" stroke-width="1" fill="none" fill-rule="evenodd"><g id="Group-124" transform="translate(25.000000, 52.000000)" fill="#000" fill-rule="nonzero"><path d="M98.9388073,0.515726772 L102.747593,1.73767323 L102.375135,2.93095324 C102.075892,3.9043293 101.742122,5.01790967 101.382468,6.25291663 C100.354215,9.78380887 99.3257634,13.5761133 98.3662837,17.478955 C97.2996742,21.8175645 96.3854385,26.0250163 95.6702376,29.9976992 L95.4631649,31.1740325 C93.7257688,41.2776329 93.4803733,48.9926374 95.0328764,53.1417647 L95.1244408,53.3771728 C104.002358,75.340079 91.9464166,86.4779502 66.6424816,78.6786942 L65.8716485,78.4365483 L67.0907515,74.6268517 C89.8846425,81.9208968 99.0260452,73.7026714 91.4159925,54.8763096 C89.3210345,49.6942966 89.6433125,40.8993486 91.7335247,29.288974 C92.4647551,25.2272527 93.3964651,20.9393815 94.4819426,16.5240234 C95.3476055,13.0027971 96.2678852,9.57278889 97.1943734,6.33814281 L97.5420029,5.13451153 C97.7507758,4.41761123 97.9510908,3.74056192 98.1413397,3.10683734 L98.6297394,1.50244969 L98.9388073,0.515726772 Z" id="Stroke-114"></path><path d="M0.1850015,153.534088 L2.1419985,150.045512 L2.85620174,150.434727 L3.51128674,150.782909 C4.50308988,151.305335 5.6321651,151.880908 6.88714027,152.498006 L7.43266178,152.764985 C11.6537624,154.821142 16.3218862,156.878362 21.3004212,158.797989 C32.7483158,163.212076 44.0600582,166.224884 54.584272,167.202241 C59.3535856,167.645156 63.8735301,167.656119 68.1063644,167.201856 L68.9490919,167.10479 L69.4379081,171.07481 C64.6629697,171.662733 59.5745075,171.682884 54.2143935,171.185103 C43.2765951,170.169337 31.6251616,167.066055 19.8613669,162.530163 C14.7706849,160.567294 9.99959664,158.464698 5.68097489,156.361037 L4.04785364,155.55429 C3.35348222,155.206284 2.70158001,154.872883 2.09423579,154.556252 L0.962732129,153.958187 L0.1850015,153.534088 Z" id="Stroke-122"></path></g><g id="Group-16" transform="translate(28.000000, 18.000000)" fill="#000"><path d="M70.0371,143.9951 C51.1661,143.9951 36.9381,135.3511 36.2701,134.9381 C34.8611,134.0681 34.4251,132.2191 35.2961,130.8091 C36.1651,129.4011 38.0141,128.9631 39.4241,129.8341 C39.7061,130.0061 56.4191,140.0481 76.5681,137.6031 C78.2011,137.4051 79.7071,138.5751 79.9081,140.2201 C80.1081,141.8641 78.9361,143.3601 77.2911,143.5591 C74.8141,143.8611 72.3881,143.9951 70.0371,143.9951" id="Fill-3"></path><path d="M77.8252,115.1664 C73.7822,115.1664 68.7382,114.3754 62.4432,112.3614 L63.6612,108.5514 C75.3852,112.3024 84.0452,111.9964 88.0462,107.6874 C91.4492,104.0204 91.4282,97.3134 87.9872,88.8014 C85.6522,83.0264 86.2292,72.0734 89.7022,56.2454 C92.2432,44.6624 95.4772,34.5414 95.5102,34.4404 L99.3182,35.6624 C95.8112,46.5954 87.6062,77.1874 91.6952,87.3024 C96.8932,100.1604 94.1742,106.9644 90.9772,110.4084 C88.6972,112.8664 84.7182,115.1664 77.8252,115.1664" id="Fill-5"></path><g id="Group-9" transform="translate(0.000000, 0.956000)"><path d="M64.1387,28.4316 C63.5377,28.4316 62.9257,28.3316 62.3267,28.1226 C56.4907,26.0866 39.6337,20.6746 31.8217,20.0966 C24.4657,19.5516 13.2427,23.1856 9.5387,24.6326 C6.7097,25.7366 3.5207,24.3416 2.4147,21.5146 C1.3077,18.6866 2.7007,15.4986 5.5277,14.3896 C6.1637,14.1406 21.2597,8.2836 32.6337,9.1266 C43.4887,9.9306 65.0387,17.4186 65.9507,17.7376 C68.8187,18.7386 70.3317,21.8746 69.3317,24.7426 C68.5397,27.0106 66.4127,28.4316 64.1387,28.4316" id="Fill-7" transform="translate(35.837276, 18.737642) rotate(-15.000000) translate(-35.837276, -18.737642)"></path></g><path d="M153.6772,46.1645 C152.5752,46.1645 151.4632,45.8265 150.5062,45.1245 C147.4472,42.8845 138.0022,36.8175 131.1372,35.6695 C123.8122,34.4455 106.9602,35.8295 101.0842,36.4645 C98.1372,36.7795 95.4882,34.6525 95.1692,31.7055 C94.8492,28.7575 96.9802,26.1085 99.9272,25.7895 C100.8492,25.6895 122.6282,23.3615 132.9072,25.0795 C143.7152,26.8855 156.3282,36.0775 156.8602,36.4685 C159.2492,38.2235 159.7642,41.5835 158.0092,43.9735 C156.9572,45.4055 155.3282,46.1645 153.6772,46.1645" id="Fill-10" transform="translate(127.094171, 35.306880) rotate(22.000000) translate(-127.094171, -35.306880)"></path></g><g id="Group-19" transform="translate(63.000000, 68.000000)" fill="#000"><path d="M12.5215,6.6586 C12.5215,9.9056 9.8885,12.5386 6.6415,12.5386 C3.3945,12.5386 0.7615,9.9056 0.7615,6.6586 C0.7615,3.4106 3.3945,0.7786 6.6415,0.7786 C9.8885,0.7786 12.5215,3.4106 12.5215,6.6586" id="Fill-10"></path><path d="M87.7615,13.3383 C87.7615,16.5863 85.1285,19.2183 81.8815,19.2183 C78.6345,19.2183 76.0015,16.5863 76.0015,13.3383 C76.0015,10.0913 78.6345,7.4583 81.8815,7.4583 C85.1285,7.4583 87.7615,10.0913 87.7615,13.3383" id="Fill-12"></path></g></g></g><g id="Accessories" transform="translate(1013.000000, 1424.000000) scale(2.606837606837607 2.6025641025641026)"><g id="Accessories/None" stroke="none" stroke-width="1" fill="none" fill-rule="evenodd" fill-opacity="0"></g></g></g></svg>