<svg viewBox="798.774834437086 12.499999999999773 757.4503311258276 2487.4999999999986" xmlns="http://www.w3.org/2000/svg" xmlns:xlink="http://www.w3.org/1999/xlink" overflow="visible" width="757.4503311258276px" height="2487.4999999999986px"><defs><polygon id="mastercharacterstanding-path-1" points="0.893394597 0.106 258.492632 0.106 258.492632 218.7317 0.893394597 218.7317"></polygon></defs><g id="Master/Character/Standing" stroke="none" stroke-width="1" fill="none" fill-rule="evenodd"><g id="Lower Body/Standing" transform="translate(503.000000, 943.000000) scale(1 1)"><g id="Lower Body/Standing/Pijamas with Socks" stroke="none" stroke-width="1" fill="none" fill-rule="evenodd"><g id="Group-14" transform="translate(396.000000, -1.000000)"><polygon id="Fill-1" fill="#ecafa3" points="74.978 1433.748 191.732 1433.748 191.732 1289.977 74.978 1289.977"></polygon><polygon id="Fill-2" fill="#ecafa3" points="618.6499 1404.5708 496.3369 1412.0968 489.0609 1293.8268 611.3729 1286.3008"></polygon><g id="Group-13" transform="translate(0.000000, 0.010000)"><g id="Group-5" transform="translate(439.000000, 1397.000000)" fill="#FEE1E6"><path d="M3.3638,148.0686 C-12.5162,129.0656 50.9938,105.9926 58.2938,56.2276 C58.4138,55.3866 58.5738,54.5626 58.7638,53.7716 L56.5438,17.1226 L54.5738,17.2056 C52.7538,17.2816 51.0738,16.7266 49.8238,15.7756 C48.5738,14.8256 47.7538,13.4706 47.6538,11.9406 C47.4738,8.8866 50.2638,6.2796 53.9038,6.1196 L178.2538,0.7946 C180.0738,0.7186 181.7538,1.2656 183.0038,2.2156 C184.2538,3.1666 185.0738,4.5206 185.1638,6.0516 C185.3538,9.1056 182.5538,11.7206 178.9238,11.8736 L177.0138,11.9576 L178.9038,43.0896 L179.0338,45.2426 C178.9038,48.8596 178.8638,56.9096 180.2838,67.1796 C182.8138,85.3246 189.9438,110.3756 209.3438,130.0496 C243.8138,164.9926 19.2438,167.0706 3.3638,148.0686" id="Fill-3"></path></g><path d="M619.3638,1464.1799 L619.2838,1464.1799 C617.8638,1453.9089 617.9038,1445.8599 618.0338,1442.2429 L619.3638,1464.1799 Z" id="Fill-6" fill="#FFF"></path><path d="M249.354,1536.7903 C233.484,1556.9033 8.904,1554.7053 43.374,1517.7183 C63.284,1496.3573 70.274,1468.9953 72.624,1449.6913 L71.834,1404.6203 L69.864,1404.6463 C68.044,1404.6743 66.384,1404.0323 65.174,1402.9813 C63.964,1401.9393 63.194,1400.4803 63.174,1398.8593 C63.114,1395.6183 66.014,1392.9473 69.654,1392.9023 L194.154,1391.15653 C195.974,1391.1313 197.634,1391.7633 198.844,1392.8133 C200.044,1393.8553 200.814,1395.3073 200.844,1396.9273 C200.904,1400.1683 197.994,1402.8493 194.354,1402.9013 L192.444,1402.9293 L192.984,1433.4953 C193.634,1435.3653 194.124,1437.3873 194.424,1439.5683 C201.724,1492.2533 265.234,1516.6763 249.354,1536.7903" id="Fill-8" fill="#FEE1E6"></path><g id="Group-12" fill="#E93737"><path d="M35.1796,0.99 C35.1796,0.99 -7.102,318.523249 2,561.252249 C11.103,803.979249 32.1196,1256.8035 32.1196,1256.8035 C32.1196,1256.8035 4.3576,1283.6985 25.1796,1307.1235 C36.3956,1319.7415 215.4746,1308.4475 215.4746,1308.4475 C215.4746,1308.4475 227.4376,1277.9965 210.0366,1251.8945 C210.0366,1251.8945 261.1756,367.6115 261.8566,381.5055 C265.8326,462.6305 356.5946,926.8855 444.1686,1253.6015 C444.1686,1253.6015 434.0636,1295.7055 445.8526,1305.8095 C457.6416,1315.9145 636.8806,1314.3615 640.2486,1300.8875 C643.6176,1287.4155 623.4076,1240.2605 623.4076,1240.2605 C623.4076,1240.2605 556.9868,336.286422 472,0.99 L35.1796,0.99 Z" id="Fill-10"></path></g></g></g></g></g><g id="Upper Body" transform="translate(376.000000, 69.000000) scale(1 1)"><defs><polygon id="upper-bodywith-phone-path-1" points="7.50962456e-05 0.5155 704.395 0.5155 704.395 617 7.50962456e-05 617"></polygon></defs><g id="Upper Body/With Phone" stroke="none" stroke-width="1" fill="none" fill-rule="evenodd"><path d="M724.954254,220 C724.954254,220 721.26343,301.153386 673.924004,329.799638 C630.972611,355.790794 721.968632,506.610475 819.857852,497.613536 C873.442212,492.688212 886,346.158072 886,346.158072 C886,346.158072 842.733964,337.796917 858.715877,271.819367 L724.954254,220 Z" id="Neck" fill="#ecafa3"></path><path d="M803.337113,302.515641 C739.876612,294.840687 694.077698,253.11575 687.664652,183.898064 C669.216286,186.83496 664.86504,138.764927 670.003065,123.322958 C675.146083,107.858975 691.933027,116.900812 691.933027,116.900812 C692.862251,114.457234 693.652358,111.898916 694.303348,109.225857 C722.02532,-4.48555283 799.669805,0.0243586862 799.669805,0.0243586862 C942.344355,7.45715716 908.914243,153.120195 900.762895,191.763142 C892.610548,230.410091 864.683894,309.927426 803.337113,302.515641 Z" id="Head" fill="#ecafa3"></path><g id="Group-20" transform="translate(427.000000, 325.000000)"><path d="M144.5029,334.2442 L108.4849,671.3632 C108.4849,671.3632 364.9269,717.4652 586.7909,645.4312 L599.7569,348.6512 C599.7569,348.6512 448.005567,343.848867 144.5029,334.2442 Z" id="Fill-1" fill="#000"></path><g id="Group-3" transform="translate(0.000000, 0.485000)"><mask id="upper-bodywith-phone-mask-2" fill="#fff"><use xlink:href="#upper-bodywith-phone-path-1"></use></mask><g id="Clip-2"></g><path d="M110.2242,571.7275 C110.2242,571.7275 -12.9758,494.9075 1.1242,370.3175 C15.2242,245.7275 67.7462,75.6355 157.9852,40.6815 C248.2242,5.7275 251.0592,0.5155 251.0592,0.5155 C251.0592,0.5155 287.2242,47.7275 350.2242,50.7275 C413.2242,53.7275 454.2242,18.7275 454.2242,18.7275 C454.2242,18.7275 577.9532,48.1985 613.5892,103.9625 C649.2242,159.7275 740.2242,408.7275 689.2242,487.7275 C638.2242,566.7275 539.5942,589.7465 539.5942,589.7465 C539.5942,589.7465 238.2242,661.7275 110.2242,571.7275" id="Fill-1" fill="#000" mask="url(#upper-bodywith-phone-mask-2)"></path></g><path d="M287.2242,342.9967 L286.3152,262.9967 C286.3152,262.9967 283.5882,245.9967 309.9522,244.9967 C336.3152,243.9967 407.2242,242.9967 407.2242,242.9967 C407.2242,242.9967 424.4972,238.9967 425.4062,263.9967 C426.3152,288.9967 427.2242,374.9967 427.2242,374.9967 L318.1332,405.9967 L277.2242,403.9967 L287.2242,342.9967 Z" id="Fill-4" fill="#204EB2"></path><path d="M277.8081,403.525 L318.0761,405.493 L426.7201,374.62 C426.6521,368.343 425.7741,287.874 424.9071,264.015 C424.5891,255.297 422.2501,249.21 417.9541,245.921 C413.1021,242.205 407.3951,243.469 407.3371,243.484 L407.2311,243.497 C406.5221,243.506 336.0261,244.508 309.9711,245.497 C300.3941,245.86 293.6301,248.364 289.8671,252.938 C286.0251,257.609 286.8001,262.866 286.8081,262.919 L287.7251,343.035 L287.7181,343.078 L277.8081,403.525 Z M318.1911,406.5 L318.1091,406.496 L276.6401,404.468 L286.7241,342.959 L285.8151,263.003 C285.7841,262.844 284.9591,257.346 289.0811,252.32 C293.0311,247.504 300.0461,244.872 309.9331,244.497 C335.7041,243.519 404.9121,242.53 407.1661,242.498 C407.8251,242.356 413.5421,241.282 418.5621,245.127 C423.1071,248.606 425.5781,254.949 425.9061,263.978 C426.8051,288.699 427.7151,374.131 427.7241,374.992 L427.7281,375.374 L427.3611,375.477 L318.1911,406.5 Z" id="Fill-6" fill="#000"></path><path d="M286.2837,265.9889 L286.2237,252.2129 C286.2237,252.2129 286.2237,241.2129 301.2237,240.2129 C316.2237,239.2129 405.2237,237.2129 405.2237,237.2129 C405.2237,237.2129 417.2237,236.2129 422.2237,243.2129 C427.2237,250.2129 425.6367,267.2299 425.6367,267.2299 C425.6367,267.2299 425.0797,243.3829 405.1527,243.7979 C385.2237,244.2129 307.6987,245.8149 307.6987,245.8149 C307.6987,245.8149 287.3437,243.7639 286.2837,265.9889" id="Fill-8" fill="#56ACF6"></path><path d="M405.6617,243.2926 C419.2487,243.2926 423.8297,254.5696 425.3677,261.6416 C425.4017,256.0966 424.8827,247.7946 421.8177,243.5036 C417.0377,236.8126 405.3817,237.6986 405.2657,237.7106 C404.3457,237.7316 316.0747,239.7236 301.2577,240.7116 C295.2867,241.1086 290.8817,243.2356 288.5177,246.8606 C286.7447,249.5796 286.7237,252.1866 286.7237,252.2126 L286.7557,259.5216 C287.8327,255.5776 289.7627,252.3926 292.5267,250.0106 C298.9197,244.4986 307.3907,245.2816 307.7487,245.3176 C307.6887,245.3146 385.2137,243.7126 405.1417,243.2976 C405.3157,243.2936 405.4907,243.2926 405.6617,243.2926 M426.1347,267.2766 L425.1367,267.2416 C425.1347,267.1836 424.9657,261.2876 422.3987,255.5356 C418.9967,247.9106 413.2067,244.1186 405.1627,244.2976 C385.2347,244.7126 307.7087,246.3146 307.7087,246.3146 C307.5667,246.3036 299.2327,245.5446 293.1717,250.7736 C289.2537,254.1556 287.1037,259.2826 286.7837,266.0126 L285.7837,265.9906 L285.7237,252.2146 C285.7237,252.0986 285.9007,240.7326 301.1907,239.7136 C316.0307,238.7246 404.3227,236.7326 405.2127,236.7126 C405.6847,236.6726 417.5237,235.7726 422.6307,242.9216 C427.6817,249.9916 426.1997,266.5736 426.1347,267.2766" id="Fill-10" fill="#000"></path><path d="M287.4356,310.9723 C287.4356,310.9723 273.0126,320.2443 268.3766,325.9103 C263.7406,331.5763 267.8616,332.6073 257.5596,343.4243 C247.2576,354.2423 228.7136,381.5423 261.1646,423.2663 C293.6176,464.9903 304.4346,461.3833 317.8276,454.1723 C331.2196,446.9603 332.7656,441.8103 358.0056,439.2343 C383.2456,436.6593 407.4556,411.9333 406.9406,405.7523 L406.4256,399.5713 C406.4256,399.5713 429.6046,390.8143 428.0606,381.0273 C426.5146,371.2403 419.8186,372.2703 419.8186,372.2703 C419.8186,372.2703 424.4546,367.6343 420.8486,359.3923 C417.2426,351.1513 400.2446,352.6963 380.6696,355.2723 C361.0966,357.8473 310.6156,368.1493 307.5246,366.0893 C304.4346,364.0293 305.4646,360.9383 317.3116,359.3923 C329.1596,357.8473 377.0646,357.3323 377.0646,343.9393 C377.0646,330.5463 362.6416,327.9713 334.8256,328.4863 C307.0096,329.0013 301.8586,327.4553 295.1626,330.0323 L288.4656,332.6073 L287.4356,310.9723 Z" id="Fill-12" fill="#ecafa3"></path><path d="M420.2242,372.2125 C420.2242,372.2125 421.7042,371.1445 410.6812,375.3535 C406.6672,376.8855 401.0072,378.4845 393.0332,379.9965 C363.1562,385.6625 316.2822,395.9655 301.8592,398.0255 C287.4352,400.0865 299.2832,403.1765 332.2502,396.4805 C365.2172,389.7835 404.4622,380.8005 406.2242,380.2125 C409.2242,379.2125 418.2242,376.2125 420.2242,372.2125" id="Fill-14" fill="#995B5D"></path><path d="M395.6079,402.6618 C395.6079,402.6618 371.2239,411.2128 359.2239,414.2128 C346.4829,417.3978 336.8859,421.7208 334.3109,417.5998 C331.7349,413.4788 328.6439,412.4488 328.6439,412.4488 L324.5239,417.0848 C324.5239,417.0848 325.2239,422.2128 322.9779,422.7508 C318.9709,423.7118 311.1299,425.3268 311.1299,425.3268 C311.1299,425.3268 311.2239,428.2128 335.2239,423.2128 C341.1789,421.9728 352.2239,420.2128 359.2239,418.2128 C365.6629,416.3728 388.9119,410.3888 392.0029,407.8128 C395.0929,405.2368 395.6079,402.6618 395.6079,402.6618" id="Fill-16" fill="#995B5D"></path><path d="M319.8872,400.0866 C319.8872,400.0866 319.5072,420.8296 325.3632,420.5026 C331.2202,420.1756 333.2802,420.1756 334.3102,418.6296 C335.3412,417.0846 332.7652,411.9336 332.7652,406.2676 C332.7652,400.6016 332.7652,398.0256 328.1292,398.5406 C323.4932,399.0566 320.4022,399.0566 319.8872,400.0866" id="Fill-18" fill="#F9C818"></path></g></g></g><g id="Expression" transform="translate(1098.000000, 152.000000) scale(1 1)"><defs><polygon id="expressionmake-up-holding-laughter-path-1" points="0.000139166 0.824 77.7317814 0.824 77.7317814 24.5342 0.000139166 24.5342"></polygon><polygon id="expressionmake-up-holding-laughter-path-3" points="0.528516447 0.459695949 51.522 0.459695949 51.522 17.6481 0.528516447 17.6481"></polygon></defs><g id="Expression/Make Up Holding Laughter" stroke="none" stroke-width="1" fill="none" fill-rule="evenodd"><g id="Group-19" transform="translate(21.000000, 25.000000)"><path d="M38.7457626,127.648448 C38.7457626,127.648448 38.5078659,143.597448 60.8848659,146.454448 C83.2618659,149.310448 93.2608659,146.454448 92.7848659,136.217448 C92.7848659,136.217448 89.2138659,125.029448 83.9758659,124.553448 C78.7388659,124.077448 73.2638659,126.933448 73.2638659,126.933448 C73.2638659,126.933448 68.0268659,120.030448 62.5518659,120.744448 C57.0758659,121.459448 46.1258659,127.885448 38.7457626,127.648448" id="Fill-12" fill="#CE4129" transform="translate(65.773414, 134.096674) rotate(8.000000) translate(-65.773414, -134.096674)"></path><g id="Group-7" transform="translate(0.000000, 0.176000)"><mask id="expressionmake-up-holding-laughter-mask-2" fill="#fff"><use xlink:href="#expressionmake-up-holding-laughter-path-1"></use></mask><g id="Clip-6"></g></g><path d="M78.6161251,136.110592 C62.3011251,133.935592 42.7881251,131.045592 36.6651251,127.984592 C32.1971251,125.749592 30.5521251,126.311592 30.5361251,126.318592 C30.5371251,126.318592 31.9691251,121.165592 38.4531251,124.405592 C44.7651251,127.562592 70.6411251,131.012592 79.1451251,132.146592 C94.0201251,134.128592 95.3621251,133.361592 97.0611251,132.392592 L99.0451251,135.864592 C97.3991251,136.806592 95.8451251,137.381592 92.3271251,137.381592 C89.4481251,137.381592 85.2541251,136.995592 78.6161251,136.110592 Z" id="Fill-10" fill="#000" transform="translate(64.790625, 130.358713) rotate(8.000000) translate(-64.790625, -130.358713)"></path><g id="Group-16" transform="translate(109.000000, 18.176000)"><mask id="expressionmake-up-holding-laughter-mask-4" fill="#fff"><use xlink:href="#expressionmake-up-holding-laughter-path-3"></use></mask><g id="Clip-15"></g></g><path d="M65.4615,198.176 C51.6075,198.176 37.2855,194.136 27.0135,190.404 C13.8545,185.623 4.3075,180.297 4.2125,180.244 L5.6805,177.627 C6.0515,177.836 43.1465,198.389 72.7935,194.746 L73.1605,197.723 C70.6315,198.034 68.0535,198.176 65.4615,198.176" id="Fill-17" fill="#000"></path></g><g id="Group-124" transform="translate(25.000000, 52.000000)" fill-rule="nonzero"><path d="M98.9388073,0.515726772 L102.747593,1.73767323 L102.375135,2.93095324 C102.075892,3.9043293 101.742122,5.01790967 101.382468,6.25291663 C100.354215,9.78380887 99.3257634,13.5761133 98.3662837,17.478955 C97.2996742,21.8175645 96.3854385,26.0250163 95.6702376,29.9976992 L95.4631649,31.1740325 C93.7257688,41.2776329 93.4803733,48.9926374 95.0328764,53.1417647 L95.1244408,53.3771728 C104.002358,75.340079 91.9464166,86.4779502 66.6424816,78.6786942 L65.8716485,78.4365483 L67.0907515,74.6268517 C89.8846425,81.9208968 99.0260452,73.7026714 91.4159925,54.8763096 C89.3210345,49.6942966 89.6433125,40.8993486 91.7335247,29.288974 C92.4647551,25.2272527 93.3964651,20.9393815 94.4819426,16.5240234 C95.3476055,13.0027971 96.2678852,9.57278889 97.1943734,6.33814281 L97.5420029,5.13451153 C97.7507758,4.41761123 97.9510908,3.74056192 98.1413397,3.10683734 L98.6297394,1.50244969 L98.9388073,0.515726772 Z" id="Stroke-114" fill="#000"></path><path d="M0.1850015,153.534088 L2.1419985,150.045512 L2.85620174,150.434727 L3.51128674,150.782909 C4.50308988,151.305335 5.6321651,151.880908 6.88714027,152.498006 L7.43266178,152.764985 C11.6537624,154.821142 16.3218862,156.878362 21.3004212,158.797989 C32.7483158,163.212076 44.0600582,166.224884 54.584272,167.202241 C59.3535856,167.645156 63.8735301,167.656119 68.1063644,167.201856 L68.9490919,167.10479 L69.4379081,171.07481 C64.6629697,171.662733 59.5745075,171.682884 54.2143935,171.185103 C43.2765951,170.169337 31.6251616,167.066055 19.8613669,162.530163 C14.7706849,160.567294 9.99959664,158.464698 5.68097489,156.361037 L4.04785364,155.55429 C3.35348222,155.206284 2.70158001,154.872883 2.09423579,154.556252 L0.962732129,153.958187 L0.1850015,153.534088 Z" id="Stroke-122" fill="#C86A5D"></path></g><g id="Group-16" transform="translate(90.000000, 52.000000)" fill="#000"><path d="M15.8252,81.1664 C11.7822,81.1664 6.7382,80.3754 0.4432,78.3614 L1.6612,74.5514 C13.3852,78.3024 22.0452,77.9964 26.0462,73.6874 C29.4492,70.0204 29.4282,63.3134 25.9872,54.8014 C23.6522,49.0264 24.2292,38.0734 27.7022,22.2454 C30.2432,10.6624 33.4772,0.5414 33.5102,0.4404 L37.3182,1.6624 C33.8112,12.5954 25.6062,43.1874 29.6952,53.3024 C34.8932,66.1604 32.1742,72.9644 28.9772,76.4084 C26.6972,78.8664 22.7182,81.1664 15.8252,81.1664" id="Fill-5"></path></g><path d="M78.6362,79.1289 C77.9112,79.1289 77.1852,78.8679 76.6092,78.3389 C76.5712,78.3049 71.6242,73.9129 64.4832,74.1789 C57.0942,74.4519 52.1892,78.0669 52.1402,78.1029 C50.8182,79.0929 48.9392,78.8329 47.9442,77.5169 C46.9472,76.1999 47.1962,74.3309 48.5082,73.3279 C48.7642,73.1319 54.8862,68.5299 64.2612,68.1829 C73.9102,67.8359 80.3942,73.6699 80.6652,73.9189 C81.8862,75.0389 81.9682,76.9369 80.8472,78.1569 C80.2562,78.8019 79.4472,79.1289 78.6362,79.1289" id="Fill-12" fill="#000"></path><path d="M25,52.4906 C25,52.4906 40.26,43.2806 51.897,41.1856 C59.082,39.8926 98.756,45.4916 97.492,53.5816 C96.26,61.4636 92.346,60.4026 76.686,57.7116 C61.026,55.0196 53.873,53.2246 44.82,54.2036 C35.766,55.1816 25.245,57.1396 25,52.4906" id="Fill-7" fill="#000" transform="translate(61.260773, 50.348940) rotate(-19.000000) translate(-61.260773, -50.348940)"></path><path d="M186.977136,62.4844194 C186.977136,62.4844194 184.362136,54.4834194 180.059136,50.6384194 C175.756136,46.7954194 143.372136,38.4954194 137.895136,43.6284194 C129.193136,51.7844194 135.446136,54.7074194 152.915136,56.5194194 C166.964136,57.9774194 172.514136,58.4634194 179.025136,61.2914194 C187.921136,65.1554194 186.780136,63.9744194 186.977136,62.4844194" id="Fill-10" fill="#000" transform="translate(160.488568, 52.947836) rotate(28.000000) translate(-160.488568, -52.947836)"></path><path d="M162.7539,88.2724 C162.0289,88.2724 161.3029,88.0114 160.7269,87.4824 C160.6889,87.4484 155.7419,83.0504 148.5999,83.3224 C141.2309,83.5944 136.3169,87.2014 136.2699,87.2374 C134.9529,88.2444 133.0699,87.9924 132.0639,86.6764 C131.0579,85.3604 131.3089,83.4774 132.6249,82.4714 C132.8809,82.2754 139.0039,77.6724 148.3789,77.3264 C158.0239,76.9814 164.5119,82.8134 164.7829,83.0624 C166.0039,84.1824 166.0859,86.0804 164.9649,87.3004 C164.3739,87.9454 163.5649,88.2724 162.7539,88.2724" id="Fill-14" fill="#000"></path></g></g><g id="Hairstyle" transform="translate(607.000000, -175.000000) scale(1 1)"><g id="Hairstyle/Bob" stroke="none" stroke-width="1" fill="none" fill-rule="evenodd"><path d="M359,546.688025 C359,546.688025 368.956,407.470025 401.03,324.865025 C441.336,221.054025 509.651,178.826025 568.391,198.822025 C568.391,198.822025 652.125,188.824025 678.37,262.560025 C704.615,336.296025 694.617,571.252025 694.617,571.252025 L628.379,566.253025 C628.379,566.253025 619.006,541.258025 623.38,522.512025 C623.38,522.512025 660.596,483.244025 671.063,424.277025 C685.12,345.101025 639.956,344.072025 601.838,327.200025 C563.72,310.328025 541.521,288.180025 541.521,288.180025 C541.521,288.180025 479.09,373.059025 489.759,552.915025 L359,546.688025 Z" id="Fill-1" fill="#000"></path></g></g><g id="Accessories" transform="translate(1051.000000, 185.000000) scale(1 1)" fill="#000"><g id="Accessories/None" stroke="none" stroke-width="1" fill="none" fill-rule="evenodd" fill-opacity="0"></g></g><g id="Facial Hair" transform="translate(1061.000000, 186.000000) scale(1 1)" fill="#000"><g id="Facial Hair/None" stroke="none" stroke-width="1" fill="none" fill-rule="evenodd" fill-opacity="0"></g></g></g></svg>