<svg viewBox="1117.9028436018957 1050 1226.451421800948 1449.9999999999998" xmlns="http://www.w3.org/2000/svg" xmlns:xlink="http://www.w3.org/1999/xlink" overflow="visible" width="1226.451421800948px" height="1449.9999999999998px"><defs><polygon id="mastercharactersitting-on-floor-path-1" points="0 0.216 1141.521 0.216 1141.521 422.785934 0 422.785934"></polygon><polygon id="mastercharactersitting-on-floor-path-3" points="0.893394597 0.106 258.492632 0.106 258.492632 218.7317 0.893394597 218.7317"></polygon></defs><g id="Master/Character/Sitting On Floor" stroke="none" stroke-width="1" fill="none" fill-rule="evenodd"><g id="Upper Body" transform="translate(911.000000, 1121.000000) scale(1 1)"><defs><polygon id="upper-bodywith-laptop-path-1" points="0.1808 0.1553 298.703924 0.1553 298.703924 343 0.1808 343"></polygon><polygon id="upper-bodywith-laptop-path-3" points="0.550418291 0.388 141.311628 0.388 141.311628 92.088834 0.550418291 92.088834"></polygon></defs><g id="Upper Body/With Laptop" stroke="none" stroke-width="1" fill="none" fill-rule="evenodd"><path d="M724.954254,220 C724.954254,220 721.26343,301.153386 673.924004,329.799638 C630.972611,355.790794 721.968632,506.610475 819.857852,497.613536 C873.442212,492.688212 886,346.158072 886,346.158072 C886,346.158072 842.733964,337.796917 858.715877,271.819367 L724.954254,220 Z" id="Neck" fill="#f6cbc3"></path><path d="M803.337113,302.515641 C739.876612,294.840687 694.077698,253.11575 687.664652,183.898064 C669.216286,186.83496 664.86504,138.764927 670.003065,123.322958 C675.146083,107.858975 691.933027,116.900812 691.933027,116.900812 C692.862251,114.457234 693.652358,111.898916 694.303348,109.225857 C722.02532,-4.48555283 799.669805,0.0243586862 799.669805,0.0243586862 C942.344355,7.45715716 908.914243,153.120195 900.762895,191.763142 C892.610548,230.410091 864.683894,309.927426 803.337113,302.515641 Z" id="Head" fill="#f6cbc3"></path><g id="Group-25" transform="translate(266.000000, 320.000000)"><g id="Group-19" transform="translate(0.000000, 0.612000)"><path d="M105.050047,289.936251 C33.5168788,376.727653 8.92577071,446.699768 31.2767231,499.852598 C64.8031518,579.581843 146.951413,496.522302 192.490195,395.604271 C222.849383,328.325583 260.283957,276.925705 304.793918,241.404634 L105.050047,289.936251 Z" id="Path" fill="#f6cbc3" transform="translate(164.044509, 386.561708) rotate(-10.000000) translate(-164.044509, -386.561708)"></path><g id="Group-3" transform="translate(695.000000, 361.000000)"><mask id="upper-bodywith-laptop-mask-2" fill="#fff"><use xlink:href="#upper-bodywith-laptop-path-1"></use></mask><g id="Clip-2"></g></g><path d="M280.8551,41.1066 C363.7551,15.4706 389.3011,14.0266 389.3011,14.0266 L476.8081,32.8846 C476.8081,32.8846 524.7691,95.9186 528.8791,152.1006 C528.8791,152.1006 530.2491,78.1046 561.7671,27.4036 C561.7671,27.4036 700.4791,26.1286 752.7731,80.7306 C835.3711,166.9736 833.813167,318.3006 833.813167,318.3006 L697.5221,332.3166 L752.7731,255.388 C752.7731,255.388 756.263179,568.804637 748.041179,649.652637 C644,764.422821 270,675.591107 270,675.591107 C270,675.591107 278.1151,416.25183 279.4851,345.3136 C280.8551,274.37537 254.6201,283.9566 218.4531,371.8906 C188.8861,443.7816 94.8851,294.7296 94.8851,294.7296 C94.8851,294.7296 152.5811,80.7726 280.8551,41.1066 Z" id="Fill-4" fill="#1BC0D7"></path><path d="M704.0424,431.7121 C704.0424,431.7121 771.3394,407.5801 839.7714,421.8301 C839.7714,421.8301 838.8854,399.4921 839.5874,369.9961 C840.1634,345.7711 853.4304,308.2791 805.5564,312.3171 C749.8404,317.0161 725.9594,317.5081 701.7344,328.4671 C701.7344,328.4671 695.9674,408.6411 704.0424,431.7121" id="Fill-6" fill="#FCEBEC"></path><path d="M63.9394,341.7921 L93.2847063,249.4471 C93.2847063,249.4471 201.904517,226.7581 244.9394,320.6421 L212.685338,404.2371 C212.685338,404.2371 152.370466,315.2971 63.9394,341.7921" id="Fill-10" fill="#237978"></path><g id="Group-14" transform="translate(338.000000, 0.000000)"><mask id="upper-bodywith-laptop-mask-4" fill="#fff"><use xlink:href="#upper-bodywith-laptop-path-3"></use></mask><g id="Clip-13"></g><path d="M52.6986,0.4875 C52.6986,0.4875 -2.7084,19.2415 0.7016,24.3555 C4.1106,29.4695 102.4766,94.8915 109.8506,91.9955 C117.2246,89.0985 144.8776,36.6905 140.9276,31.4235 C136.9766,26.1565 57.4346,-1.4785 52.6986,0.4875" id="Fill-12" fill="#237978" mask="url(#upper-bodywith-laptop-mask-4)"></path></g><path d="M650.6088,23.2834 C650.6088,23.2834 698.2988,57.1534 693.5648,61.0734 C688.8308,64.9934 575.8238,99.4234 569.5908,94.5314 C563.3598,89.6394 551.9168,31.4994 557.2118,27.5884 C562.5088,23.6774 646.6358,20.0404 650.6088,23.2834" id="Fill-15" fill="#237978"></path><path d="M123.259851,445.031349 C166.893554,466.002349 153.233851,474.731349 174.524851,487.829349 C195.815851,500.928349 228.449851,535.078349 239.694851,527.258349 C250.938851,519.438349 247.765851,512.512349 236.068851,502.885349 C224.372851,493.257349 188.169851,461.709349 192.145851,456.921349 C196.122851,452.133349 257.341851,520.465349 275.349851,508.401349 C293.357851,496.336349 254.631851,465.557349 235.864851,452.620349 C217.098851,439.684349 206.592851,428.138349 212.609851,426.196349 C218.626851,424.255349 289.502851,499.367349 303.228851,487.951349 C316.956851,476.535349 291.560851,450.435349 272.692851,437.256349 C253.825851,424.077349 224.797851,402.906349 224.797851,402.906349 C224.797851,402.906349 262.223851,418.298349 291.053851,445.811349 C319.883851,473.323349 326.829851,471.564349 330.441851,465.221349 C334.053851,458.878349 304.306851,424.060349 304.306851,424.060349 C304.306851,424.060349 305.316851,383.621349 266.957851,370.249349 C228.598851,356.878349 199.545851,336.218349 159.169851,339.440349 C118.793851,342.660349 106.355352,366.565153 106.355352,366.565153 C106.355352,366.565153 79.6261472,424.060349 123.259851,445.031349 Z" id="Fill-8" fill="#f6cbc3" transform="translate(214.499157, 433.756203) rotate(30.000000) translate(-214.499157, -433.756203)"></path><path d="M662.9867,209.88 L572.1647,209.88 C568.4677,209.88 565.4707,206.884 565.4707,203.188 L565.4707,195.319 C565.4707,191.624 568.4677,188.627 572.1647,188.627 L662.9867,188.627 C666.6827,188.627 669.6787,191.624 669.6787,195.319 L669.6787,203.188 C669.6787,206.884 666.6827,209.88 662.9867,209.88" id="Fill-17" fill="#237978"></path></g><g id="Group-24" transform="translate(397.000000, 175.000000)"><path d="M185.2874,372.4279 L2.5724,321.7809 C2.5724,321.7809 -8.7866,309.7899 24.6594,306.6349 C58.1044,303.4799 407.5584,294.1429 407.5584,294.1429 L185.2874,372.4279 Z" id="Fill-20" fill="#204EB2"></path><path d="M703.3129,371.8791 L190.8269,371.8791 C181.3339,371.8791 173.6369,364.1841 173.6369,354.6901 L220.1609,17.2031 C220.1609,7.7101 227.8559,0.0141 237.3489,0.0141 L749.8349,0.0141 C759.3289,0.0141 767.0249,7.7101 767.0249,17.2031 L720.5009,354.6901 C720.5009,364.1841 712.8059,371.8791 703.3129,371.8791" id="Fill-22" fill="#3267C8"></path></g><g id="Group-2" transform="translate(893.239277, 513.555823) scale(-1, 1) rotate(-72.000000) translate(-893.239277, -513.555823) translate(800.239277, 441.555823)"><path d="M34.8019558,0.721228206 C34.8019558,0.721228206 30.1385768,5.272 25.5025768,10.938 C20.8665768,16.604 24.9875768,17.635 14.6855768,28.452 C4.38357684,39.27 -14.1604232,66.57 18.2905768,108.294 C50.7435768,150.018 61.5605768,146.411 74.9535768,139.2 C88.3455768,131.988 89.8915768,126.838 115.131577,124.262 C140.371577,121.687 164.581577,96.961 164.066577,90.78 L163.551577,84.599 C163.551577,84.599 186.730577,75.842 185.186577,66.055 C183.640577,56.268 176.944577,57.298 176.944577,57.298 C176.944577,57.298 181.580577,52.662 177.974577,44.42 C174.368577,36.179 157.370577,37.724 137.795577,40.3 C118.222577,42.875 67.7415768,53.177 64.6505768,51.117 C61.5605768,49.057 62.5905768,45.966 74.4375768,44.42 C86.2855768,42.875 134.190577,42.36 134.190577,28.967 C134.190577,15.574 119.767577,12.999 91.9515768,13.514 C64.1355768,14.029 58.9845768,12.483 52.2885768,15.06 L39.9277765,16.4968824 C36.5105627,5.9797796 34.8019558,0.721228206 34.8019558,0.721228206 Z" id="Fill-12" fill="#f6cbc3"></path><path d="M177.350177,57.2402 C177.350177,57.2402 178.830177,56.1722 167.807177,60.3812 C163.793177,61.9132 158.133177,63.5122 150.159177,65.0242 C120.282177,70.6902 73.4081768,80.9932 58.9851768,83.0532 C44.5611768,85.1142 56.4091768,88.2042 89.3761768,81.5082 C122.343177,74.8112 161.588177,65.8282 163.350177,65.2402 C166.350177,64.2402 175.350177,61.2402 177.350177,57.2402" id="Fill-14" fill="#995B5D"></path><path d="M116.349877,99.2405 C103.608877,102.4255 82.3498768,107.2405 80.1038768,107.7785 C76.0968768,108.7395 68.2558768,110.3545 68.2558768,110.3545 C68.2558768,110.3545 68.3498768,113.2405 92.3498768,108.2405 C98.3048768,107.0005 109.349877,105.2405 116.349877,103.2405 C122.788877,101.4005 146.037877,95.4165 149.128877,92.8405 C152.218877,90.2645 152.733877,87.6895 152.733877,87.6895 C152.733877,87.6895 128.349877,96.2405 116.349877,99.2405 Z" id="Fill-16" fill="#995B5D"></path></g></g></g></g><g id="Lower Body/Sitting on Floor" transform="translate(1165.000000, 2062.000000) scale(-1, 1) translate(-1165.000000, -2062.000000) translate(0.000000, 1624.000000) scale(1 1)"><g id="Lower Body/Sitting on Floor/Legs Crossed 2" stroke="none" stroke-width="1" fill="none" fill-rule="evenodd"><g id="Group-46" transform="translate(69.000000, 357.000000)"><path d="M583.8821,306.5582 C583.8821,306.5582 541.1281,325.1022 535.9771,317.8902 C530.8261,310.6792 575.1251,355.4942 575.1251,355.4942 L607.0621,337.4642 L583.8821,306.5582 Z" id="Fill-1" fill="#f6cbc3"></path><path d="M583.8821,306.5582 C583.8821,306.5582 541.1281,325.1022 535.9771,317.8902 C530.8261,310.6792 575.1251,355.4942 575.1251,355.4942 L607.0621,337.4642 L583.8821,306.5582 Z" id="Stroke-3" stroke="#000" stroke-width="3"></path><path d="M241.3362,329.2232 C241.3362,329.2232 178.4932,365.7952 228.4582,422.9722 C278.4232,480.1492 455.1052,441.0012 455.1052,441.0012 L459.7412,418.3362 C459.7412,418.3362 282.0292,332.3142 241.3362,329.2232" id="Fill-5" fill="#F0ECEC"></path><path d="M241.3362,329.2232 C241.3362,329.2232 216.6112,334.3732 208.8842,362.7042 C201.1582,391.0362 218.1892,424.0292 243.1552,435.0902 C243.1552,435.0902 211.2912,364.3752 267.2642,335.2092 L241.3362,329.2232 Z" id="Fill-7" fill="#E0D3CC"></path><path d="M261.5242,443.1266 C261.5242,443.1266 284.0902,397.2176 294.3922,398.2476 C304.6942,399.2776 416.2152,405.0666 427.4192,402.9446 L464.3772,417.8206 L457.8422,441.4046 C457.8422,441.4046 320.3452,473.5836 261.5242,443.1266" id="Fill-9" fill="#E7DADA"></path><path d="M291.8167,356.524 C291.8167,356.524 283.5747,416.276 295.4217,416.276 C307.2697,416.276 310.3607,349.312 312.4207,372.492 C314.4817,395.671 316.0267,425.033 323.7537,416.276 C331.4797,407.519 315.5117,342.616 322.2077,360.644 C328.9037,378.673 333.0247,412.67 343.8427,412.155 C354.6597,411.64 339.7217,377.128 345.3877,376.097 C351.0537,375.067 362.3857,420.912 372.1727,415.246 C381.9607,409.58 363.9317,371.977 374.2337,385.884 C384.5357,399.793 387.6267,416.276 396.8987,414.215 C406.1707,412.155 395.8677,394.127 390.2017,385.37 C384.5357,376.613 297.4827,343.13 294.9067,347.252 C292.3317,351.373 291.8167,356.524 291.8167,356.524" id="Fill-11" fill="#F9F9F9"></path><g id="Group-15" transform="translate(0.000000, 0.784000)" fill="#165C5D"><path d="M424.7141,414.4617 C424.7141,414.4617 216.6111,354.1937 119.7711,277.4427 C22.9311,200.6917 -33.2159,126.0017 21.3851,42.0397 C75.9861,-41.9233 204.2481,21.9497 266.0611,49.2507 C327.8741,76.5517 530.5701,115.1607 627.2801,114.9157 C723.9911,114.6697 853.7981,107.4577 921.2771,87.3687 C988.7561,67.2797 1096.4131,36.8887 1129.3811,118.7907 C1162.3471,200.6917 1123.7141,281.0497 1067.0521,308.3497 C1010.3901,335.6497 835.7691,394.3727 746.1411,388.7067 L656.5121,383.0397 C656.5121,383.0397 617.8791,340.2867 628.1811,277.9587 L574.0951,317.1067 C574.0951,317.1067 543.1891,316.5917 531.8561,312.4707 C520.5241,308.3497 457.6811,459.2757 424.7141,414.4617" id="Fill-13"></path></g><path d="M479.8304,422.4576 C479.8304,422.4576 570.4894,455.9386 592.1234,469.8476 C613.7584,483.7556 658.5724,495.6026 680.2074,480.6646 C701.8414,465.7266 688.9644,391.5516 688.9644,391.5516 C688.9644,391.5516 616.3334,375.0666 608.0924,363.7346 C599.8504,352.4026 533.9164,314.8006 533.9164,314.8006 L479.8304,422.4576 Z" id="Fill-16" fill="#f6cbc3"></path><path d="M681.1965,397.4195 C681.1965,397.4195 685.8735,385.3695 700.2965,387.9445 C714.7195,390.5215 849.1625,375.5825 887.7955,364.7655 C926.4275,353.9475 1008.3305,430.6985 972.7875,484.7845 C937.2455,538.8715 888.8255,513.1155 845.0415,509.5105 C801.2575,505.9045 716.2645,518.2675 697.2055,512.0855 C678.1465,505.9045 659.0875,494.5715 658.5725,481.1795 C658.0575,467.7865 681.1965,397.4195 681.1965,397.4195" id="Fill-18" fill="#F0ECEC"></path><path d="M877.7664,371.8189 C877.7664,371.8189 934.6694,399.7929 944.9724,438.4249 C955.2744,477.0579 950.4914,507.9839 950.4914,507.9839 C950.4914,507.9839 1004.4904,482.5399 973.7014,422.1069 C942.9114,361.6739 894.5234,356.7079 877.7664,365.6299 C861.0094,374.5519 877.7664,371.8189 877.7664,371.8189" id="Fill-20" fill="#E0D3CC"></path><path d="M871.4646,370.5123 C871.4646,370.5123 848.1316,407.5193 845.0416,434.3043 C845.0416,434.3043 847.1016,439.4553 821.3466,438.9413 C795.5906,438.4253 675.5176,412.0763 675.5176,412.0763 C675.5176,412.0763 649.6886,473.9503 659.0246,489.9273 C668.3596,505.9053 845.0416,475.5133 845.0416,475.5133 C845.0416,475.5133 852.2526,471.3923 856.8886,474.9983 C861.5246,478.6043 885.4606,511.6303 918.3066,518.2963 C918.3066,518.2963 867.1906,490.9663 863.0696,454.9083 C858.9486,418.8513 871.4646,370.5123 871.4646,370.5123" id="Fill-22" fill="#EEDFD9"></path><path d="M701.8416,408.0348 C701.8416,408.0348 703.3866,443.0608 696.6906,462.6358 C689.9936,482.2098 684.4326,499.2828 695.9696,497.1848 C707.5076,495.0878 719.8706,417.3058 713.1746,410.6098 C706.4776,403.9138 702.3566,401.8528 701.8416,408.0348" id="Fill-24" fill="#FFF"></path><path d="M720.9006,412.1549 C720.9006,412.1549 722.4456,447.1819 715.7496,466.7569 C709.0526,486.3309 703.4916,503.4029 715.0286,501.3049 C726.5666,499.2089 738.9296,421.4269 732.2326,414.7309 C725.5366,408.0349 721.4156,405.9739 720.9006,412.1549" id="Fill-26" fill="#FFF"></path><path d="M788.3796,413.3853 C788.3796,413.3853 789.9246,445.4233 783.2286,463.3263 C776.5316,481.2303 770.9706,496.8463 782.5076,494.9273 C794.0456,493.0083 806.4086,421.8653 799.7116,415.7403 C793.0156,409.6153 788.8946,407.7313 788.3796,413.3853" id="Fill-28" fill="#FFF"></path><path d="M814.135,417.2809 C814.135,417.2809 815.68,447.1849 808.984,463.8959 C802.287,480.6079 796.726,495.1829 808.263,493.3929 C819.801,491.6019 832.164,425.1969 825.467,419.4799 C818.771,413.7619 814.65,412.0039 814.135,417.2809" id="Fill-30" fill="#FFF"></path><path d="M832.6423,415.1246 C832.6423,415.1246 838.4183,444.5056 834.1633,461.9986 C829.9083,479.4916 826.4733,494.7096 837.6393,491.2986 C848.8053,487.8876 851.6123,420.3986 844.1723,415.6906 C836.7313,410.9826 832.4023,409.8266 832.6423,415.1246" id="Fill-32" fill="#FFF"></path><path d="M744.8552,414.4049 C744.8552,414.4049 742.8102,449.4069 734.1472,468.1939 C725.4832,486.9799 718.2052,503.3939 729.8972,502.4879 C741.5882,501.5819 761.8412,425.4719 755.8652,418.1269 C749.8882,410.7799 746.0002,408.3089 744.8552,414.4049" id="Fill-34" fill="#FFF"></path><path d="M754.9553,413.7564 C754.9553,413.7564 761.9163,448.1194 758.3383,468.4954 C754.7593,488.8714 751.9143,506.6014 762.9873,502.7384 C774.0593,498.8764 774.2043,420.1184 766.5503,414.5424 C758.8953,408.9664 754.5053,407.5694 754.9553,413.7564" id="Fill-36" fill="#FFF"></path><path d="M677.7112,409.7262 C677.7112,409.7262 710.0832,416.7912 703.3872,455.9392 C696.6902,495.0872 656.0132,484.0552 656.0132,484.0552 C656.0132,484.0552 646.3702,419.6602 677.7112,409.7262" id="Fill-38" fill="#FFF"></path><polygon id="Stroke-40" fill="#000" fill-rule="nonzero" points="222.064539 67.357022 506.395 291.638 567.949 317.564 633.126623 276.966138 856.941623 135.370138 859.080177 138.750462 635.253319 280.353906 568.306142 322.054535 504.343936 295.114337 219.587261 70.497578"></polygon><path d="M640.0286,255.5631 C640.0286,255.5631 593.6696,268.4401 580.7916,290.5901 C567.9136,312.7401 572.0346,350.8571 610.1526,366.8261 C648.2706,382.7941 663.7236,396.1871 653.9366,370.9471 C644.1496,345.7071 626.1206,299.3461 640.0286,255.5631" id="Fill-42" fill="#46AFAC"></path><path d="M505.0706,284.9234 C505.0706,284.9234 500.4346,336.4344 472.1036,376.6124 C443.7736,416.7914 418.5326,420.9114 427.8046,430.6984 C437.0766,440.4854 451.4996,445.1214 460.7716,457.4854 C470.0436,469.8474 469.5286,469.3314 491.1626,443.5764 C512.7976,417.8204 560.1876,360.6444 561.2176,309.6494 C561.2176,309.6494 509.1916,267.9254 505.0706,284.9234" id="Fill-44" fill="#46AFAC"></path></g></g></g><g id="Expression" transform="translate(1633.000000, 1204.000000) scale(1 1)"><g id="Expression/Meditating" stroke="none" stroke-width="1" fill="none" fill-rule="evenodd"><g id="Group-124" transform="translate(25.000000, 31.000000)" fill-rule="nonzero"><path d="M104.685189,41.7608422 C105.799739,40.6260634 107.594825,40.5649295 108.78246,41.5890238 L109.323265,42.0922215 C109.679851,42.417346 110.098676,42.7830843 110.574652,43.1792057 C111.94412,44.3189167 113.484129,45.4610626 115.151599,46.5241767 C119.702796,49.4258418 124.295338,51.172265 128.558587,51.2424016 C132.874539,51.3130298 136.865025,49.9074098 140.437409,47.4948081 C141.67134,46.6614747 142.761501,45.768172 143.691014,44.8802215 L143.992411,44.5872953 C144.224631,44.3574693 144.409243,44.1644586 144.544403,44.0166431 L144.733887,43.8011958 C145.791956,42.526184 147.683292,42.3503175 148.958304,43.408387 C150.233316,44.4664564 150.409182,46.3577925 149.351113,47.6328042 L149.150042,47.8672558 C148.847545,48.210262 148.407828,48.6720596 147.83555,49.2187491 C146.672781,50.3295265 145.323752,51.4349517 143.795434,52.4670978 C139.27381,55.5207674 134.125278,57.3343007 128.460152,57.2415941 C122.909111,57.1502715 117.329711,55.028572 111.926036,51.5834002 C110.031541,50.3755444 108.290777,49.0845082 106.736552,47.7910371 L106.286566,47.4122537 C105.573365,46.8047902 105.045411,46.3196388 104.723342,46.0033113 C103.541281,44.8423217 103.524199,42.9429035 104.685189,41.7608422 Z" id="Stroke-110" fill="#000"></path><path d="M38.7253835,117.884449 C39.5642128,116.527263 41.3095678,116.07235 42.6962173,116.818359 L43.3869917,117.21948 L43.8984869,117.502848 C44.2590401,117.698929 44.6584684,117.908937 45.0953445,118.130389 C46.9879034,119.089729 49.1612767,120.052834 51.576502,120.953225 C60.5558907,124.300723 70.2239338,125.866606 79.9973044,124.67862 C81.6420524,124.478696 83.1374551,125.649956 83.3373798,127.294704 C83.5373044,128.939452 82.3660437,130.434855 80.7212956,130.63478 C69.894657,131.950794 59.2949096,130.234008 49.4806187,126.57526 C46.8465621,125.593288 44.4687237,124.539577 42.3825599,123.482099 L41.6157512,123.086639 C40.7409474,122.627255 40.0965569,122.258685 39.7000485,122.013616 C38.290664,121.142525 37.8542916,119.293833 38.7253835,117.884449 Z" id="Stroke-112" fill="#000"></path><path d="M98.9388073,21.5157268 L102.747593,22.7376732 L102.375135,23.9309532 C102.075892,24.9043293 101.742122,26.0179097 101.382468,27.2529166 C100.354215,30.7838089 99.3257634,34.5761133 98.3662837,38.478955 C97.2996742,42.8175645 96.3854385,47.0250163 95.6702376,50.9976992 L95.4631649,52.1740325 C93.7257688,62.2776329 93.4803733,69.9926374 95.0328764,74.1417647 L95.1244408,74.3771728 C104.002358,96.340079 91.9464166,107.47795 66.6424816,99.6786942 L65.8716485,99.4365483 L67.0907515,95.6268517 C89.8846425,102.920897 99.0260452,94.7026714 91.4159925,75.8763096 C89.3210345,70.6942966 89.6433125,61.8993486 91.7335247,50.288974 C92.4647551,46.2272527 93.3964651,41.9393815 94.4819426,37.5240234 C95.3476055,34.0027971 96.2678852,30.5727889 97.1943734,27.3381428 L97.5420029,26.1345115 C97.7507758,25.4176112 97.9510908,24.7405619 98.1413397,24.1068373 L98.6297394,22.5024497 L98.9388073,21.5157268 Z" id="Stroke-114" fill="#000"></path><path d="M24.5912986,0.515294847 C27.6392394,0.103272361 30.4710762,-0.0333671966 33.0631806,0.158696725 C36.7115321,0.428668329 41.5437912,1.40832846 47.38095,2.94765852 C49.16614,3.41843493 51.0205155,3.93578045 52.9276851,4.49220122 C56.1314208,5.42689786 59.3319836,6.42632221 62.3826864,7.42579929 L64.3883843,8.09051311 L66.3809754,8.76899282 C69.2488284,9.77010581 70.7621202,12.9065224 69.7610072,15.7743754 C68.784922,18.5705321 65.7789638,20.079009 62.9711796,19.2247943 L62.6828368,19.1290737 L61.7501044,18.8096194 C60.9247361,18.529366 59.9876716,18.2164443 58.9579598,17.8790882 C56.0143005,16.9146808 52.9257075,15.9502208 49.8468536,15.0519587 C48.0274857,14.5211542 46.264248,14.0292349 44.57601,13.5840259 L43.4692061,13.2961425 C38.7383101,12.0831846 34.8659461,11.3221737 32.2508875,11.1286639 C30.4966745,10.9986842 28.4072689,11.0995005 26.0648822,11.4161458 C23.2480808,11.7969227 20.1879155,12.4702927 17.0440173,13.3532292 C15.4806567,13.7922855 13.9823806,14.2588747 12.5892526,14.7284835 L11.9016364,14.9634261 C11.4618938,15.1157145 11.0608605,15.2586308 10.7024987,15.389676 L9.97161227,15.6633149 C7.14357473,16.7719229 3.95229301,15.3780498 2.84368505,12.5500123 C1.7350771,9.72197473 3.12895018,6.53069301 5.95698773,5.42208505 L6.52985093,5.20370717 C6.98422439,5.03423142 7.580659,4.81888054 8.30194561,4.56908982 C10.0818577,3.95268364 12.0231675,3.33772818 14.0698269,2.76294164 C17.6714831,1.75144773 21.2151691,0.971682068 24.5912986,0.515294847 Z" id="Stroke-116" fill="#000"></path><path d="M121.789545,16.5878801 L123.114219,16.5529702 C128.555995,16.4306526 133.021889,16.6000706 136.338056,17.1542512 C138.168033,17.4600991 140.074506,17.9728696 142.05661,18.6687631 C144.999596,19.7020115 148.057071,21.1185695 151.173952,22.8231086 C153.163457,23.9111153 155.079106,25.0624467 156.876125,26.2225048 L157.638883,26.7200477 C158.857885,27.5234673 159.765181,28.1586854 160.289098,28.5434618 C162.679021,30.2986767 163.193553,33.6589748 161.438338,36.0488977 C159.730562,38.3742281 156.503291,38.9241706 154.128755,37.3354869 L153.387738,36.810348 L152.775165,36.3869315 C152.451527,36.1659242 152.102331,35.9314768 151.729689,35.6858759 C149.947809,34.5114755 148.017701,33.3358642 146.02174,32.244327 C143.380044,30.7996542 140.834405,29.6202345 138.499485,28.8004711 C137.066648,28.2974188 135.746258,27.9422828 134.568033,27.7453637 C131.847034,27.2906445 127.508258,27.1586717 122.11249,27.3210227 C118.82153,27.420043 115.289632,27.6221963 111.690697,27.8970199 L110.130765,28.0203831 C109.109219,28.103955 108.126228,28.1898666 107.192238,28.2762012 L104.514558,28.5395365 C101.566608,28.8590654 98.9177923,26.7283087 98.5982635,23.7803582 C98.2867228,20.9061064 100.304485,18.31622 103.137903,17.8923638 L103.931548,17.8040918 L105.143479,17.6838888 L105.484548,17.6512271 C107.138496,17.4939444 108.952748,17.3368342 110.873097,17.1901915 C114.625356,16.9036597 118.316967,16.6923651 121.789545,16.5878801 Z" id="Stroke-118" fill="#000"></path><path d="M17.7652887,31.9386422 C18.8798388,30.8038634 20.6749245,30.7427295 21.8625603,31.7668238 L22.403365,32.2700215 L22.8608172,32.6790108 C23.104155,32.8925979 23.3691663,33.1193328 23.6547521,33.3570057 C25.0242202,34.4967167 26.5642285,35.6388626 28.2316992,36.7019767 C32.782896,39.6036418 37.3754377,41.350065 41.6384215,41.4201973 C45.9543059,41.4904425 49.9447471,40.0848333 53.5171065,37.6725085 C54.7511834,36.8391674 55.8414724,35.9458579 56.7710952,35.0579011 L57.2061483,34.6315612 C57.4192767,34.4167948 57.5844234,34.2405199 57.6997444,34.1111159 L57.8140951,33.9788655 C58.8722365,32.7039134 60.7635824,32.5281537 62.0385345,33.5862951 C63.3134866,34.6444365 63.4892463,36.5357824 62.4311049,37.8107345 L62.2300134,38.0451828 C61.9274859,38.3881843 61.4877247,38.8499766 60.9153892,39.3966598 C59.7525044,40.5074237 58.403344,41.612835 56.8748828,42.6449665 C52.3534608,45.6981695 47.2052461,47.5115975 41.5402524,47.4193941 C35.9892107,47.3280715 30.409811,45.206372 25.0061361,41.7612002 C23.1116412,40.5533444 21.3708772,39.2623082 19.8166522,37.9688371 L19.3666664,37.5900537 C18.6534646,36.9825902 18.1255109,36.4974388 17.8034422,36.1811113 C16.6213809,35.0201217 16.604299,33.1207035 17.7652887,31.9386422 Z" id="Stroke-120" fill="#000"></path><path d="M0.1850015,174.534088 L2.1419985,171.045512 L2.85620174,171.434727 L3.51128674,171.782909 C4.50308988,172.305335 5.6321651,172.880908 6.88714027,173.498006 L7.43266178,173.764985 C11.6537624,175.821142 16.3218862,177.878362 21.3004212,179.797989 C32.7483158,184.212076 44.0600582,187.224884 54.584272,188.202241 C59.3535856,188.645156 63.8735301,188.656119 68.1063644,188.201856 L68.9490919,188.10479 L69.4379081,192.07481 C64.6629697,192.662733 59.5745075,192.682884 54.2143935,192.185103 C43.2765951,191.169337 31.6251616,188.066055 19.8613669,183.530163 C14.7706849,181.567294 9.99959664,179.464698 5.68097489,177.361037 L4.04785364,176.55429 C3.35348222,176.206284 2.70158001,175.872883 2.09423579,175.556252 L0.962732129,174.958187 L0.1850015,174.534088 Z" id="Stroke-122" fill="#C86A5D"></path></g></g></g><g id="Hairstyle" transform="translate(1142.000000, 877.000000) scale(1 1)"><defs><polygon id="hairstylepompadour-path-1" points="0.893394597 0.106 258.492632 0.106 258.492632 218.7317 0.893394597 218.7317"></polygon></defs><g id="Hairstyle/Pompadour" stroke="none" stroke-width="1" fill="none" fill-rule="evenodd"><g id="Hairstyle" transform="translate(440.000000, 176.000000)"><mask id="hairstylepompadour-mask-2" fill="#fff"><use xlink:href="#hairstylepompadour-path-1"></use></mask><g id="Clip-126"></g><path d="M6.9223,181.4197 C6.9223,181.4197 -12.0337,88.1867 17.2793,85.3947 L46.5933,82.6027 C46.5933,82.6027 24.3793,25.1567 75.9493,7.9667 C127.5193,-9.2243 176.2763,1.6787 199.7183,41.6667 C223.1593,81.6537 247.2263,73.7077 256.5833,113.4727 C265.9393,153.2367 237.8703,218.7317 237.8703,218.7317 C237.8703,218.7317 233.9383,135.9397 224.5443,126.5457 C215.1503,117.1507 176.4293,151.5307 127.1493,140.9707 C77.8683,130.4107 47.1753,87.9977 38.2633,147.4107 C29.3513,206.8227 21.0163,188.8807 21.0163,188.8807 C21.0163,188.8807 17.9623,180.6537 6.6993,183.4697 L6.9223,181.4197 Z" id="Fill-125" fill="#7A451C" mask="url(#hairstylepompadour-mask-2)"></path></g></g></g><g id="Accessories" transform="translate(1586.000000, 1237.000000) scale(1 1)" fill="#000"><g id="Accessories/None" stroke="none" stroke-width="1" fill="none" fill-rule="evenodd" fill-opacity="0"></g></g><g id="Facial Hair" transform="translate(1596.000000, 1238.000000) scale(1 1)" fill="#000"><g id="Facial Hair/None" stroke="none" stroke-width="1" fill="none" fill-rule="evenodd" fill-opacity="0"></g></g></g></svg>