<svg viewBox="409.37789999999995 663.5205858654119 3256.3971 2612.21960855665" xmlns="http://www.w3.org/2000/svg" xmlns:xlink="http://www.w3.org/1999/xlink" overflow="visible" width="3256.3971px" height="2612.21960855665px"><defs><polygon id="masterspot-illustrationimagination-path-1" points="0.2961 0.0297382716 168.575 0.0297382716 168.575 293.567627 0.2961 293.567627"></polygon><polygon id="masterspot-illustrationimagination-path-3" points="0.000139166 0.824 77.7317814 0.824 77.7317814 24.5342 0.000139166 24.5342"></polygon><polygon id="masterspot-illustrationimagination-path-5" points="0.528516447 0.459695949 51.522 0.459695949 51.522 17.6481 0.528516447 17.6481"></polygon><polygon id="masterspot-illustrationimagination-path-7" points="0.721 0.6074 75.113 0.6074 75.113 75 0.721 75"></polygon></defs><g id="Master/Spot Illustration/Imagination" stroke="none" stroke-width="1" fill="none" fill-rule="evenodd"><g id="Blobs" opacity=".5" transform="translate(1610.000000, 1930.000000) scale(-1, 1) translate(-1610.000000, -1930.000000) translate(487.000000, 630.000000) scale(1 1)"><g id="Blobs/6" stroke="none" stroke-width="1" fill="none" fill-rule="evenodd"><path d="M1467.91216,582.026688 C1666.71771,582.026688 1884.05316,651.009193 2013.28861,809.413463 C2073.00136,882.606834 2102.90512,968.52743 2102.99999,1053.92758 C2103.0473,1150.35169 2065.08705,1246.11341 1989.02438,1322.38213 C1918.68023,1392.88685 1828.85068,1440.6213 1737.10312,1479.80823 L1726.98062,1484.10902 C1716.64501,1488.54102 1706.1252,1493.50671 1699.60711,1502.50785 C1694.70074,1509.22742 1692.56503,1517.50188 1690.71082,1525.59168 L1690.36585,1527.10593 C1671.03503,1612.03295 1635.53438,1684.56394 1588.14331,1745.73978 L1588.10066,1745.73978 C1503.69242,1854.74917 1381.28129,1927.65866 1244.88978,1970.33508 C1140.43986,2003.03317 1027.7439,2018.02669 917.517005,2018.02669 C732.118396,2018.02669 561.937061,1974.59326 428.625978,1902.11432 L428.578587,1902.06227 C405.356962,1889.5243 383.225332,1875.99275 362.373261,1861.70419 C226.597843,1768.68663 142.999994,1641.65095 142.999994,1501.60417 C142.999994,1234.61632 446.871541,1014.94158 836.615708,987.977846 C880.07332,758.551877 1146.12679,582.026688 1467.91216,582.026688 Z M612.502381,593.026688 C680.155589,593.026688 734.999994,630.187085 734.999994,676.026688 C734.999994,721.871074 680.155589,759.026688 612.502381,759.026688 C544.844398,759.026688 489.999994,721.871074 489.999994,676.026688 C489.999994,630.187085 544.844398,593.026688 612.502381,593.026688 Z" id="Shape" fill="#FFF5F3" transform="translate(1123.000000, 1300.000000) scale(-1, 1) translate(-1123.000000, -1300.000000)"></path></g></g><ellipse id="Floor" fill="#D5ECFF" opacity=".5" cx="1982" cy="3206" rx="1602" ry="58"></ellipse><g id="Paper-Plane" transform="translate(2013.952325, 1928.024648) rotate(-9.000000) translate(-2013.952325, -1928.024648) translate(162.452325, 762.524648)"><polygon id="Triangle" fill="#DDB0C8" transform="translate(1591.591142, 1165.289371) rotate(-69.000000) translate(-1591.591142, -1165.289371)" points="1590.42694 -272.102212 2287.84553 2596.35719 895.33676 2602.68095"></polygon><polygon id="Triangle" fill="#EECCDC" transform="translate(1869.452984, 1201.765334) rotate(-75.000000) translate(-1869.452984, -1201.765334)" points="1981.86063 -505.708363 2580.39977 2674.01649 1986.41416 2485.09645 1158.5062 2909.23903"></polygon><polygon id="Path-4" fill="#FAEFF4" points="250 651 3139.61886 1420.60886 3335 2330"></polygon></g><g transform="translate(2320.000000, 923.608845) scale(-1, 1) rotate(-7.000000) translate(-2320.000000, -923.608845) translate(1155.000000, -326.391155) scale(1 1)" id="Master/Character/Sitting On Floor"><defs><polygon id="mastercharactersitting-on-floor-path-1" points="0 0.216 1141.521 0.216 1141.521 422.785934 0 422.785934"></polygon><polygon id="mastercharactersitting-on-floor-path-3" points="0.893394597 0.106 258.492632 0.106 258.492632 218.7317 0.893394597 218.7317"></polygon></defs><g id="Master/Character/Sitting On Floor" stroke="none" stroke-width="1" fill="none" fill-rule="evenodd"><g id="Upper Body" transform="translate(911.000000, 1121.000000) scale(1 1)"><defs><path d="M93.974,96.793 C60.909,129.859 0,353.482 0,353.482 L0,353.482 C0,353.482 107.896,377.845 180.987,361.313 L180.987,361.313 L187.078,337.82 L151.061,674.939 C151.061,674.939 407.503,721.041 629.367,649.006 L629.367,649.006 L642.334,352.227 C642.334,352.227 727.333,359.431 784.961,347.905 L784.961,347.905 C784.961,347.905 728.774,131.802 674.028,88.582 L674.028,88.582 C619.283,45.362 483.635,9.766 483.635,9.766 L483.635,9.766 C483.635,9.766 474.786,55.091 387.616,51.078 L387.616,51.078 C323.951,48.147 298.756,12.626 289.15,0.575 L289.15,0.575 C289.15,0.575 127.04,63.728 93.974,96.793" id="upper-bodypalms-together-path-1"></path><path d="M93.974,96.793 C60.909,129.859 0,353.482 0,353.482 L0,353.482 C0,353.482 107.896,377.845 180.987,361.313 L180.987,361.313 L187.078,337.82 L151.061,674.939 C151.061,674.939 407.503,721.041 629.367,649.006 L629.367,649.006 L642.334,352.227 C642.334,352.227 727.333,359.431 784.961,347.905 L784.961,347.905 C784.961,347.905 728.774,131.802 674.028,88.582 L674.028,88.582 C619.283,45.362 483.635,9.766 483.635,9.766 L483.635,9.766 C483.635,9.766 474.786,55.091 387.616,51.078 L387.616,51.078 C323.951,48.147 298.756,12.626 289.15,0.575 L289.15,0.575 C289.15,0.575 127.04,63.728 93.974,96.793" id="upper-bodypalms-together-path-3"></path><path d="M93.974,96.793 C60.909,129.859 0,353.482 0,353.482 L0,353.482 C0,353.482 107.896,377.845 180.987,361.313 L180.987,361.313 L187.078,337.82 L151.061,674.939 C151.061,674.939 407.503,721.041 629.367,649.006 L629.367,649.006 L642.334,352.227 C642.334,352.227 727.333,359.431 784.961,347.905 L784.961,347.905 C784.961,347.905 728.774,131.802 674.028,88.582 L674.028,88.582 C619.283,45.362 483.635,9.766 483.635,9.766 L483.635,9.766 C483.635,9.766 474.786,55.091 387.616,51.078 L387.616,51.078 C323.951,48.147 298.756,12.626 289.15,0.575 L289.15,0.575 C289.15,0.575 127.04,63.728 93.974,96.793" id="upper-bodypalms-together-path-5"></path><path d="M93.974,96.793 C60.909,129.859 0,353.482 0,353.482 L0,353.482 C0,353.482 107.896,377.845 180.987,361.313 L180.987,361.313 L187.078,337.82 L151.061,674.939 C151.061,674.939 407.503,721.041 629.367,649.006 L629.367,649.006 L642.334,352.227 C642.334,352.227 727.333,359.431 784.961,347.905 L784.961,347.905 C784.961,347.905 728.774,131.802 674.028,88.582 L674.028,88.582 C619.283,45.362 483.635,9.766 483.635,9.766 L483.635,9.766 C483.635,9.766 474.786,55.091 387.616,51.078 L387.616,51.078 C323.951,48.147 298.756,12.626 289.15,0.575 L289.15,0.575 C289.15,0.575 127.04,63.728 93.974,96.793" id="upper-bodypalms-together-path-7"></path><path d="M93.974,96.793 C60.909,129.859 0,353.482 0,353.482 L0,353.482 C0,353.482 107.896,377.845 180.987,361.313 L180.987,361.313 L187.078,337.82 L151.061,674.939 C151.061,674.939 407.503,721.041 629.367,649.006 L629.367,649.006 L642.334,352.227 C642.334,352.227 727.333,359.431 784.961,347.905 L784.961,347.905 C784.961,347.905 728.774,131.802 674.028,88.582 L674.028,88.582 C619.283,45.362 483.635,9.766 483.635,9.766 L483.635,9.766 C483.635,9.766 474.786,55.091 387.616,51.078 L387.616,51.078 C323.951,48.147 298.756,12.626 289.15,0.575 L289.15,0.575 C289.15,0.575 127.04,63.728 93.974,96.793" id="upper-bodypalms-together-path-9"></path><path d="M93.974,96.793 C60.909,129.859 0,353.482 0,353.482 L0,353.482 C0,353.482 107.896,377.845 180.987,361.313 L180.987,361.313 L187.078,337.82 L151.061,674.939 C151.061,674.939 407.503,721.041 629.367,649.006 L629.367,649.006 L642.334,352.227 C642.334,352.227 727.333,359.431 784.961,347.905 L784.961,347.905 C784.961,347.905 728.774,131.802 674.028,88.582 L674.028,88.582 C619.283,45.362 483.635,9.766 483.635,9.766 L483.635,9.766 C483.635,9.766 474.786,55.091 387.616,51.078 L387.616,51.078 C323.951,48.147 298.756,12.626 289.15,0.575 L289.15,0.575 C289.15,0.575 127.04,63.728 93.974,96.793" id="upper-bodypalms-together-path-11"></path><path d="M93.974,96.793 C60.909,129.859 0,353.482 0,353.482 L0,353.482 C0,353.482 107.896,377.845 180.987,361.313 L180.987,361.313 L187.078,337.82 L151.061,674.939 C151.061,674.939 407.503,721.041 629.367,649.006 L629.367,649.006 L642.334,352.227 C642.334,352.227 727.333,359.431 784.961,347.905 L784.961,347.905 C784.961,347.905 728.774,131.802 674.028,88.582 L674.028,88.582 C619.283,45.362 483.635,9.766 483.635,9.766 L483.635,9.766 C483.635,9.766 474.786,55.091 387.616,51.078 L387.616,51.078 C323.951,48.147 298.756,12.626 289.15,0.575 L289.15,0.575 C289.15,0.575 127.04,63.728 93.974,96.793" id="upper-bodypalms-together-path-13"></path><path d="M93.974,96.793 C60.909,129.859 0,353.482 0,353.482 L0,353.482 C0,353.482 107.896,377.845 180.987,361.313 L180.987,361.313 L187.078,337.82 L151.061,674.939 C151.061,674.939 407.503,721.041 629.367,649.006 L629.367,649.006 L642.334,352.227 C642.334,352.227 727.333,359.431 784.961,347.905 L784.961,347.905 C784.961,347.905 728.774,131.802 674.028,88.582 L674.028,88.582 C619.283,45.362 483.635,9.766 483.635,9.766 L483.635,9.766 C483.635,9.766 474.786,55.091 387.616,51.078 L387.616,51.078 C323.951,48.147 298.756,12.626 289.15,0.575 L289.15,0.575 C289.15,0.575 127.04,63.728 93.974,96.793" id="upper-bodypalms-together-path-15"></path><path d="M93.974,96.793 C60.909,129.859 0,353.482 0,353.482 L0,353.482 C0,353.482 107.896,377.845 180.987,361.313 L180.987,361.313 L187.078,337.82 L151.061,674.939 C151.061,674.939 407.503,721.041 629.367,649.006 L629.367,649.006 L642.334,352.227 C642.334,352.227 727.333,359.431 784.961,347.905 L784.961,347.905 C784.961,347.905 728.774,131.802 674.028,88.582 L674.028,88.582 C619.283,45.362 483.635,9.766 483.635,9.766 L483.635,9.766 C483.635,9.766 474.786,55.091 387.616,51.078 L387.616,51.078 C323.951,48.147 298.756,12.626 289.15,0.575 L289.15,0.575 C289.15,0.575 127.04,63.728 93.974,96.793" id="upper-bodypalms-together-path-17"></path><path d="M93.974,96.793 C60.909,129.859 0,353.482 0,353.482 L0,353.482 C0,353.482 107.896,377.845 180.987,361.313 L180.987,361.313 L187.078,337.82 L151.061,674.939 C151.061,674.939 407.503,721.041 629.367,649.006 L629.367,649.006 L642.334,352.227 C642.334,352.227 727.333,359.431 784.961,347.905 L784.961,347.905 C784.961,347.905 728.774,131.802 674.028,88.582 L674.028,88.582 C619.283,45.362 483.635,9.766 483.635,9.766 L483.635,9.766 C483.635,9.766 474.786,55.091 387.616,51.078 L387.616,51.078 C323.951,48.147 298.756,12.626 289.15,0.575 L289.15,0.575 C289.15,0.575 127.04,63.728 93.974,96.793" id="upper-bodypalms-together-path-19"></path><path d="M93.974,96.793 C60.909,129.859 0,353.482 0,353.482 L0,353.482 C0,353.482 107.896,377.845 180.987,361.313 L180.987,361.313 L187.078,337.82 L151.061,674.939 C151.061,674.939 407.503,721.041 629.367,649.006 L629.367,649.006 L642.334,352.227 C642.334,352.227 727.333,359.431 784.961,347.905 L784.961,347.905 C784.961,347.905 728.774,131.802 674.028,88.582 L674.028,88.582 C619.283,45.362 483.635,9.766 483.635,9.766 L483.635,9.766 C483.635,9.766 474.786,55.091 387.616,51.078 L387.616,51.078 C323.951,48.147 298.756,12.626 289.15,0.575 L289.15,0.575 C289.15,0.575 127.04,63.728 93.974,96.793" id="upper-bodypalms-together-path-21"></path><path d="M93.974,96.793 C60.909,129.859 0,353.482 0,353.482 L0,353.482 C0,353.482 107.896,377.845 180.987,361.313 L180.987,361.313 L187.078,337.82 L151.061,674.939 C151.061,674.939 407.503,721.041 629.367,649.006 L629.367,649.006 L642.334,352.227 C642.334,352.227 727.333,359.431 784.961,347.905 L784.961,347.905 C784.961,347.905 728.774,131.802 674.028,88.582 L674.028,88.582 C619.283,45.362 483.635,9.766 483.635,9.766 L483.635,9.766 C483.635,9.766 474.786,55.091 387.616,51.078 L387.616,51.078 C323.951,48.147 298.756,12.626 289.15,0.575 L289.15,0.575 C289.15,0.575 127.04,63.728 93.974,96.793" id="upper-bodypalms-together-path-23"></path><path d="M93.974,96.793 C60.909,129.859 0,353.482 0,353.482 L0,353.482 C0,353.482 107.896,377.845 180.987,361.313 L180.987,361.313 L187.078,337.82 L151.061,674.939 C151.061,674.939 407.503,721.041 629.367,649.006 L629.367,649.006 L642.334,352.227 C642.334,352.227 727.333,359.431 784.961,347.905 L784.961,347.905 C784.961,347.905 728.774,131.802 674.028,88.582 L674.028,88.582 C619.283,45.362 483.635,9.766 483.635,9.766 L483.635,9.766 C483.635,9.766 474.786,55.091 387.616,51.078 L387.616,51.078 C323.951,48.147 298.756,12.626 289.15,0.575 L289.15,0.575 C289.15,0.575 127.04,63.728 93.974,96.793" id="upper-bodypalms-together-path-25"></path><path d="M93.974,96.793 C60.909,129.859 0,353.482 0,353.482 L0,353.482 C0,353.482 107.896,377.845 180.987,361.313 L180.987,361.313 L187.078,337.82 L151.061,674.939 C151.061,674.939 407.503,721.041 629.367,649.006 L629.367,649.006 L642.334,352.227 C642.334,352.227 727.333,359.431 784.961,347.905 L784.961,347.905 C784.961,347.905 728.774,131.802 674.028,88.582 L674.028,88.582 C619.283,45.362 483.635,9.766 483.635,9.766 L483.635,9.766 C483.635,9.766 474.786,55.091 387.616,51.078 L387.616,51.078 C323.951,48.147 298.756,12.626 289.15,0.575 L289.15,0.575 C289.15,0.575 127.04,63.728 93.974,96.793" id="upper-bodypalms-together-path-27"></path><path d="M93.974,96.793 C60.909,129.859 0,353.482 0,353.482 L0,353.482 C0,353.482 107.896,377.845 180.987,361.313 L180.987,361.313 L187.078,337.82 L151.061,674.939 C151.061,674.939 407.503,721.041 629.367,649.006 L629.367,649.006 L642.334,352.227 C642.334,352.227 727.333,359.431 784.961,347.905 L784.961,347.905 C784.961,347.905 728.774,131.802 674.028,88.582 L674.028,88.582 C619.283,45.362 483.635,9.766 483.635,9.766 L483.635,9.766 C483.635,9.766 474.786,55.091 387.616,51.078 L387.616,51.078 C323.951,48.147 298.756,12.626 289.15,0.575 L289.15,0.575 C289.15,0.575 127.04,63.728 93.974,96.793" id="upper-bodypalms-together-path-29"></path><path d="M93.974,96.793 C60.909,129.859 0,353.482 0,353.482 L0,353.482 C0,353.482 107.896,377.845 180.987,361.313 L180.987,361.313 L187.078,337.82 L151.061,674.939 C151.061,674.939 407.503,721.041 629.367,649.006 L629.367,649.006 L642.334,352.227 C642.334,352.227 727.333,359.431 784.961,347.905 L784.961,347.905 C784.961,347.905 728.774,131.802 674.028,88.582 L674.028,88.582 C619.283,45.362 483.635,9.766 483.635,9.766 L483.635,9.766 C483.635,9.766 474.786,55.091 387.616,51.078 L387.616,51.078 C323.951,48.147 298.756,12.626 289.15,0.575 L289.15,0.575 C289.15,0.575 127.04,63.728 93.974,96.793" id="upper-bodypalms-together-path-31"></path><path d="M93.974,96.793 C60.909,129.859 0,353.482 0,353.482 L0,353.482 C0,353.482 107.896,377.845 180.987,361.313 L180.987,361.313 L187.078,337.82 L151.061,674.939 C151.061,674.939 407.503,721.041 629.367,649.006 L629.367,649.006 L642.334,352.227 C642.334,352.227 727.333,359.431 784.961,347.905 L784.961,347.905 C784.961,347.905 728.774,131.802 674.028,88.582 L674.028,88.582 C619.283,45.362 483.635,9.766 483.635,9.766 L483.635,9.766 C483.635,9.766 474.786,55.091 387.616,51.078 L387.616,51.078 C323.951,48.147 298.756,12.626 289.15,0.575 L289.15,0.575 C289.15,0.575 127.04,63.728 93.974,96.793" id="upper-bodypalms-together-path-33"></path><path d="M93.974,96.793 C60.909,129.859 0,353.482 0,353.482 L0,353.482 C0,353.482 107.896,377.845 180.987,361.313 L180.987,361.313 L187.078,337.82 L151.061,674.939 C151.061,674.939 407.503,721.041 629.367,649.006 L629.367,649.006 L642.334,352.227 C642.334,352.227 727.333,359.431 784.961,347.905 L784.961,347.905 C784.961,347.905 728.774,131.802 674.028,88.582 L674.028,88.582 C619.283,45.362 483.635,9.766 483.635,9.766 L483.635,9.766 C483.635,9.766 474.786,55.091 387.616,51.078 L387.616,51.078 C323.951,48.147 298.756,12.626 289.15,0.575 L289.15,0.575 C289.15,0.575 127.04,63.728 93.974,96.793" id="upper-bodypalms-together-path-35"></path><path d="M93.974,96.793 C60.909,129.859 0,353.482 0,353.482 L0,353.482 C0,353.482 107.896,377.845 180.987,361.313 L180.987,361.313 L187.078,337.82 L151.061,674.939 C151.061,674.939 407.503,721.041 629.367,649.006 L629.367,649.006 L642.334,352.227 C642.334,352.227 727.333,359.431 784.961,347.905 L784.961,347.905 C784.961,347.905 728.774,131.802 674.028,88.582 L674.028,88.582 C619.283,45.362 483.635,9.766 483.635,9.766 L483.635,9.766 C483.635,9.766 474.786,55.091 387.616,51.078 L387.616,51.078 C323.951,48.147 298.756,12.626 289.15,0.575 L289.15,0.575 C289.15,0.575 127.04,63.728 93.974,96.793" id="upper-bodypalms-together-path-37"></path><path d="M93.974,96.793 C60.909,129.859 0,353.482 0,353.482 L0,353.482 C0,353.482 107.896,377.845 180.987,361.313 L180.987,361.313 L187.078,337.82 L151.061,674.939 C151.061,674.939 407.503,721.041 629.367,649.006 L629.367,649.006 L642.334,352.227 C642.334,352.227 727.333,359.431 784.961,347.905 L784.961,347.905 C784.961,347.905 728.774,131.802 674.028,88.582 L674.028,88.582 C619.283,45.362 483.635,9.766 483.635,9.766 L483.635,9.766 C483.635,9.766 474.786,55.091 387.616,51.078 L387.616,51.078 C323.951,48.147 298.756,12.626 289.15,0.575 L289.15,0.575 C289.15,0.575 127.04,63.728 93.974,96.793" id="upper-bodypalms-together-path-39"></path><path d="M93.974,96.793 C60.909,129.859 0,353.482 0,353.482 L0,353.482 C0,353.482 107.896,377.845 180.987,361.313 L180.987,361.313 L187.078,337.82 L151.061,674.939 C151.061,674.939 407.503,721.041 629.367,649.006 L629.367,649.006 L642.334,352.227 C642.334,352.227 727.333,359.431 784.961,347.905 L784.961,347.905 C784.961,347.905 728.774,131.802 674.028,88.582 L674.028,88.582 C619.283,45.362 483.635,9.766 483.635,9.766 L483.635,9.766 C483.635,9.766 474.786,55.091 387.616,51.078 L387.616,51.078 C323.951,48.147 298.756,12.626 289.15,0.575 L289.15,0.575 C289.15,0.575 127.04,63.728 93.974,96.793" id="upper-bodypalms-together-path-41"></path><path d="M93.974,96.793 C60.909,129.859 0,353.482 0,353.482 L0,353.482 C0,353.482 107.896,377.845 180.987,361.313 L180.987,361.313 L187.078,337.82 L151.061,674.939 C151.061,674.939 407.503,721.041 629.367,649.006 L629.367,649.006 L642.334,352.227 C642.334,352.227 727.333,359.431 784.961,347.905 L784.961,347.905 C784.961,347.905 728.774,131.802 674.028,88.582 L674.028,88.582 C619.283,45.362 483.635,9.766 483.635,9.766 L483.635,9.766 C483.635,9.766 474.786,55.091 387.616,51.078 L387.616,51.078 C323.951,48.147 298.756,12.626 289.15,0.575 L289.15,0.575 C289.15,0.575 127.04,63.728 93.974,96.793" id="upper-bodypalms-together-path-43"></path><path d="M93.974,96.793 C60.909,129.859 0,353.482 0,353.482 L0,353.482 C0,353.482 107.896,377.845 180.987,361.313 L180.987,361.313 L187.078,337.82 L151.061,674.939 C151.061,674.939 407.503,721.041 629.367,649.006 L629.367,649.006 L642.334,352.227 C642.334,352.227 727.333,359.431 784.961,347.905 L784.961,347.905 C784.961,347.905 728.774,131.802 674.028,88.582 L674.028,88.582 C619.283,45.362 483.635,9.766 483.635,9.766 L483.635,9.766 C483.635,9.766 474.786,55.091 387.616,51.078 L387.616,51.078 C323.951,48.147 298.756,12.626 289.15,0.575 L289.15,0.575 C289.15,0.575 127.04,63.728 93.974,96.793" id="upper-bodypalms-together-path-45"></path><path d="M93.974,96.793 C60.909,129.859 0,353.482 0,353.482 L0,353.482 C0,353.482 107.896,377.845 180.987,361.313 L180.987,361.313 L187.078,337.82 L151.061,674.939 C151.061,674.939 407.503,721.041 629.367,649.006 L629.367,649.006 L642.334,352.227 C642.334,352.227 727.333,359.431 784.961,347.905 L784.961,347.905 C784.961,347.905 728.774,131.802 674.028,88.582 L674.028,88.582 C619.283,45.362 483.635,9.766 483.635,9.766 L483.635,9.766 C483.635,9.766 474.786,55.091 387.616,51.078 L387.616,51.078 C323.951,48.147 298.756,12.626 289.15,0.575 L289.15,0.575 C289.15,0.575 127.04,63.728 93.974,96.793" id="upper-bodypalms-together-path-47"></path><path d="M93.974,96.793 C60.909,129.859 0,353.482 0,353.482 L0,353.482 C0,353.482 107.896,377.845 180.987,361.313 L180.987,361.313 L187.078,337.82 L151.061,674.939 C151.061,674.939 407.503,721.041 629.367,649.006 L629.367,649.006 L642.334,352.227 C642.334,352.227 727.333,359.431 784.961,347.905 L784.961,347.905 C784.961,347.905 728.774,131.802 674.028,88.582 L674.028,88.582 C619.283,45.362 483.635,9.766 483.635,9.766 L483.635,9.766 C483.635,9.766 474.786,55.091 387.616,51.078 L387.616,51.078 C323.951,48.147 298.756,12.626 289.15,0.575 L289.15,0.575 C289.15,0.575 127.04,63.728 93.974,96.793" id="upper-bodypalms-together-path-49"></path></defs><g id="Upper Body/Palms Together" stroke="none" stroke-width="1" fill="none" fill-rule="evenodd"><g id="Upper-Body-and-Head" transform="translate(384.000000, 0.000000)"><path d="M340.8449,220.4421 C340.8449,220.4421 337.1499,301.6231 289.7569,330.2791 C246.7569,356.2791 337.8559,507.1501 435.8559,498.1501 C489.5009,493.2231 502.0729,346.6431 502.0729,346.6431 C502.0729,346.6431 458.7579,338.2791 474.7579,272.2791 L340.8449,220.4421 Z" id="Neck" fill="#c26e5e"></path><path d="M419.0131,302.5304 C355.4541,294.8604 309.5841,253.1624 303.1611,183.9894 C284.6841,186.9244 280.3261,138.8854 285.4721,123.4534 C290.6231,107.9994 307.4361,117.0354 307.4361,117.0354 C308.366767,114.5934 309.1581,112.036733 309.8101,109.3654 C337.5751,-4.2726 415.3401,0.2344 415.3401,0.2344 C558.2361,7.6624 524.7541,153.2314 516.5901,191.8494 C508.4251,230.4714 480.4551,309.9374 419.0131,302.5304 Z" id="Head" fill="#c26e5e"></path><g id="Body" transform="translate(0.000000, 319.000000)"><g id="Group-7" transform="translate(0.000000, 2.508000)"><path d="M289.5739,0.4922 C289.5739,0.4922 127.4629,63.6442 94.3979,96.7102 C61.3329,129.7752 0.4239,353.3992 0.4239,353.3992 C0.4239,353.3992 108.3199,377.7632 181.4119,361.2302 L187.5029,337.7362 L151.4849,674.8552 C151.4849,674.8552 407.9269,720.9572 629.7909,648.9232 L642.7569,352.1432 C642.7569,352.1432 727.7579,359.3462 785.3849,347.8212 C785.3849,347.8212 729.1979,131.7192 674.4519,88.4982 C619.7069,45.2782 484.0589,9.6832 484.0589,9.6832 C484.0589,9.6832 475.2099,55.0072 388.0409,50.9942 C324.3739,48.0632 299.1799,12.5432 289.5739,0.4922" id="Fill-1" fill="#E4F9FF"></path><polygon id="Fill-3" fill="#204EB2" points="171.1075 357.4956 165.1785 356.5776 180.2905 258.9276 186.2195 259.8456"></polygon><polygon id="Fill-5" fill="#204EB2" points="629.439 351.3667 614.326 253.7167 620.256 252.7987 635.368 350.4487"></polygon></g><g id="Group-83" transform="translate(0.000000, 0.508000)"><g id="Group-10" transform="translate(0.000000, 3.000000)"><mask id="upper-bodypalms-together-mask-2" fill="#fff"><use xlink:href="#upper-bodypalms-together-path-1"></use></mask><g id="Clip-9"></g><path d="M394.1851,695 C388.9931,695 378.2231,693.493 371.0721,682.086 C363.2281,669.574 369.3571,657.737 373.6931,653.227 C375.4771,651.371 378.4271,651.312 380.2831,653.097 C382.1381,654.88 382.1961,657.83 380.4121,659.686 C379.6761,660.477 373.1751,667.893 378.9691,677.136 C385.1451,686.987 395.3141,685.659 395.7441,685.599 C398.2781,685.239 400.6471,686.984 401.0291,689.514 C401.4111,692.044 399.7011,694.406 397.1741,694.809 C397.0071,694.835 395.8991,695 394.1851,695" id="Fill-8" fill="#204EB2" mask="url(#upper-bodypalms-together-mask-2)"></path></g><g id="Group-13" transform="translate(0.000000, 3.000000)"><mask id="upper-bodypalms-together-mask-4" fill="#fff"><use xlink:href="#upper-bodypalms-together-path-3"></use></mask><g id="Clip-12"></g><path d="M352.6425,508.7646 C350.5865,508.7646 348.7055,507.3936 348.1455,505.3146 C347.8485,504.2756 344.8465,494.9066 333.9425,495.0756 C322.3165,495.2826 318.2065,504.6786 318.0375,505.0786 C317.0395,507.4346 314.3215,508.5636 311.9565,507.5856 C309.5925,506.6076 308.4515,503.9236 309.4105,501.5516 C309.6655,500.9196 315.8705,486.0756 333.7755,485.7566 C348.5395,485.4956 355.5185,496.8496 357.1455,502.8916 C357.8145,505.3766 356.3425,507.9336 353.8565,508.6026 C353.4515,508.7126 353.0435,508.7646 352.6425,508.7646" id="Fill-11" fill="#204EB2" mask="url(#upper-bodypalms-together-mask-4)"></path></g><g id="Group-16" transform="translate(0.000000, 3.000000)"><mask id="upper-bodypalms-together-mask-6" fill="#fff"><use xlink:href="#upper-bodypalms-together-path-5"></use></mask><g id="Clip-15"></g><path d="M459.981,398.4238 C457.925,398.4238 456.044,397.0528 455.484,394.9738 C455.187,393.9348 452.185,384.5168 441.281,384.7348 C429.655,384.9418 425.545,394.3378 425.376,394.7378 C424.378,397.0938 421.66,398.2228 419.295,397.2448 C416.931,396.2668 415.79,393.5828 416.749,391.2108 C417.004,390.5788 423.209,375.7348 441.114,375.4158 C455.879,375.1818 462.857,386.5088 464.484,392.5508 C465.153,395.0358 463.681,397.5928 461.195,398.2618 C460.79,398.3718 460.382,398.4238 459.981,398.4238" id="Fill-14" fill="#204EB2" mask="url(#upper-bodypalms-together-mask-6)"></path></g><g id="Group-19" transform="translate(0.000000, 3.000000)"><mask id="upper-bodypalms-together-mask-8" fill="#fff"><use xlink:href="#upper-bodypalms-together-path-7"></use></mask><g id="Clip-18"></g><path d="M510.2725,616.103 C508.2165,616.103 506.3355,614.732 505.7755,612.653 C505.4785,611.614 502.4735,602.19 491.5725,602.414 C479.9465,602.622 475.8365,612.018 475.6675,612.417 C474.6695,614.773 471.9515,615.903 469.5865,614.925 C467.2225,613.946 466.0815,611.263 467.0405,608.89 C467.2955,608.258 473.5005,593.415 491.4055,593.095 C506.1665,592.847 513.1485,604.188 514.7755,610.23 C515.4445,612.715 513.9725,615.272 511.4865,615.941 C511.0815,616.051 510.6735,616.103 510.2725,616.103" id="Fill-17" fill="#204EB2" mask="url(#upper-bodypalms-together-mask-8)"></path></g><g id="Group-22" transform="translate(0.000000, 3.000000)"><mask id="upper-bodypalms-together-mask-10" fill="#fff"><use xlink:href="#upper-bodypalms-together-path-9"></use></mask><g id="Clip-21"></g><path d="M281.3338,625.8613 C279.2778,625.8613 277.3968,624.4903 276.8368,622.4113 C276.5398,621.3723 273.5358,611.9873 262.6338,612.1723 C251.0078,612.3793 246.8978,621.7753 246.7288,622.1753 C245.7308,624.5313 243.0118,625.6613 240.6478,624.6823 C238.2838,623.7043 237.1428,621.0203 238.1018,618.6483 C238.3568,618.0163 244.5618,603.1723 262.4668,602.8533 C277.2348,602.5943 284.2098,613.9463 285.8368,619.9883 C286.5058,622.4733 285.0338,625.0303 282.5478,625.6993 C282.1428,625.8093 281.7348,625.8613 281.3338,625.8613" id="Fill-20" fill="#204EB2" mask="url(#upper-bodypalms-together-mask-10)"></path></g><g id="Group-25" transform="translate(0.000000, 3.000000)"><mask id="upper-bodypalms-together-mask-12" fill="#fff"><use xlink:href="#upper-bodypalms-together-path-11"></use></mask><g id="Clip-24"></g><path d="M143.9705,238.542 C141.9145,238.542 140.0335,237.171 139.4735,235.092 C139.1765,234.053 136.1705,224.634 125.2705,224.853 C113.6445,225.06 109.5345,234.456 109.3655,234.856 C108.3675,237.212 105.6495,238.342 103.2845,237.363 C100.9205,236.385 99.7795,233.701 100.7385,231.329 C100.9935,230.697 107.1985,215.853 125.1035,215.534 C139.8715,215.275 146.8465,226.627 148.4735,232.669 C149.1425,235.154 147.6705,237.711 145.1845,238.38 C144.7795,238.49 144.3715,238.542 143.9705,238.542" id="Fill-23" fill="#204EB2" mask="url(#upper-bodypalms-together-mask-12)"></path></g><g id="Group-28" transform="translate(0.000000, 3.000000)"><mask id="upper-bodypalms-together-mask-14" fill="#fff"><use xlink:href="#upper-bodypalms-together-path-13"></use></mask><g id="Clip-27"></g><path d="M581.5812,269.3174 C579.5252,269.3174 577.6442,267.9464 577.0842,265.8674 C576.7872,264.8284 573.7922,255.4254 562.8812,255.6284 C551.2552,255.8354 547.1452,265.2314 546.9762,265.6314 C545.9782,267.9864 543.2602,269.1154 540.8952,268.1384 C538.5312,267.1604 537.3902,264.4764 538.3492,262.1044 C538.6042,261.4724 544.8092,246.6284 562.7142,246.3094 C577.4822,246.0614 584.4572,257.4024 586.0842,263.4444 C586.7532,265.9294 585.2812,268.4864 582.7952,269.1554 C582.3902,269.2654 581.9822,269.3174 581.5812,269.3174" id="Fill-26" fill="#204EB2" mask="url(#upper-bodypalms-together-mask-14)"></path></g><g id="Group-31" transform="translate(0.000000, 3.000000)"><mask id="upper-bodypalms-together-mask-16" fill="#fff"><use xlink:href="#upper-bodypalms-together-path-15"></use></mask><g id="Clip-30"></g><path d="M674.6579,162.7295 C672.6019,162.7295 670.7209,161.3585 670.1609,159.2795 C669.8639,158.2405 666.8689,148.8695 655.9579,149.0405 C644.3319,149.2475 640.2219,158.6435 640.0529,159.0435 C639.0549,161.3995 636.3369,162.5285 633.9719,161.5505 C631.6079,160.5725 630.4669,157.8885 631.4259,155.5165 C631.6809,154.8845 637.8859,140.0405 655.7909,139.7215 C670.5579,139.4705 677.5339,150.8145 679.1609,156.8565 C679.8299,159.3415 678.3579,161.8985 675.8719,162.5675 C675.4669,162.6775 675.0589,162.7295 674.6579,162.7295" id="Fill-29" fill="#204EB2" mask="url(#upper-bodypalms-together-mask-16)"></path></g><g id="Group-34" transform="translate(0.000000, 3.000000)"><mask id="upper-bodypalms-together-mask-18" fill="#fff"><use xlink:href="#upper-bodypalms-together-path-17"></use></mask><g id="Clip-33"></g><path d="M490.265,109.5176 C485.073,109.5176 474.302,108.0096 467.151,96.6026 C459.308,84.0906 465.436,72.2546 469.773,67.7436 C471.557,65.8876 474.507,65.8296 476.362,67.6146 C478.217,69.3976 478.275,72.3486 476.492,74.2036 C475.755,74.9946 469.255,82.4106 475.049,91.6526 C481.323,101.6606 491.683,100.1386 491.787,100.1216 C494.329,99.7136 496.717,101.4496 497.122,103.9916 C497.527,106.5336 495.795,108.9216 493.253,109.3266 C493.086,109.3526 491.98,109.5176 490.265,109.5176" id="Fill-32" fill="#204EB2" mask="url(#upper-bodypalms-together-mask-18)"></path></g><g id="Group-37" transform="translate(0.000000, 3.000000)"><mask id="upper-bodypalms-together-mask-20" fill="#fff"><use xlink:href="#upper-bodypalms-together-path-19"></use></mask><g id="Clip-36"></g><path d="M283.8449,202.5942 C278.6529,202.5942 267.8819,201.0862 260.7309,189.6792 C252.8879,177.1672 259.0159,165.3312 263.3529,160.8202 C265.1359,158.9652 268.0869,158.9062 269.9419,160.6912 C271.7969,162.4742 271.8549,165.4252 270.0719,167.2802 C269.3349,168.0712 262.8339,175.4872 268.6279,184.7292 C274.8039,194.5812 284.9739,193.2532 285.4029,193.1932 C287.9369,192.8342 290.3069,194.5782 290.6889,197.1082 C291.0709,199.6382 289.3599,202.0002 286.8329,202.4032 C286.6659,202.4292 285.5589,202.5942 283.8449,202.5942" id="Fill-35" fill="#204EB2" mask="url(#upper-bodypalms-together-mask-20)"></path></g><g id="Group-40" transform="translate(0.000000, 3.000000)"><mask id="upper-bodypalms-together-mask-22" fill="#fff"><use xlink:href="#upper-bodypalms-together-path-21"></use></mask><g id="Clip-39"></g><path d="M44.3968,341.4585 C39.2048,341.4585 28.4348,339.9515 21.2838,328.5445 C13.4398,316.0325 19.5688,304.1955 23.9048,299.6855 C25.6888,297.8295 28.6388,297.7705 30.4948,299.5555 C32.3498,301.3385 32.4078,304.2885 30.6238,306.1445 C29.8878,306.9355 23.3868,314.3515 29.1808,323.5945 C35.3568,333.4455 45.5258,332.1185 45.9558,332.0575 C48.4898,331.6995 50.8588,333.4425 51.2408,335.9725 C51.6228,338.5025 49.9128,340.8645 47.3858,341.2675 C47.2188,341.2935 46.1108,341.4585 44.3968,341.4585" id="Fill-38" fill="#204EB2" mask="url(#upper-bodypalms-together-mask-22)"></path></g><g id="Group-43" transform="translate(0.000000, 3.000000)"><mask id="upper-bodypalms-together-mask-24" fill="#fff"><use xlink:href="#upper-bodypalms-together-path-23"></use></mask><g id="Clip-42"></g><path d="M575.8356,500.5898 C570.6436,500.5898 559.8726,499.0818 552.7216,487.6748 C544.8786,475.1628 551.0066,463.3268 555.3436,458.8158 C557.1266,456.9618 560.0766,456.9018 561.9326,458.6868 C563.7876,460.4698 563.8456,463.4208 562.0626,465.2758 C561.3256,466.0668 554.8256,473.4828 560.6186,482.7248 C566.7946,492.5758 576.9646,491.2478 577.3936,491.1888 C579.9276,490.8288 582.2976,492.5728 582.6796,495.1038 C583.0616,497.6338 581.3506,499.9958 578.8236,500.3988 C578.6566,500.4248 577.5496,500.5898 575.8356,500.5898" id="Fill-41" fill="#204EB2" mask="url(#upper-bodypalms-together-mask-24)"></path></g><g id="Group-46" transform="translate(0.000000, 3.000000)"><mask id="upper-bodypalms-together-mask-26" fill="#fff"><use xlink:href="#upper-bodypalms-together-path-25"></use></mask><g id="Clip-45"></g><path d="M235.8053,528.3628 C230.6133,528.3628 219.8423,526.8548 212.6913,515.4478 C204.8483,502.9358 210.9763,491.0998 215.3133,486.5888 C217.0963,484.7338 220.0473,484.6748 221.9023,486.4598 C223.7573,488.2428 223.8153,491.1938 222.0323,493.0488 C221.2953,493.8398 214.7953,501.2558 220.5893,510.4978 C226.7643,520.3488 236.9343,519.0208 237.3633,518.9618 C239.8973,518.5998 242.2673,520.3458 242.6493,522.8768 C243.0313,525.4068 241.3203,527.7688 238.7933,528.1718 C238.6263,528.1978 237.5193,528.3628 235.8053,528.3628" id="Fill-44" fill="#204EB2" mask="url(#upper-bodypalms-together-mask-26)"></path></g><g id="Group-49" transform="translate(0.000000, 3.000000)"><mask id="upper-bodypalms-together-mask-28" fill="#fff"><use xlink:href="#upper-bodypalms-together-path-27"></use></mask><g id="Clip-48"></g><path d="M391.7201,595.4263 C389.5511,595.4263 387.6241,595.1493 386.1361,594.7523 C383.6491,594.0893 382.1711,591.5353 382.8341,589.0483 C383.4981,586.5613 386.0511,585.0813 388.5381,585.7463 C389.5871,586.0093 399.2221,588.1093 404.5081,578.5673 C410.1421,568.3963 404.0611,560.1383 403.7991,559.7923 C402.2581,557.7503 402.6391,554.8303 404.6691,553.2723 C406.6991,551.7133 409.5931,552.0673 411.1681,554.0853 C411.5881,554.6223 421.3391,567.4183 412.6611,583.0843 C407.2671,592.8223 398.3651,595.4263 391.7201,595.4263" id="Fill-47" fill="#204EB2" mask="url(#upper-bodypalms-together-mask-28)"></path></g><g id="Group-52" transform="translate(0.000000, 3.000000)"><mask id="upper-bodypalms-together-mask-30" fill="#fff"><use xlink:href="#upper-bodypalms-together-path-29"></use></mask><g id="Clip-51"></g><path d="M322.6638,422.7837 C320.4948,422.7837 318.5668,422.5067 317.0788,422.1097 C314.5918,421.4467 313.1138,418.8927 313.7778,416.4057 C314.4408,413.9187 316.9948,412.4397 319.4818,413.1037 C320.5298,413.3667 330.1658,415.4677 335.4508,405.9257 C341.1748,395.5927 334.8298,387.2617 334.7648,387.1787 C333.1808,385.1497 333.5418,382.2207 335.5698,380.6377 C337.5988,379.0537 340.5278,379.4147 342.1118,381.4427 C342.5308,381.9797 352.2818,394.7757 343.6048,410.4417 C338.2098,420.1807 329.3088,422.7837 322.6638,422.7837" id="Fill-50" fill="#204EB2" mask="url(#upper-bodypalms-together-mask-30)"></path></g><g id="Group-55" transform="translate(0.000000, 3.000000)"><mask id="upper-bodypalms-together-mask-32" fill="#fff"><use xlink:href="#upper-bodypalms-together-path-31"></use></mask><g id="Clip-54"></g><path d="M511.0685,187.8403 C508.8995,187.8403 506.9725,187.5633 505.4845,187.1663 C502.9975,186.5033 501.5195,183.9493 502.1825,181.4623 C502.8465,178.9753 505.4005,177.4973 507.8865,178.1603 C508.9355,178.4223 518.5715,180.5233 523.8565,170.9813 C529.4905,160.8103 523.4095,152.5523 523.1475,152.2063 C521.6065,150.1643 521.9875,147.2443 524.0175,145.6863 C526.0465,144.1273 528.9415,144.4813 530.5165,146.4993 C530.9365,147.0363 540.6875,159.8323 532.0095,175.4983 C526.6155,185.2363 517.7135,187.8403 511.0685,187.8403" id="Fill-53" fill="#204EB2" mask="url(#upper-bodypalms-together-mask-32)"></path></g><g id="Group-58" transform="translate(0.000000, 3.000000)"><mask id="upper-bodypalms-together-mask-34" fill="#fff"><use xlink:href="#upper-bodypalms-together-path-33"></use></mask><g id="Clip-57"></g><path d="M646.931,355.228 C644.762,355.228 642.834,354.951 641.346,354.554 C638.86,353.891 637.381,351.337 638.045,348.85 C638.708,346.363 641.262,344.886 643.749,345.548 C644.797,345.812 654.433,347.913 659.719,338.369 C665.353,328.198 659.272,319.94 659.01,319.594 C657.468,317.552 657.85,314.632 659.879,313.074 C661.909,311.515 664.804,311.87 666.379,313.887 C666.798,314.424 676.549,327.22 667.872,342.886 C662.477,352.625 653.576,355.228 646.931,355.228" id="Fill-56" fill="#204EB2" mask="url(#upper-bodypalms-together-mask-34)"></path></g><g id="Group-61" transform="translate(0.000000, 3.000000)"><mask id="upper-bodypalms-together-mask-36" fill="#fff"><use xlink:href="#upper-bodypalms-together-path-35"></use></mask><g id="Clip-60"></g><path d="M145.5177,136.0474 C143.3487,136.0474 141.4207,135.7704 139.9327,135.3734 C137.4467,134.7104 135.9677,132.1564 136.6317,129.6694 C137.2947,127.1824 139.8487,125.7044 142.3357,126.3674 C143.3837,126.6294 153.0197,128.7314 158.3057,119.1884 C163.9397,109.0174 157.8587,100.7594 157.5967,100.4134 C156.0547,98.3714 156.4367,95.4514 158.4657,93.8934 C160.4957,92.3344 163.3907,92.6884 164.9657,94.7064 C165.3847,95.2434 175.1357,108.0394 166.4587,123.7054 C161.0637,133.4444 152.1627,136.0474 145.5177,136.0474" id="Fill-59" fill="#204EB2" mask="url(#upper-bodypalms-together-mask-36)"></path></g><g id="Group-64" transform="translate(0.000000, 3.000000)"><mask id="upper-bodypalms-together-mask-38" fill="#fff"><use xlink:href="#upper-bodypalms-together-path-37"></use></mask><g id="Clip-63"></g><path d="M139.4923,351.1938 C138.6473,351.1938 137.7923,350.9648 137.0243,350.4838 C134.8423,349.1178 134.1813,346.2418 135.5463,344.0608 C136.1063,343.1358 140.9483,334.5448 133.3843,326.6858 C125.1923,318.1748 115.3633,321.7888 115.2653,321.8258 C112.8603,322.7438 110.1673,321.5368 109.2503,319.1308 C108.3333,316.7268 109.5393,314.0338 111.9443,313.1168 C112.5813,312.8738 127.6803,307.3198 140.0993,320.2218 C150.3403,330.8608 146.7673,343.7028 143.4463,349.0058 C142.5623,350.4188 141.0443,351.1938 139.4923,351.1938" id="Fill-62" fill="#204EB2" mask="url(#upper-bodypalms-together-mask-38)"></path></g><g id="Group-67" transform="translate(0.000000, 3.000000)"><mask id="upper-bodypalms-together-mask-40" fill="#fff"><use xlink:href="#upper-bodypalms-together-path-39"></use></mask><g id="Clip-66"></g><path d="M278.3567,86.2256 C277.5117,86.2256 276.6567,85.9966 275.8887,85.5156 C273.7067,84.1496 273.0457,81.2736 274.4107,79.0926 C274.9707,78.1676 279.8127,69.5766 272.2487,61.7176 C264.0567,53.2066 254.2277,56.8196 254.1297,56.8576 C251.7247,57.7736 249.0317,56.5676 248.1147,54.1636 C247.1977,51.7586 248.4037,49.0656 250.8087,48.1486 C251.4457,47.9066 266.5447,42.3506 278.9637,55.2536 C289.2047,65.8926 285.6317,78.7346 282.3107,84.0376 C281.4267,85.4506 279.9087,86.2256 278.3567,86.2256" id="Fill-65" fill="#204EB2" mask="url(#upper-bodypalms-together-mask-40)"></path></g><g id="Group-70" transform="translate(0.000000, 3.000000)"><mask id="upper-bodypalms-together-mask-42" fill="#fff"><use xlink:href="#upper-bodypalms-together-path-41"></use></mask><g id="Clip-69"></g><path d="M715.9675,298.6509 C715.1225,298.6509 714.2675,298.4219 713.4995,297.9409 C711.3175,296.5749 710.6565,293.6989 712.0215,291.5179 C712.5815,290.5929 717.4245,282.0009 709.8595,274.1419 C701.7955,265.7649 692.1145,269.1479 691.7065,269.2959 C689.3005,270.1689 686.6225,268.9449 685.7305,266.5469 C684.8385,264.1479 686.0285,261.4849 688.4195,260.5739 C689.0565,260.3319 704.1555,254.7769 716.5745,267.6779 C726.8155,278.3179 723.2425,291.1589 719.9215,296.4629 C719.0375,297.8759 717.5195,298.6509 715.9675,298.6509" id="Fill-68" fill="#204EB2" mask="url(#upper-bodypalms-together-mask-42)"></path></g><g id="Group-73" transform="translate(0.000000, 3.000000)"><mask id="upper-bodypalms-together-mask-44" fill="#fff"><use xlink:href="#upper-bodypalms-together-path-43"></use></mask><g id="Clip-72"></g><path d="M578.6043,104.9912 C577.7593,104.9912 576.9043,104.7622 576.1363,104.2812 C573.9543,102.9152 573.2933,100.0392 574.6583,97.8582 C575.2173,96.9332 580.0603,88.3412 572.4963,80.4822 C564.4323,72.1052 554.7513,75.4882 554.3433,75.6362 C551.9373,76.5102 549.2593,75.2852 548.3673,72.8872 C547.4753,70.4882 548.6653,67.8252 551.0563,66.9142 C551.6933,66.6712 566.7923,61.1172 579.2113,74.0182 C589.4523,84.6582 585.8793,97.4992 582.5583,102.8032 C581.6743,104.2162 580.1563,104.9912 578.6043,104.9912" id="Fill-71" fill="#204EB2" mask="url(#upper-bodypalms-together-mask-44)"></path></g><g id="Group-76" transform="translate(0.000000, 3.000000)"><mask id="upper-bodypalms-together-mask-46" fill="#fff"><use xlink:href="#upper-bodypalms-together-path-45"></use></mask><g id="Clip-75"></g><path d="M468.2632,499.0659 C467.4182,499.0659 466.5632,498.8369 465.7952,498.3559 C463.6132,496.9899 462.9522,494.1139 464.3172,491.9329 C464.8772,491.0079 469.7202,482.4169 462.1552,474.5569 C454.0912,466.1809 444.4102,469.5639 444.0022,469.7109 C441.5962,470.5839 438.9182,469.3599 438.0262,466.9619 C437.1342,464.5629 438.3242,461.8999 440.7152,460.9889 C441.3522,460.7459 456.4512,455.1909 468.8702,468.0929 C479.1112,478.7329 475.5382,491.5749 472.2182,496.8779 C471.3332,498.2909 469.8152,499.0659 468.2632,499.0659" id="Fill-74" fill="#204EB2" mask="url(#upper-bodypalms-together-mask-46)"></path></g><g id="Group-79" transform="translate(0.000000, 3.000000)"><mask id="upper-bodypalms-together-mask-48" fill="#fff"><use xlink:href="#upper-bodypalms-together-path-47"></use></mask><g id="Clip-78"></g><path d="M622.1402,622.918 C621.2952,622.918 620.4402,622.689 619.6712,622.208 C617.4902,620.842 616.8292,617.966 618.1942,615.785 C618.7542,614.86 623.5962,606.269 616.0322,598.41 C607.9682,590.033 598.2872,593.416 597.8792,593.563 C595.4732,594.436 592.7952,593.212 591.9032,590.814 C591.0112,588.415 592.2012,585.752 594.5922,584.841 C595.2292,584.598 610.3272,579.043 622.7472,591.946 C632.9882,602.585 629.4152,615.427 626.0942,620.73 C625.2102,622.143 623.6922,622.918 622.1402,622.918" id="Fill-77" fill="#204EB2" mask="url(#upper-bodypalms-together-mask-48)"></path></g><g id="Group-82"><mask id="upper-bodypalms-together-mask-50" fill="#fff"><use xlink:href="#upper-bodypalms-together-path-49"></use></mask><g id="Clip-81"></g><path d="M173.2701,681.4639 C172.4251,681.4639 171.5701,681.2349 170.8021,680.7539 C168.6201,679.3879 167.9591,676.5119 169.3241,674.3309 C169.8841,673.4059 174.7261,664.8149 167.1621,656.9549 C159.0981,648.5789 149.4171,651.9609 149.0091,652.1089 C146.6031,652.9829 143.9251,651.7579 143.0331,649.3599 C142.1411,646.9609 143.3311,644.2979 145.7221,643.3869 C146.3591,643.1439 161.4581,637.5899 173.8771,650.4909 C184.1181,661.1309 180.5451,673.9729 177.2241,679.2759 C176.3401,680.6889 174.8221,681.4639 173.2701,681.4639" id="Fill-80" fill="#204EB2" mask="url(#upper-bodypalms-together-mask-50)"></path></g></g><g id="Group-90" transform="translate(8.000000, 21.508000)"><path d="M763.0248,331.8208 C763.0248,331.8208 776.6238,508.4818 737.3808,540.9588 C704.3488,568.2958 657.6158,589.0068 559.9488,463.8288 C462.2828,338.6518 393.7128,267.7218 393.3908,218.1258 C393.0118,159.6968 381.5428,5.6778 396.6748,4.3028 C411.8058,2.9268 427.8938,162.5768 485.6678,218.9758 C543.4418,275.3748 631.7078,331.3318 631.7078,331.3318 C631.7078,331.3318 675.0238,338.0698 763.0248,331.8208" id="Fill-84" fill="#c26e5e"></path><path d="M8.0214,338.4434 C8.0214,338.4434 -20.8726,515.7504 35.7354,553.4884 C69.9064,576.2694 117.0944,595.6294 218.1554,470.4514 C319.2164,345.2734 388.9624,272.3684 391.8094,222.8474 C394.6554,173.3264 393.2324,1.3794 377.5754,0.0034 C361.9174,-1.3726 354.8004,169.1994 295.0184,225.5984 C235.2364,281.9974 139.8684,346.6494 139.8684,346.6494 C139.8684,346.6494 101.5114,352.2154 8.0214,338.4434" id="Fill-86" fill="#c26e5e"></path><polygon id="Fill-88" fill="#C86A5D" points="391.3919 218.1826 386.4399 43.8946 390.4389 43.7816 395.3899 218.0696"></polygon></g></g></g></g></g><g id="Lower Body/Sitting on Floor" transform="translate(1165.000000, 2062.000000) scale(-1, 1) translate(-1165.000000, -2062.000000) translate(0.000000, 1624.000000) scale(1 1)"><g id="Lower Body/Sitting on Floor/Legs Crossed 2" stroke="none" stroke-width="1" fill="none" fill-rule="evenodd"><g id="Group-46" transform="translate(69.000000, 357.000000)"><path d="M583.8821,306.5582 C583.8821,306.5582 541.1281,325.1022 535.9771,317.8902 C530.8261,310.6792 575.1251,355.4942 575.1251,355.4942 L607.0621,337.4642 L583.8821,306.5582 Z" id="Fill-1" fill="#c26e5e"></path><path d="M583.8821,306.5582 C583.8821,306.5582 541.1281,325.1022 535.9771,317.8902 C530.8261,310.6792 575.1251,355.4942 575.1251,355.4942 L607.0621,337.4642 L583.8821,306.5582 Z" id="Stroke-3" stroke="#000" stroke-width="3"></path><path d="M241.3362,329.2232 C241.3362,329.2232 178.4932,365.7952 228.4582,422.9722 C278.4232,480.1492 455.1052,441.0012 455.1052,441.0012 L459.7412,418.3362 C459.7412,418.3362 282.0292,332.3142 241.3362,329.2232" id="Fill-5" fill="#F0ECEC"></path><path d="M241.3362,329.2232 C241.3362,329.2232 216.6112,334.3732 208.8842,362.7042 C201.1582,391.0362 218.1892,424.0292 243.1552,435.0902 C243.1552,435.0902 211.2912,364.3752 267.2642,335.2092 L241.3362,329.2232 Z" id="Fill-7" fill="#E0D3CC"></path><path d="M261.5242,443.1266 C261.5242,443.1266 284.0902,397.2176 294.3922,398.2476 C304.6942,399.2776 416.2152,405.0666 427.4192,402.9446 L464.3772,417.8206 L457.8422,441.4046 C457.8422,441.4046 320.3452,473.5836 261.5242,443.1266" id="Fill-9" fill="#E7DADA"></path><path d="M291.8167,356.524 C291.8167,356.524 283.5747,416.276 295.4217,416.276 C307.2697,416.276 310.3607,349.312 312.4207,372.492 C314.4817,395.671 316.0267,425.033 323.7537,416.276 C331.4797,407.519 315.5117,342.616 322.2077,360.644 C328.9037,378.673 333.0247,412.67 343.8427,412.155 C354.6597,411.64 339.7217,377.128 345.3877,376.097 C351.0537,375.067 362.3857,420.912 372.1727,415.246 C381.9607,409.58 363.9317,371.977 374.2337,385.884 C384.5357,399.793 387.6267,416.276 396.8987,414.215 C406.1707,412.155 395.8677,394.127 390.2017,385.37 C384.5357,376.613 297.4827,343.13 294.9067,347.252 C292.3317,351.373 291.8167,356.524 291.8167,356.524" id="Fill-11" fill="#F9F9F9"></path><g id="Group-15" transform="translate(0.000000, 0.784000)" fill="#165C5D"><path d="M424.7141,414.4617 C424.7141,414.4617 216.6111,354.1937 119.7711,277.4427 C22.9311,200.6917 -33.2159,126.0017 21.3851,42.0397 C75.9861,-41.9233 204.2481,21.9497 266.0611,49.2507 C327.8741,76.5517 530.5701,115.1607 627.2801,114.9157 C723.9911,114.6697 853.7981,107.4577 921.2771,87.3687 C988.7561,67.2797 1096.4131,36.8887 1129.3811,118.7907 C1162.3471,200.6917 1123.7141,281.0497 1067.0521,308.3497 C1010.3901,335.6497 835.7691,394.3727 746.1411,388.7067 L656.5121,383.0397 C656.5121,383.0397 617.8791,340.2867 628.1811,277.9587 L574.0951,317.1067 C574.0951,317.1067 543.1891,316.5917 531.8561,312.4707 C520.5241,308.3497 457.6811,459.2757 424.7141,414.4617" id="Fill-13"></path></g><path d="M479.8304,422.4576 C479.8304,422.4576 570.4894,455.9386 592.1234,469.8476 C613.7584,483.7556 658.5724,495.6026 680.2074,480.6646 C701.8414,465.7266 688.9644,391.5516 688.9644,391.5516 C688.9644,391.5516 616.3334,375.0666 608.0924,363.7346 C599.8504,352.4026 533.9164,314.8006 533.9164,314.8006 L479.8304,422.4576 Z" id="Fill-16" fill="#c26e5e"></path><path d="M681.1965,397.4195 C681.1965,397.4195 685.8735,385.3695 700.2965,387.9445 C714.7195,390.5215 849.1625,375.5825 887.7955,364.7655 C926.4275,353.9475 1008.3305,430.6985 972.7875,484.7845 C937.2455,538.8715 888.8255,513.1155 845.0415,509.5105 C801.2575,505.9045 716.2645,518.2675 697.2055,512.0855 C678.1465,505.9045 659.0875,494.5715 658.5725,481.1795 C658.0575,467.7865 681.1965,397.4195 681.1965,397.4195" id="Fill-18" fill="#F0ECEC"></path><path d="M877.7664,371.8189 C877.7664,371.8189 934.6694,399.7929 944.9724,438.4249 C955.2744,477.0579 950.4914,507.9839 950.4914,507.9839 C950.4914,507.9839 1004.4904,482.5399 973.7014,422.1069 C942.9114,361.6739 894.5234,356.7079 877.7664,365.6299 C861.0094,374.5519 877.7664,371.8189 877.7664,371.8189" id="Fill-20" fill="#E0D3CC"></path><path d="M871.4646,370.5123 C871.4646,370.5123 848.1316,407.5193 845.0416,434.3043 C845.0416,434.3043 847.1016,439.4553 821.3466,438.9413 C795.5906,438.4253 675.5176,412.0763 675.5176,412.0763 C675.5176,412.0763 649.6886,473.9503 659.0246,489.9273 C668.3596,505.9053 845.0416,475.5133 845.0416,475.5133 C845.0416,475.5133 852.2526,471.3923 856.8886,474.9983 C861.5246,478.6043 885.4606,511.6303 918.3066,518.2963 C918.3066,518.2963 867.1906,490.9663 863.0696,454.9083 C858.9486,418.8513 871.4646,370.5123 871.4646,370.5123" id="Fill-22" fill="#EEDFD9"></path><path d="M701.8416,408.0348 C701.8416,408.0348 703.3866,443.0608 696.6906,462.6358 C689.9936,482.2098 684.4326,499.2828 695.9696,497.1848 C707.5076,495.0878 719.8706,417.3058 713.1746,410.6098 C706.4776,403.9138 702.3566,401.8528 701.8416,408.0348" id="Fill-24" fill="#FFF"></path><path d="M720.9006,412.1549 C720.9006,412.1549 722.4456,447.1819 715.7496,466.7569 C709.0526,486.3309 703.4916,503.4029 715.0286,501.3049 C726.5666,499.2089 738.9296,421.4269 732.2326,414.7309 C725.5366,408.0349 721.4156,405.9739 720.9006,412.1549" id="Fill-26" fill="#FFF"></path><path d="M788.3796,413.3853 C788.3796,413.3853 789.9246,445.4233 783.2286,463.3263 C776.5316,481.2303 770.9706,496.8463 782.5076,494.9273 C794.0456,493.0083 806.4086,421.8653 799.7116,415.7403 C793.0156,409.6153 788.8946,407.7313 788.3796,413.3853" id="Fill-28" fill="#FFF"></path><path d="M814.135,417.2809 C814.135,417.2809 815.68,447.1849 808.984,463.8959 C802.287,480.6079 796.726,495.1829 808.263,493.3929 C819.801,491.6019 832.164,425.1969 825.467,419.4799 C818.771,413.7619 814.65,412.0039 814.135,417.2809" id="Fill-30" fill="#FFF"></path><path d="M832.6423,415.1246 C832.6423,415.1246 838.4183,444.5056 834.1633,461.9986 C829.9083,479.4916 826.4733,494.7096 837.6393,491.2986 C848.8053,487.8876 851.6123,420.3986 844.1723,415.6906 C836.7313,410.9826 832.4023,409.8266 832.6423,415.1246" id="Fill-32" fill="#FFF"></path><path d="M744.8552,414.4049 C744.8552,414.4049 742.8102,449.4069 734.1472,468.1939 C725.4832,486.9799 718.2052,503.3939 729.8972,502.4879 C741.5882,501.5819 761.8412,425.4719 755.8652,418.1269 C749.8882,410.7799 746.0002,408.3089 744.8552,414.4049" id="Fill-34" fill="#FFF"></path><path d="M754.9553,413.7564 C754.9553,413.7564 761.9163,448.1194 758.3383,468.4954 C754.7593,488.8714 751.9143,506.6014 762.9873,502.7384 C774.0593,498.8764 774.2043,420.1184 766.5503,414.5424 C758.8953,408.9664 754.5053,407.5694 754.9553,413.7564" id="Fill-36" fill="#FFF"></path><path d="M677.7112,409.7262 C677.7112,409.7262 710.0832,416.7912 703.3872,455.9392 C696.6902,495.0872 656.0132,484.0552 656.0132,484.0552 C656.0132,484.0552 646.3702,419.6602 677.7112,409.7262" id="Fill-38" fill="#FFF"></path><polygon id="Stroke-40" fill="#000" fill-rule="nonzero" points="222.064539 67.357022 506.395 291.638 567.949 317.564 633.126623 276.966138 856.941623 135.370138 859.080177 138.750462 635.253319 280.353906 568.306142 322.054535 504.343936 295.114337 219.587261 70.497578"></polygon><path d="M640.0286,255.5631 C640.0286,255.5631 593.6696,268.4401 580.7916,290.5901 C567.9136,312.7401 572.0346,350.8571 610.1526,366.8261 C648.2706,382.7941 663.7236,396.1871 653.9366,370.9471 C644.1496,345.7071 626.1206,299.3461 640.0286,255.5631" id="Fill-42" fill="#46AFAC"></path><path d="M505.0706,284.9234 C505.0706,284.9234 500.4346,336.4344 472.1036,376.6124 C443.7736,416.7914 418.5326,420.9114 427.8046,430.6984 C437.0766,440.4854 451.4996,445.1214 460.7716,457.4854 C470.0436,469.8474 469.5286,469.3314 491.1626,443.5764 C512.7976,417.8204 560.1876,360.6444 561.2176,309.6494 C561.2176,309.6494 509.1916,267.9254 505.0706,284.9234" id="Fill-44" fill="#46AFAC"></path></g></g></g><g id="Expression" transform="translate(1633.000000, 1204.000000) scale(1 1)"><defs><polygon id="expressionmake-up-meditating-path-1" points="0.000139166 0.824 77.7317814 0.824 77.7317814 24.5342 0.000139166 24.5342"></polygon><polygon id="expressionmake-up-meditating-path-3" points="0.528516447 0.459695949 51.522 0.459695949 51.522 17.6481 0.528516447 17.6481"></polygon></defs><g id="Expression/Make Up Meditating" stroke="none" stroke-width="1" fill="none" fill-rule="evenodd"><g id="Group-19" transform="translate(21.000000, 25.000000)"><path d="M38.7602967,127.4406 C38.7602967,127.4406 38.5224,143.3896 60.8994,146.2466 C83.2764,149.1026 93.2754,146.2466 92.7994,136.0096 C92.7994,136.0096 89.2284,124.8216 83.9904,124.3456 C78.7534,123.8696 73.2784,126.7256 73.2784,126.7256 C73.2784,126.7256 68.0414,119.8226 62.5664,120.5366 C57.0904,121.2516 46.1404,127.6776 38.7602967,127.4406" id="Fill-12" fill="#CE4129"></path><g id="Group-7" transform="translate(0.000000, 0.176000)"><mask id="expressionmake-up-meditating-mask-2" fill="#fff"><use xlink:href="#expressionmake-up-meditating-path-1"></use></mask><g id="Clip-6"></g><path d="M75.2174,24.5342 C75.2174,24.5342 46.3264,16.5272 38.7954,14.2512 C31.2644,11.9732 29.6884,10.3972 20.7554,11.2732 C11.8234,12.1482 1.6644,14.0752 0.0884,12.3242 C-1.4876,10.5722 18.4784,1.8152 25.1344,0.9392 C31.7894,0.0632 71.0984,4.1602 76.1354,13.9092 C80.2014,21.7792 75.2174,24.5342 75.2174,24.5342" id="Fill-5" fill="#000" mask="url(#expressionmake-up-meditating-mask-2)"></path></g><path d="M78.12,136.0759 C61.805,133.9009 42.292,131.0109 36.169,127.9499 C31.701,125.7149 30.056,126.2769 30.04,126.2839 C30.041,126.2839 31.473,121.1309 37.957,124.3709 C44.269,127.5279 70.145,130.9779 78.649,132.1119 C93.524,134.0939 94.866,133.3269 96.565,132.3579 L98.549,135.8299 C96.903,136.7719 95.349,137.3469 91.831,137.3469 C88.952,137.3469 84.758,136.9609 78.12,136.0759 Z" id="Fill-10" fill="#000"></path><g id="Group-16" transform="translate(109.000000, 18.176000)"><mask id="expressionmake-up-meditating-mask-4" fill="#fff"><use xlink:href="#expressionmake-up-meditating-path-3"></use></mask><g id="Clip-15"></g><path d="M0.5721,10.3701 C0.5721,10.3701 1.2001,4.0961 8.8551,1.3351 C16.5101,-1.4259 43.2401,3.0921 45.2481,4.5981 C47.2551,6.1031 50.8951,9.7431 51.5221,17.6481 C51.5221,17.6481 48.6271,11.6261 43.3571,10.6221 C38.0861,9.6181 21.6551,14.1351 11.2391,14.0101 C0.8231,13.8841 0.3211,12.6291 0.5721,10.3701" id="Fill-14" fill="#000" mask="url(#expressionmake-up-meditating-mask-4)"></path></g><path d="M65.4615,198.176 C51.6075,198.176 37.2855,194.136 27.0135,190.404 C13.8545,185.623 4.3075,180.297 4.2125,180.244 L5.6805,177.627 C6.0515,177.836 43.1465,198.389 72.7935,194.746 L73.1605,197.723 C70.6315,198.034 68.0535,198.176 65.4615,198.176" id="Fill-17" fill="#000"></path></g><g id="Group-124" transform="translate(25.000000, 52.000000)" fill-rule="nonzero"><path d="M98.9388073,0.515726772 L102.747593,1.73767323 L102.375135,2.93095324 C102.075892,3.9043293 101.742122,5.01790967 101.382468,6.25291663 C100.354215,9.78380887 99.3257634,13.5761133 98.3662837,17.478955 C97.2996742,21.8175645 96.3854385,26.0250163 95.6702376,29.9976992 L95.4631649,31.1740325 C93.7257688,41.2776329 93.4803733,48.9926374 95.0328764,53.1417647 L95.1244408,53.3771728 C104.002358,75.340079 91.9464166,86.4779502 66.6424816,78.6786942 L65.8716485,78.4365483 L67.0907515,74.6268517 C89.8846425,81.9208968 99.0260452,73.7026714 91.4159925,54.8763096 C89.3210345,49.6942966 89.6433125,40.8993486 91.7335247,29.288974 C92.4647551,25.2272527 93.3964651,20.9393815 94.4819426,16.5240234 C95.3476055,13.0027971 96.2678852,9.57278889 97.1943734,6.33814281 L97.5420029,5.13451153 C97.7507758,4.41761123 97.9510908,3.74056192 98.1413397,3.10683734 L98.6297394,1.50244969 L98.9388073,0.515726772 Z" id="Stroke-114" fill="#000"></path><path d="M0.1850015,153.534088 L2.1419985,150.045512 L2.85620174,150.434727 L3.51128674,150.782909 C4.50308988,151.305335 5.6321651,151.880908 6.88714027,152.498006 L7.43266178,152.764985 C11.6537624,154.821142 16.3218862,156.878362 21.3004212,158.797989 C32.7483158,163.212076 44.0600582,166.224884 54.584272,167.202241 C59.3535856,167.645156 63.8735301,167.656119 68.1063644,167.201856 L68.9490919,167.10479 L69.4379081,171.07481 C64.6629697,171.662733 59.5745075,171.682884 54.2143935,171.185103 C43.2765951,170.169337 31.6251616,167.066055 19.8613669,162.530163 C14.7706849,160.567294 9.99959664,158.464698 5.68097489,156.361037 L4.04785364,155.55429 C3.35348222,155.206284 2.70158001,154.872883 2.09423579,154.556252 L0.962732129,153.958187 L0.1850015,153.534088 Z" id="Stroke-122" fill="#C86A5D"></path></g><g id="Group-16" transform="translate(90.000000, 52.000000)" fill="#000"><path d="M15.8252,81.1664 C11.7822,81.1664 6.7382,80.3754 0.4432,78.3614 L1.6612,74.5514 C13.3852,78.3024 22.0452,77.9964 26.0462,73.6874 C29.4492,70.0204 29.4282,63.3134 25.9872,54.8014 C23.6522,49.0264 24.2292,38.0734 27.7022,22.2454 C30.2432,10.6624 33.4772,0.5414 33.5102,0.4404 L37.3182,1.6624 C33.8112,12.5954 25.6062,43.1874 29.6952,53.3024 C34.8932,66.1604 32.1742,72.9644 28.9772,76.4084 C26.6972,78.8664 22.7182,81.1664 15.8252,81.1664" id="Fill-5"></path></g><path d="M129.685189,72.7608422 C130.799739,71.6260634 132.594825,71.5649295 133.78246,72.5890238 L134.323265,73.0922215 C134.679851,73.417346 135.098676,73.7830843 135.574652,74.1792057 C136.94412,75.3189167 138.484129,76.4610626 140.151599,77.5241767 C144.702796,80.4258418 149.295338,82.172265 153.558587,82.2424016 C157.874539,82.3130298 161.865025,80.9074098 165.437409,78.4948081 C166.67134,77.6614747 167.761501,76.768172 168.691014,75.8802215 L168.992411,75.5872953 C169.224631,75.3574693 169.409243,75.1644586 169.544403,75.0166431 L169.733887,74.8011958 C170.791956,73.526184 172.683292,73.3503175 173.958304,74.408387 C175.233316,75.4664564 175.409182,77.3577925 174.351113,78.6328042 L174.150042,78.8672558 C173.847545,79.210262 173.407828,79.6720596 172.83555,80.2187491 C171.672781,81.3295265 170.323752,82.4349517 168.795434,83.4670978 C164.27381,86.5207674 159.125278,88.3343007 153.460152,88.2415941 C147.909111,88.1502715 142.329711,86.028572 136.926036,82.5834002 C135.031541,81.3755444 133.290777,80.0845082 131.736552,78.7910371 L131.286566,78.4122537 C130.573365,77.8047902 130.045411,77.3196388 129.723342,77.0033113 C128.541281,75.8423217 128.524199,73.9429035 129.685189,72.7608422 Z" id="Stroke-110" fill="#000" fill-rule="nonzero"></path><path d="M42.7652887,62.9386422 C43.8798388,61.8038634 45.6749245,61.7427295 46.8625603,62.7668238 L47.403365,63.2700215 L47.8608172,63.6790108 C48.104155,63.8925979 48.3691663,64.1193328 48.6547521,64.3570057 C50.0242202,65.4967167 51.5642285,66.6388626 53.2316992,67.7019767 C57.782896,70.6036418 62.3754377,72.350065 66.6384215,72.4201973 C70.9543059,72.4904425 74.9447471,71.0848333 78.5171065,68.6725085 C79.7511834,67.8391674 80.8414724,66.9458579 81.7710952,66.0579011 L82.2061483,65.6315612 C82.4192767,65.4167948 82.5844234,65.2405199 82.6997444,65.1111159 L82.8140951,64.9788655 C83.8722365,63.7039134 85.7635824,63.5281537 87.0385345,64.5862951 C88.3134866,65.6444365 88.4892463,67.5357824 87.4311049,68.8107345 L87.2300134,69.0451828 C86.9274859,69.3881843 86.4877247,69.8499766 85.9153892,70.3966598 C84.7525044,71.5074237 83.403344,72.612835 81.8748828,73.6449665 C77.3534608,76.6981695 72.2052461,78.5115975 66.5402524,78.4193941 C60.9892107,78.3280715 55.409811,76.206372 50.0061361,72.7612002 C48.1116412,71.5533444 46.3708772,70.2623082 44.8166522,68.9688371 L44.3666664,68.5900537 C43.6534646,67.9825902 43.1255109,67.4974388 42.8034422,67.1811113 C41.6213809,66.0201217 41.604299,64.1207035 42.7652887,62.9386422 Z" id="Stroke-120" fill="#000" fill-rule="nonzero"></path></g></g><g id="Hairstyle" transform="translate(1142.000000, 877.000000) scale(1 1)"><g id="Hairstyle/Wavy Ponytail" stroke="none" stroke-width="1" fill="none" fill-rule="evenodd"><path d="M677.693646,389.985968 C677.693646,389.985968 664.693646,288.705968 631.873646,272.505968 C631.873646,272.505968 574.943646,337.514968 520.713646,356.245968 C466.483646,374.964968 502.733646,441.445968 457.623646,471.225968 C457.623646,471.225968 483.263646,431.344968 477.313646,399.354968 C471.363646,367.375968 474.843646,343.434968 474.843646,343.434968 C474.843646,343.434968 474.413646,339.214968 474.523646,332.295968 L461.013646,368.415968 C461.013646,368.415968 461.013646,355.415968 445.013646,359.415968 C445.013646,359.415968 446.313646,315.674968 468.003646,277.495968 C435.373646,280.684968 401.873646,277.714968 401.003646,343.344968 C399.613646,447.545968 286.073646,386.645968 270.933646,475.485968 C254.693646,570.714968 218.243646,580.535968 96.0136464,527.275968 C-26.2163536,474.014968 106.693646,447.985968 129.093646,355.895968 C151.503646,263.815968 207.893646,344.035968 266.593646,240.875968 C325.303646,137.705968 391.183646,218.615968 455.753646,184.525968 C520.333646,150.434968 529.723646,218.804968 529.723646,218.804968 C529.723646,218.804968 530.733646,221.475968 530.793646,225.905968 C530.813646,226.434968 530.803646,226.985968 530.783646,227.565968 C533.243646,226.195968 535.813646,224.905968 538.493646,223.674968 C539.873646,223.054968 541.273646,222.445968 542.713646,221.854968 C619.803646,190.295968 721.343646,273.674968 677.693646,389.985968" id="Fill-125" fill="#180800"></path></g></g><g id="Accessories" transform="translate(1586.000000, 1237.000000) scale(1 1)" fill="#000"><g id="Accessories/Earring" stroke="none" stroke-width="1" fill="none" fill-rule="evenodd"><g id="Group-5" transform="translate(1.000000, 55.000000)" fill="#FFF"><path d="M21.5,11 C21.5,16.799 16.8,21.5 11,21.5 C5.201,21.5 0.5,16.799 0.5,11 C0.5,5.2 5.201,0.5 11,0.5 C16.8,0.5 21.5,5.2 21.5,11" id="Fill-1"></path></g></g></g><g id="Facial Hair" transform="translate(1596.000000, 1238.000000) scale(1 1)" fill="#000"><g id="Facial Hair/None" stroke="none" stroke-width="1" fill="none" fill-rule="evenodd" fill-opacity="0"></g></g></g></g></g></svg>