<svg viewBox="747.5199499999999 407.5689649159517 6443.61005 3044.862070168097" xmlns="http://www.w3.org/2000/svg" xmlns:xlink="http://www.w3.org/1999/xlink" overflow="visible" width="6443.61005px" height="3044.862070168097px"><defs><polygon id="masterscenealone-time-1-path-1" points="0 0.1068 43.9995 0.1068 43.9995 44.1068 0 44.1068"></polygon><polygon id="masterscenealone-time-1-path-3" points="-0.0005 0.107 43.9995 0.107 43.9995 44.1068 -0.0005 44.1068"></polygon><polygon id="masterscenealone-time-1-path-5" points="0 0.216 1141.521 0.216 1141.521 422.785934 0 422.785934"></polygon><polygon id="masterscenealone-time-1-path-7" points="0 0.974 166.34437 0.974 166.34437 155.077511 0 155.077511"></polygon><polygon id="masterscenealone-time-1-path-9" points="0.58787431 0.1508 87.7709 0.1508 87.7709 284 0.58787431 284"></polygon><polygon id="masterscenealone-time-1-path-11" points="0.721 0.6074 75.113 0.6074 75.113 75 0.721 75"></polygon><polygon id="masterscenealone-time-1-path-13" points="0 -2.27373675e-13 808.1899 -2.27373675e-13 808.1899 2431.88398 0 2431.88398"></polygon></defs><g id="Master/Scene/Alone Time 1" stroke="none" stroke-width="1" fill="none" fill-rule="evenodd"><g id="Background" transform="translate(1152.000000, 431.000000)"><g id="Painting" transform="translate(2781.310000, 1.920000)"><g><polygon id="Fill-2" fill="#E93737" points="0 1209 1025 1209 1025 0 0 0"></polygon><polygon id="Fill-3" fill="#EECCDC" points="28 1180 1000 1180 1000 28 28 28"></polygon><polygon id="Fill-4" fill="#EC7070" points="617 776 1000 776 1000 322 617 322"></polygon><polygon id="Fill-5" fill="#E93737" points="695.072 737 747 737 747 374 695.072 374"></polygon><polygon id="Fill-7" fill="#E93737" points="616.9996 322 531.9996 479 533.4526 774.484 616.9996 776"></polygon><polygon id="Fill-8" fill="#EC7070" points="27 1180 364 1180 364 730 27 730"></polygon><polygon id="Fill-9" fill="#E93737" points="124 933 364 933 364 821 124 821"></polygon><polygon id="Fill-10" fill="#E93737" points="124 1104 364 1104 364 985 124 985"></polygon><polygon id="Fill-11" fill="#EC7070" points="534 1180 1000 1180 1000 726 534 726"></polygon><polygon id="Fill-12" fill="#E93737" points="622.072 935 1000.232 935 1000.232 821 622.072 821"></polygon><polygon id="Fill-13" fill="#E93737" points="623.072 1107 1001.232 1107 1001.232 993 623.072 993"></polygon><polygon id="Fill-14" fill="#E93737" points="533.9996 726 448.9996 883 450.4526 1178.484 533.9996 1180"></polygon><path d="M352.9996,270 C352.9996,329.647 304.6456,378 244.9996,378 C185.3526,378 136.9996,329.647 136.9996,270 C136.9996,210.353 185.3526,162 244.9996,162 C304.6456,162 352.9996,210.353 352.9996,270" id="Fill-16" fill="#FC7750"></path><polygon id="Fill-6" fill="#E93737" points="820.072 737 872 737 872 374 820.072 374"></polygon><polygon id="Fill-15" fill="#E93737" points="948.072 739 1000 739 1000 374 948.072 374"></polygon></g></g><g id="Painting/Horizontal" transform="translate(1922.000000, 0.000000) scale(1 1)"><g id="Painting/Horizontal/Painting 1" stroke="none" stroke-width="1" fill="none" fill-rule="evenodd"><g id="Painting"><polygon id="Fill-45" fill="#E93737" points="0 507 768 507 768 0 0 0"></polygon><polygon id="Fill-46" fill="#EECCDC" points="23.979 482 741 482 741 28.742 23.979 28.742"></polygon><path d="M302.8103,275.195 C299.1533,261.488 288.5263,250.307 275.6123,244.762 C261.8523,238.854 246.1863,239.724 232.8643,246.431 C225.5163,250.131 219.1653,255.651 214.6283,262.519 C213.4663,264.278 214.9653,267.309 217.2183,267.033 C224.3573,266.156 231.9563,265.1 238.9773,267.222 C244.1893,268.798 249.1643,272.46 250.1543,278.082 C251.1193,276.815 252.0833,275.549 253.0473,274.284 C244.7833,273.476 236.5193,272.669 228.2563,271.861 C221.0423,271.157 212.9563,269.506 206.6353,274.078 C203.8223,276.112 201.6793,278.825 199.4913,281.483 C196.9723,284.544 194.4913,287.634 192.0483,290.756 C187.1803,296.977 182.4563,303.308 177.8863,309.754 C175.9133,312.536 180.3103,315.879 182.5983,313.388 C194.4993,300.433 213.6253,295.131 230.6273,299.237 C230.3883,297.41 230.1493,295.582 229.9103,293.754 C214.7863,300.845 199.4103,307.563 184.5193,315.133 C178.2793,318.304 172.0603,322.106 167.4853,327.501 C163.0153,332.771 160.1863,339.126 158.6433,345.832 C156.8933,353.437 156.5823,361.293 156.397549,369.065 C156.3393,371.592 159.7693,373.12 161.5193,371.187 C171.5023,360.161 181.6263,348.926 194.0483,340.574 C205.9533,332.569 219.9003,327.344 234.3993,328.082 C233.8943,326.218 233.3903,324.355 232.8853,322.491 C224.4373,328.674 215.9903,334.858 207.5423,341.041 C200.1613,346.444 192.6813,351.765 185.7763,357.779 C173.3483,368.603 162.7213,382.691 162.5693,399.854 C162.4913,408.677 165.4773,417.228 171.5893,423.662 C172.8163,424.953 175.5023,424.813 176.3013,423.054 C184.6293,404.711 199.3053,390.008 217.1963,380.889 C215.9853,379.318 214.7733,377.748 213.5613,376.177 C206.1023,384.396 199.2573,393.183 193.1823,402.474 C190.2723,406.924 187.3223,411.487 184.9753,416.263 C183.1883,419.898 181.8133,423.955 181.8313,428.049 C181.8493,432.027 183.4233,435.816 186.8003,438.073 C190.6073,440.617 195.3863,440.309 199.3713,438.371 C203.6433,436.293 206.5393,432.556 208.2323,428.204 C210.0983,423.408 210.4353,418.194 212.1463,413.352 C215.5083,403.837 223.9883,396.61 233.4763,393.638 C232.2463,392.408 231.0163,391.178 229.7863,389.948 C222.6183,407 214.4503,423.626 205.4253,439.77 C204.2693,441.838 206.2493,445.216 208.8133,444.177 C216.1873,441.188 222.8313,437.031 229.1093,432.168 C235.2973,427.375 241.3583,422.196 246.9533,416.718 C252.0303,411.748 255.4253,406.006 256.8353,399.026 C258.0643,392.941 258.1383,386.715 258.8303,380.563 C259.4973,374.624 261.0443,368.216 266.0323,364.389 L261.6253,362.596 C265.4003,376.898 264.2073,392.241 258.1483,405.756 C256.8583,408.633 260.3773,412.108 262.8603,409.39 C270.5203,401.007 282.4563,396.886 293.6893,398.56 C296.0323,398.909 297.8193,397.278 297.3793,394.87 C295.7133,385.742 289.0413,379.007 284.1113,371.533 C280.2613,365.699 276.6603,356.475 282.2523,350.554 C280.6813,350.352 279.1113,350.15 277.5403,349.947 C285.7513,363.596 292.1893,378.177 296.6493,393.47 C297.3953,396.03 300.7303,396.324 302.1323,394.187 C305.3543,389.277 312.6413,388.824 317.6623,386.826 C323.1543,384.641 329.3693,380.4 329.0803,373.734 C328.9213,370.072 326.6963,367.074 324.6933,364.178 C322.2033,360.58 319.7133,356.982 317.2243,353.383 L302.7523,332.468 C301.3843,333.837 300.0163,335.205 298.6483,336.573 C315.9863,347.46 324.6733,366.849 332.4703,384.953 C333.5543,387.467 337.2723,386.472 337.9543,384.236 C339.9943,377.538 343.5183,371.345 348.2413,366.172 C350.6223,363.563 353.2583,361.234 356.1023,359.146 C358.8853,357.104 361.8363,355.123 364.1303,352.513 C369.0333,346.936 369.2243,339.747 365.1613,333.603 C361.0703,327.419 354.5083,322.959 348.0733,319.495 C340.3803,315.353 331.9823,312.611 323.3353,311.39 L323.3353,317.175 C338.3163,314.386 354.1983,318.121 366.3483,327.304 C367.9333,328.502 370.2853,327.197 370.7553,325.511 C373.7673,314.711 373.8083,302.495 368.9073,292.233 C363.4483,280.802 351.3903,275.086 339.0013,276.733 C324.3533,278.681 311.7573,288.229 300.2593,296.839 C289.1023,305.194 278.3133,314.229 269.2243,324.845 C259.4573,336.252 251.7003,349.528 248.9313,364.432 C248.4253,367.153 251.7663,369.75 253.9453,367.351 C261.9173,358.574 269.8903,349.797 277.8633,341.02 C285.3303,332.799 292.5953,324.317 300.4153,316.428 C307.2053,309.58 314.9613,303.518 324.5523,301.351 C333.5443,299.32 343.1043,300.787 351.5603,304.242 C369.8093,311.7 381.2423,328.648 388.6613,346.188 C396.9583,365.802 402.2393,386.966 404.6793,408.102 C407.4893,432.443 406.5333,457.174 401.7223,481.202 L407.5083,481.202 C397.8743,449.197 397.9923,415.574 399.9263,382.508 C401.8893,348.953 405.6883,315.307 403.2193,281.673 C401.9443,264.3 398.3763,247.428 394.5633,230.471 C390.8243,213.84 387.3243,196.998 387.9613,179.854 C388.5203,164.804 392.5343,149.622 401.9253,137.606 C410.2293,126.98 422.0813,119.116 435.5043,116.949 C439.1643,116.359 442.9953,116.191 446.2633,118.191 C449.3403,120.075 451.8073,123.054 454.1723,125.73 C459.1803,131.396 463.5703,137.584 467.3143,144.154 C474.6553,157.032 479.4793,171.471 480.9753,186.241 C481.3483,189.93 481.5153,193.634 481.5063,197.343 C483.3693,196.839 485.2323,196.334 487.0963,195.829 C475.2683,175.461 463.4403,155.092 451.6123,134.724 C442.8033,119.554 429.6863,98.19 443.5503,81.919 C453.3563,70.41 470.2923,66.78 484.7663,67.68 C501.2513,68.705 517.4573,76.355 529.7733,87.169 C543.5083,99.226 553.5083,116.025 555.2643,134.423 C556.9713,133.716 558.6783,133.008 560.3853,132.3 C539.1103,115.715 509.7463,110.58 484.0173,118.646 C481.4153,119.463 480.9183,123.899 484.0173,124.432 C503.0333,127.703 523.0883,131.409 539.7583,141.672 C547.3663,146.355 554.0873,152.62 558.3523,160.547 C562.5733,168.395 563.9353,177.779 562.4473,186.547 C560.6983,196.86 555.4813,206.142 547.4633,212.874 C549.0333,213.076 550.6043,213.278 552.1743,213.481 C541.5573,196.659 528.0793,181.769 512.4723,169.444 C511.2603,171.015 510.0493,172.586 508.8373,174.156 C519.2403,179.749 530.7573,190.431 530.3953,203.261 C530.2073,209.945 525.9333,215.038 521.5393,219.651 C516.4573,224.986 511.6923,230.444 507.9413,236.824 C503.7833,243.897 500.7943,251.665 499.1763,259.708 C500.8483,259.266 502.5193,258.825 504.1913,258.384 C486.7493,240.136 457.6823,235.318 434.7873,245.225 C436.1553,245.585 437.5233,245.943 438.8913,246.302 C428.4833,228.818 442.3743,208.761 449.1113,192.739 C451.0703,188.079 452.8143,183.245 453.5933,178.231 C454.2553,173.97 453.7823,169.403 450.3163,166.431 C444.3473,161.315 434.7303,163.236 429.7203,168.71 C423.2943,175.729 422.2823,186.732 421.2513,195.748 C420.0093,206.6 420.1033,217.594 421.5113,228.426 C421.7943,230.6 422.6753,233.164 422.4303,235.352 C422.3333,236.218 422.5223,236.089 421.5733,236.075 C420.4673,236.059 419.2143,235.402 418.1713,235.063 C412.6803,233.277 407.1893,231.49 401.6983,229.704 C398.2073,228.568 391.9393,227.741 391.5263,223.183 C391.3313,221.029 391.9653,218.816 392.4253,216.735 C392.9923,214.167 393.6213,211.612 394.3093,209.074 C400.1313,187.598 410.2293,167.49 423.6253,149.746 C425.1373,147.744 422.5903,144.364 420.2373,145.34 C398.0543,154.53 383.8023,174.09 373.1753,194.843 C370.1783,200.695 367.4223,206.665 364.7223,212.658 C365.5863,212.163 366.4493,211.668 367.3133,211.173 C353.5273,209.944 345.5793,194.332 348.7433,181.8 C352.9393,165.181 368.9633,154.721 382.7093,146.426 C391.7733,140.958 400.9603,135.686 409.1143,128.883 C411.1843,127.155 409.4273,123.775 406.9933,123.76 C381.1093,123.607 355.1693,133.637 336.8223,152.038 L341.0653,152.038 C332.3003,144.826 331.5533,132.861 335.6103,122.852 C340.4243,110.975 351.9393,103.649 363.1713,98.614 C370.4063,95.37 377.9953,92.957 385.5403,90.553 C389.2063,89.385 387.6393,83.591 383.9453,84.767 C369.5313,89.359 354.6553,94.2 342.7693,103.911 C332.7073,112.131 325.9023,124.883 327.3753,138.139 C328.1593,145.194 331.2913,151.729 336.8223,156.281 C338.0723,157.309 339.8303,157.519 341.0653,156.281 C358.3223,138.973 382.6553,129.616 406.9933,129.76 C406.2863,128.053 405.5793,126.346 404.8723,124.639 C389.6343,137.354 370.3493,144.367 356.1983,158.519 C349.8973,164.821 344.5583,172.592 342.6733,181.424 C341.0703,188.932 342.4293,196.814 346.2973,203.439 C350.7973,211.146 358.3753,216.376 367.3133,217.173 C368.2573,217.257 369.5103,216.56 369.9033,215.686 C378.8843,195.748 388.7803,174.8 406.0433,160.631 C410.7873,156.736 416.1603,153.475 421.8323,151.125 C420.7033,149.656 419.5743,148.187 418.4453,146.717 C406.1973,162.941 396.6823,181.198 390.5473,200.587 C389.0313,205.378 387.7243,210.234 386.6393,215.139 C385.6753,219.5 384.5073,224.519 387.1213,228.556 C389.7793,232.661 394.9673,233.819 399.3193,235.234 C404.8103,237.021 410.3003,238.807 415.7913,240.593 C418.0663,241.334 420.4283,242.298 422.8643,242.025 C425.3253,241.749 427.4073,240.137 428.1093,237.723 C428.6983,235.697 428.3033,233.618 427.9823,231.587 C427.5243,228.691 427.1593,225.785 426.9023,222.865 C425.9213,211.732 426.2893,200.442 428.1533,189.419 C429.3813,182.159 431.1253,170.942 440.0773,169.584 C442.8623,169.161 446.5403,169.788 447.6003,172.774 C448.3443,174.873 447.7403,177.337 447.2633,179.425 C446.6713,182.024 445.8693,184.572 444.9463,187.071 C441.0123,197.724 434.7803,207.428 431.5513,218.361 C428.5323,228.588 428.0963,239.899 433.7113,249.331 C434.6123,250.844 436.3143,251.056 437.8153,250.407 C458.2443,241.566 484.5223,246.488 499.9483,262.627 C501.4363,264.183 504.5153,263.526 504.9623,261.303 C506.4853,253.731 509.2063,246.512 513.1223,239.852 C517.1143,233.062 522.3843,227.686 527.6393,221.907 C532.4493,216.617 536.1803,210.596 536.3953,203.261 C536.5883,196.685 533.9493,190.199 530.1893,184.91 C525.4503,178.243 519.0563,172.841 511.8653,168.975 C509.0173,167.444 505.4423,171.485 508.2303,173.687 C523.4433,185.701 536.6413,200.107 546.9933,216.509 C548.0923,218.249 550.2033,218.378 551.7053,217.116 C567.0893,204.202 573.2983,181.493 565.8933,162.678 C558.2853,143.347 539.2533,132.633 520.4063,126.57 C509.0663,122.923 497.3333,120.663 485.6123,118.646 L485.6123,124.432 C509.1253,117.06 536.5723,121.286 556.1433,136.544 C557.9303,137.937 561.5403,137.318 561.2643,134.423 C557.8283,98.42 526.9323,68.098 491.6163,62.454 C475.2613,59.84 456.6673,62.743 443.5943,73.486 C437.2483,78.701 432.9393,86.011 431.8303,94.176 C430.3003,105.439 434.7193,116.394 439.8773,126.171 C446.3343,138.409 453.6773,150.229 460.6253,162.194 C467.7213,174.416 474.8183,186.636 481.9153,198.857 C483.4133,201.437 487.4973,200.312 487.5063,197.343 C487.5473,181.645 484.1433,166.167 477.8583,151.802 C474.7473,144.691 470.8983,137.899 466.4023,131.572 C461.9493,125.304 456.8863,118.526 450.6433,113.933 C444.1483,109.153 435.7283,110.324 428.4193,112.374 C421.5423,114.302 415.0693,117.622 409.3883,121.935 C397.5643,130.913 389.3133,143.599 385.2733,157.841 C375.2633,193.125 389.7783,228.583 395.1653,263.28 C400.5083,297.697 397.3003,332.751 394.9123,367.276 C392.5393,401.591 390.7543,436.531 398.4323,470.349 C399.3833,474.536 400.4843,478.685 401.7223,482.797 C402.5273,485.47 406.9003,485.832 407.5083,482.797 C416.4603,438.084 412.6493,390.771 395.9433,348.275 C388.6463,329.715 377.8613,311.346 359.7843,301.546 C351.1593,296.869 341.2543,294.107 331.3993,294.474 C321.0503,294.86 311.7843,298.924 303.7453,305.314 C294.1463,312.944 286.2803,322.84 278.0703,331.879 C268.6143,342.289 259.1583,352.698 249.7023,363.108 C251.3733,364.081 253.0453,365.054 254.7163,366.027 C259.3833,340.914 278.1973,321.793 297.4813,306.491 C302.5533,302.466 307.7773,298.618 313.0963,294.927 C318.7223,291.024 324.6683,287.302 331.1133,284.908 C337.2183,282.639 343.8593,281.48 350.2283,283.351 C354.8373,284.705 358.9023,287.586 361.6113,291.566 C367.9333,300.857 367.8883,313.45 364.9703,323.916 L369.3773,322.123 C355.9173,311.95 338.2253,308.32 321.7393,311.39 C318.9373,311.912 318.8153,316.763 321.7393,317.175 C328.8063,318.174 335.7573,320.131 342.1983,323.226 C348.2403,326.129 354.4973,329.866 358.8293,335.08 C360.7263,337.363 362.4353,340.343 362.1473,343.42 C361.8733,346.338 359.8283,348.562 357.7173,350.405 C355.4133,352.416 352.8283,354.079 350.4273,355.968 C347.7743,358.054 345.3173,360.38 343.1073,362.931 C338.1263,368.684 334.3863,375.357 332.1683,382.64 C333.9963,382.402 335.8233,382.163 337.6513,381.924 C329.3923,362.749 319.9953,342.895 301.6763,331.392 C299.2173,329.848 295.8433,333 297.5713,335.497 C302.0843,342.019 306.5973,348.541 311.1093,355.062 C313.4433,358.436 315.7773,361.809 318.1113,365.182 C319.7733,367.585 322.7913,370.671 323.0803,373.734 C323.5833,379.074 315.3353,381.392 311.5273,382.532 C305.9813,384.192 300.2803,386.086 296.9513,391.159 C298.7793,391.398 300.6073,391.636 302.4353,391.876 C297.8383,376.113 291.1843,360.987 282.7213,346.919 C281.7503,345.305 279.3563,344.886 278.0093,346.312 C271.3563,353.356 272.9163,363.503 277.0693,371.426 C281.5523,379.982 289.7943,386.604 291.5933,396.465 C292.8243,395.234 294.0543,394.005 295.2843,392.774 C281.9423,390.787 267.8273,395.068 258.6173,405.148 C260.1883,406.36 261.7583,407.572 263.3293,408.784 C270.0683,393.754 271.6233,376.963 267.4113,361.002 C266.9653,359.313 264.5663,358.009 263.0043,359.209 C252.7113,367.106 253.0363,379.885 251.8763,391.644 C251.2873,397.62 250.0763,403.638 246.3363,408.499 C243.9153,411.644 240.8413,414.267 237.8913,416.896 C235.0603,419.418 232.2233,421.932 229.3093,424.356 C222.6023,429.938 215.3483,435.095 207.2173,438.391 C208.3473,439.86 209.4763,441.33 210.6053,442.799 C219.8893,426.193 228.2003,409.08 235.5713,391.543 C236.4713,389.403 233.8763,387.228 231.8813,387.852 C223.6643,390.426 216.5033,395.438 211.3523,402.342 C208.8433,405.706 206.9483,409.538 205.7823,413.57 C204.4863,418.053 204.1653,422.919 202.1903,427.19 C200.6873,430.44 197.7363,433.34 194.0623,433.891 C190.9033,434.366 188.2733,432.333 187.8783,429.207 C187.4803,426.049 188.5943,422.592 189.9233,419.775 C191.9023,415.584 194.4693,411.596 196.9523,407.69 C203.1043,398.009 210.0963,388.912 217.8033,380.42 C220.1153,377.874 217.2303,374.147 214.1683,375.708 C195.4763,385.235 179.8233,400.856 171.1203,420.026 C172.6903,419.824 174.2613,419.622 175.8313,419.419 C165.8933,408.958 167.1193,392.601 173.8543,380.766 C182.0083,366.439 196.2243,356.722 209.2373,347.198 C218.1293,340.689 227.0213,334.18 235.9133,327.673 C238.2813,325.939 237.5273,322.241 234.3993,322.082 C219.1693,321.307 204.1933,326.681 191.6063,335.003 C178.4693,343.687 167.7773,355.346 157.2773,366.944 C158.9843,367.651 160.6913,368.358 162.3983,369.065 C162.6913,356.656 163.0923,342.677 171.1353,332.464 C175.3443,327.119 181.2643,323.529 187.2383,320.471 C193.9713,317.026 200.9083,313.955 207.7563,310.744 C216.1503,306.807 224.5443,302.871 232.9383,298.934 C235.2973,297.829 234.6113,294.029 232.2223,293.452 C213.2163,288.861 191.7003,294.619 178.3553,309.146 C179.9253,310.358 181.4963,311.57 183.0673,312.782 C187.3403,306.755 191.7383,300.816 196.2913,294.998 C198.5703,292.085 200.8843,289.198 203.2303,286.339 C205.2413,283.887 207.2103,281.125 209.7563,279.188 C212.4153,277.166 215.5723,276.856 218.8103,277.006 C222.5143,277.176 226.2183,277.663 229.9083,278.023 C237.6213,278.777 245.3343,279.53 253.0473,280.284 C255.1593,280.49 256.2443,278.213 255.9403,276.486 C254.6983,269.438 248.6943,264.5 242.3203,262.04 C234.3603,258.966 225.4663,260.02 217.2183,261.033 C218.0823,262.538 218.9453,264.043 219.8093,265.548 C226.7843,254.989 239.1313,248.241 251.6263,246.981 C264.4563,245.688 277.2853,250.115 286.5203,259.149 C291.5093,264.029 295.2213,270.03 297.0243,276.79 C298.0193,280.517 303.8083,278.936 302.8103,275.195" id="Fill-47" fill="#FFF"></path></g></g></g><g id="Painting/Vertical" transform="translate(2206.000000, 628.000000) scale(1 1)"><g id="Painting/Vertical/Painting 3" stroke="none" stroke-width="1" fill="none" fill-rule="evenodd"><g id="Group-9"><polygon id="Fill-1" fill="#E93737" points="0 584 482.999 584 482.999 0 0 0"></polygon><polygon id="Fill-2" fill="#204EB2" points="26.999 553.968 459.846 553.968 459.846 325 26.999 325"></polygon><polygon id="Fill-3" fill="#FC7750" points="27.193 345.903 460.04 345.903 460.04 29 27.193 29"></polygon><g id="Group-8" transform="translate(165.000000, 266.000000)"><path d="M155.9995,78.678 C155.9995,79.114 155.9995,79.564 155.9865,80 L0.0135,80 C-0.0005,79.564 -0.0005,79.114 -0.0005,78.678 C-0.0005,35.606 34.9285,0.678 77.9995,0.678 C121.0715,0.678 155.9995,35.606 155.9995,78.678" id="Fill-4" fill="#F9C818"></path><path d="M155.9868,80 C155.2858,122.464 120.6348,156.678 77.9998,156.678 C35.3648,156.678 0.7148,122.464 0.0128,80 L155.9868,80 Z" id="Fill-6" fill="#56ACF6"></path></g></g></g></g><rect id="Rectangle" fill="#EECCDC" x="1024" y="1032" width="696" height="79" rx="39.5"></rect><g id="Small Objects" transform="translate(1123.000000, 102.000000) scale(1 1)"><defs><polygon id="small-objectswatering-can-path-1" points="0 0.172023512 464.7708 0.172023512 464.7708 361 0 361"></polygon></defs><g id="Small Objects/Watering Can" stroke="none" stroke-width="1" fill="none" fill-rule="evenodd"><g id="Group-6" transform="translate(238.500000, 715.000000) scale(-1, 1) rotate(-50.000000) translate(-238.500000, -715.000000) translate(6.000000, 534.000000)"><g id="Group-3" transform="translate(0.000000, 0.829000)"><mask id="small-objectswatering-can-mask-2" fill="#fff"><use xlink:href="#small-objectswatering-can-path-1"></use></mask><g id="Clip-2"></g><path d="M39.2678,152.3477 C28.3248,139.1177 30.1798,119.5187 43.4178,108.5697 L131.5878,35.6437 C142.8378,26.3387 159.5008,27.9087 168.8068,39.1597 L190.6098,65.5207 L58.1018,175.1187 L39.2678,152.3477 Z M444.6488,268.4187 C444.6488,268.4187 262.4748,321.3897 221.7048,333.1787 C189.2088,342.5767 180.2968,327.3927 178.0188,320.8407 L342.4458,184.8437 C342.6788,184.7817 342.8798,184.6787 343.0488,184.5387 C348.0198,180.4277 324.9358,144.3287 291.5068,103.9117 C258.7338,64.2887 228.1748,35.2167 222.2968,37.9497 L221.9658,37.5477 L208.3188,48.8357 L179.1218,13.5357 C166.1518,-2.1453 142.9208,-4.3433 127.2398,8.6257 L15.7148,100.8687 C-2.7252,116.1197 -5.3122,143.4487 9.9468,161.8967 L35.5548,192.8587 C14.1898,217.2507 13.0578,254.2127 34.3898,280.0037 L69.9158,322.9557 C91.8278,349.4487 129.7538,354.8697 157.9818,336.7657 C178.6328,370.6467 226.5248,359.1047 226.5248,359.1047 L464.7708,290.3307 L444.6488,268.4187 Z" id="Fill-1" fill="#F6CBC3" mask="url(#small-objectswatering-can-mask-2)"></path></g><polygon id="Fill-4" fill="#E93737" points="190.6101 66.3496 58.1021 175.9476 57.1011 174.7376 189.6101 65.1396"></polygon></g></g></g><g id="Tall Vase Plant" transform="translate(4012.000000, 650.000000) scale(1.0314606741573034 1)"><g id="Tall Vase Plant/Plant 1" stroke="none" stroke-width="1" fill="none" fill-rule="evenodd"><g id="Tall-Vase-Plant-2" transform="translate(187.000000, 0.000000)"><path d="M363.574946,1694.09031 C363.278946,1693.04531 333.884946,1587.56731 327.939946,1416.25731 C325.843946,1355.84731 326.862946,1294.44331 330.965946,1232.68031 C321.359946,1031.85631 284.864946,826.072308 284.440946,823.705308 L292.315946,822.295308 C292.700946,824.446308 322.797946,994.128308 335.598946,1175.88231 C337.744946,1153.68531 340.285946,1131.46731 343.220946,1109.25431 C360.254946,980.318308 390.672946,851.223308 433.627946,725.555308 L621.576946,175.706308 L629.147946,178.294308 L441.198946,728.143308 C398.412946,853.312308 368.116946,981.889308 351.151946,1110.30231 C345.752946,1151.16731 341.692946,1192.04331 338.977946,1232.76731 C340.427946,1263.19531 341.261946,1293.52031 341.261946,1323.00031 C341.261946,1546.91031 371.036946,1690.74831 371.337946,1692.17431 L363.574946,1694.09031 Z" id="Fill-20" fill="#0A4343"></path><path d="M186.160346,598.463908 C186.160346,598.463908 158.272346,521.825908 177.409346,430.044908 C196.546346,338.263908 136.404346,253.107908 158.282346,181.742908 C180.160346,110.377908 220.119346,4.77990842 220.119346,4.77990842 C220.119346,4.77990842 316.629346,-23.6940916 350.027346,58.3509084 C383.425346,140.395908 451.034346,158.369908 444.456346,245.050908 C437.879346,331.730908 436.161346,357.385908 470.848346,403.140908 C505.536346,448.897908 446.327346,652.473908 469.398346,753.827908 C492.469346,855.181908 186.160346,598.463908 186.160346,598.463908" id="Fill-21" fill="#F9C818"></path><path d="M220.119846,4.78000842 C220.119846,4.78000842 288.264846,95.3850084 311.303846,300.358008 C334.342846,505.330008 360.093846,548.993008 347.519846,714.478008 C343.397846,725.121008 186.160846,598.464008 186.160846,598.464008 C186.160846,598.464008 160.455846,538.690008 164.643846,480.310008 C168.832846,421.929008 187.333846,366.134008 161.012846,288.351008 C134.691846,210.569008 147.358846,165.616008 220.119846,4.78000842" id="Fill-22" fill="#F9DC4A"></path><path d="M391.740946,538.722908 C391.740946,538.722908 414.831946,460.863908 485.352946,397.440908 C555.873946,334.016908 557.741946,230.955908 618.286946,185.612908 C678.831946,140.269908 774.608946,77.4829084 774.608946,77.4829084 C774.608946,77.4829084 870.391946,109.216908 848.562946,194.579908 C826.732946,279.941908 871.146946,332.865908 813.925946,399.289908 C756.703946,465.713908 739.955946,485.503908 740.886946,542.226908 C741.818946,598.949908 571.719946,730.112908 529.913946,825.241908 C488.106946,920.371908 391.740946,538.722908 391.740946,538.722908" id="Fill-23" fill="#FC7750"></path><path d="M774.609615,77.4824084 C774.609615,77.4824084 776.010646,189.497408 672.190646,368.475408 C568.369646,547.453408 563.261646,597.409408 454.003646,724.212408 C444.273646,730.487408 391.740646,538.722408 391.740646,538.722408 C391.740646,538.722408 406.525646,475.753408 444.867646,430.878408 C483.209646,386.003408 531.684646,351.345408 556.738646,273.449408 C581.793646,195.553408 619.021646,166.360408 774.609615,77.4824084" id="Fill-24" fill="#FEA78D"></path><path d="M453.933846,543.670208 C453.933846,543.670208 489.336846,550.470208 488.084846,618.643208 C486.833846,686.815208 481.405846,982.525208 481.405846,982.525208 L365.444846,984.100208 C365.444846,984.100208 331.206846,879.900208 269.515846,845.199208 C207.823846,810.498208 358.914846,558.885208 358.914846,558.885208 C358.914846,558.885208 434.303846,526.510208 453.933846,543.670208" id="Fill-25" fill="#0A4343"></path><path d="M63.5138457,522.875208 C63.5138457,522.875208 33.7238457,549.824208 40.7518457,608.395208 C47.7798457,666.966208 58.0798457,683.083208 32.7388457,739.333208 C7.39784571,795.584208 -10.0591543,931.675208 64.7998457,1064.01921 C64.7998457,1064.01921 146.625846,1088.43421 189.867846,1007.68921 C233.110846,926.945208 228.022846,898.518208 298.475846,863.403208 C368.928846,828.287208 329.639846,625.696208 375.873846,585.741208 C422.106846,545.787208 440.946846,538.136208 440.946846,538.136208 L63.5138457,522.875208 Z" id="Fill-26" fill="#1BC0D7"></path><path d="M63.5138457,522.875208 C63.5138457,522.875208 29.5088457,541.782208 40.7518457,608.395208 C51.9948457,675.009208 38.9588457,672.130208 6.90484571,788.490208 C-25.1491543,904.850208 64.7998457,1064.01921 64.7998457,1064.01921 C64.7998457,1064.01921 73.2028457,911.833208 119.034846,825.818208 C164.867846,739.804208 155.705846,557.432208 213.566846,530.404208 L63.5138457,522.875208 Z" id="Fill-27" fill="#237978"></path><path d="M209.399246,2347.00001 L780.267246,2347.00001 C879.678501,2347.00001 960.267246,2266.41126 960.267246,2167.00001 L960.267246,1345.00001 L960.267246,1345.00001 L29.3992457,1345.00001 L29.3992457,2167.00001 C29.3992457,2266.41126 109.987991,2347.00001 209.399246,2347.00001 Z" id="Fill-28" fill="#56ACF6"></path></g></g></g><g id="Tall Vase Plant" transform="translate(0.000000, 650.000000) scale(1.0314606741573034 1)"><g id="Tall Vase Plant/Plant 1" stroke="none" stroke-width="1" fill="none" fill-rule="evenodd"><g id="Tall-Vase-Plant-2" transform="translate(187.000000, 0.000000)"><path d="M363.574946,1694.09031 C363.278946,1693.04531 333.884946,1587.56731 327.939946,1416.25731 C325.843946,1355.84731 326.862946,1294.44331 330.965946,1232.68031 C321.359946,1031.85631 284.864946,826.072308 284.440946,823.705308 L292.315946,822.295308 C292.700946,824.446308 322.797946,994.128308 335.598946,1175.88231 C337.744946,1153.68531 340.285946,1131.46731 343.220946,1109.25431 C360.254946,980.318308 390.672946,851.223308 433.627946,725.555308 L621.576946,175.706308 L629.147946,178.294308 L441.198946,728.143308 C398.412946,853.312308 368.116946,981.889308 351.151946,1110.30231 C345.752946,1151.16731 341.692946,1192.04331 338.977946,1232.76731 C340.427946,1263.19531 341.261946,1293.52031 341.261946,1323.00031 C341.261946,1546.91031 371.036946,1690.74831 371.337946,1692.17431 L363.574946,1694.09031 Z" id="Fill-20" fill="#0A4343"></path><path d="M186.160346,598.463908 C186.160346,598.463908 158.272346,521.825908 177.409346,430.044908 C196.546346,338.263908 136.404346,253.107908 158.282346,181.742908 C180.160346,110.377908 220.119346,4.77990842 220.119346,4.77990842 C220.119346,4.77990842 316.629346,-23.6940916 350.027346,58.3509084 C383.425346,140.395908 451.034346,158.369908 444.456346,245.050908 C437.879346,331.730908 436.161346,357.385908 470.848346,403.140908 C505.536346,448.897908 446.327346,652.473908 469.398346,753.827908 C492.469346,855.181908 186.160346,598.463908 186.160346,598.463908" id="Fill-21" fill="#F9C818"></path><path d="M220.119846,4.78000842 C220.119846,4.78000842 288.264846,95.3850084 311.303846,300.358008 C334.342846,505.330008 360.093846,548.993008 347.519846,714.478008 C343.397846,725.121008 186.160846,598.464008 186.160846,598.464008 C186.160846,598.464008 160.455846,538.690008 164.643846,480.310008 C168.832846,421.929008 187.333846,366.134008 161.012846,288.351008 C134.691846,210.569008 147.358846,165.616008 220.119846,4.78000842" id="Fill-22" fill="#F9DC4A"></path><path d="M391.740946,538.722908 C391.740946,538.722908 414.831946,460.863908 485.352946,397.440908 C555.873946,334.016908 557.741946,230.955908 618.286946,185.612908 C678.831946,140.269908 774.608946,77.4829084 774.608946,77.4829084 C774.608946,77.4829084 870.391946,109.216908 848.562946,194.579908 C826.732946,279.941908 871.146946,332.865908 813.925946,399.289908 C756.703946,465.713908 739.955946,485.503908 740.886946,542.226908 C741.818946,598.949908 571.719946,730.112908 529.913946,825.241908 C488.106946,920.371908 391.740946,538.722908 391.740946,538.722908" id="Fill-23" fill="#FC7750"></path><path d="M774.609615,77.4824084 C774.609615,77.4824084 776.010646,189.497408 672.190646,368.475408 C568.369646,547.453408 563.261646,597.409408 454.003646,724.212408 C444.273646,730.487408 391.740646,538.722408 391.740646,538.722408 C391.740646,538.722408 406.525646,475.753408 444.867646,430.878408 C483.209646,386.003408 531.684646,351.345408 556.738646,273.449408 C581.793646,195.553408 619.021646,166.360408 774.609615,77.4824084" id="Fill-24" fill="#FEA78D"></path><path d="M453.933846,543.670208 C453.933846,543.670208 489.336846,550.470208 488.084846,618.643208 C486.833846,686.815208 481.405846,982.525208 481.405846,982.525208 L365.444846,984.100208 C365.444846,984.100208 331.206846,879.900208 269.515846,845.199208 C207.823846,810.498208 358.914846,558.885208 358.914846,558.885208 C358.914846,558.885208 434.303846,526.510208 453.933846,543.670208" id="Fill-25" fill="#0A4343"></path><path d="M63.5138457,522.875208 C63.5138457,522.875208 33.7238457,549.824208 40.7518457,608.395208 C47.7798457,666.966208 58.0798457,683.083208 32.7388457,739.333208 C7.39784571,795.584208 -10.0591543,931.675208 64.7998457,1064.01921 C64.7998457,1064.01921 146.625846,1088.43421 189.867846,1007.68921 C233.110846,926.945208 228.022846,898.518208 298.475846,863.403208 C368.928846,828.287208 329.639846,625.696208 375.873846,585.741208 C422.106846,545.787208 440.946846,538.136208 440.946846,538.136208 L63.5138457,522.875208 Z" id="Fill-26" fill="#1BC0D7"></path><path d="M63.5138457,522.875208 C63.5138457,522.875208 29.5088457,541.782208 40.7518457,608.395208 C51.9948457,675.009208 38.9588457,672.130208 6.90484571,788.490208 C-25.1491543,904.850208 64.7998457,1064.01921 64.7998457,1064.01921 C64.7998457,1064.01921 73.2028457,911.833208 119.034846,825.818208 C164.867846,739.804208 155.705846,557.432208 213.566846,530.404208 L63.5138457,522.875208 Z" id="Fill-27" fill="#237978"></path><path d="M209.399246,2347.00001 L780.267246,2347.00001 C879.678501,2347.00001 960.267246,2266.41126 960.267246,2167.00001 L960.267246,1345.00001 L960.267246,1345.00001 L29.3992457,1345.00001 L29.3992457,2167.00001 C29.3992457,2266.41126 109.987991,2347.00001 209.399246,2347.00001 Z" id="Fill-28" fill="#56ACF6"></path></g></g></g><path d="M5947,2997 L4944,2997 C4897.608,2997 4860,2959.392 4860,2913 L4860,2885 C4860,2838.608 4897.608,2801 4944,2801 L5947,2801 C5993.392,2801 6031,2838.608 6031,2885 L6031,2913 C6031,2959.392 5993.392,2997 5947,2997" id="Object-1" fill="#E93737"></path><g id="Sofa" transform="translate(820.838267, 1386.920000)"><path d="M3620.65393,994 L247.288933,994 C199.340933,994 160.470933,955.131 160.470933,907.183 L160.470933,86.817 C160.470933,38.869 199.340933,0 247.288933,0 L3620.65393,0 C3668.60193,0 3707.47093,38.869 3707.47093,86.817 L3707.47093,907.183 C3707.47093,955.131 3668.60193,994 3620.65393,994" id="Fill-50" fill="#0A4343"></path><polygon id="Fill-51" fill="#237978" points="376.471733 1113 3429.47173 1113 3429.47173 788 376.471733 788"></polygon><polygon id="Fill-52" fill="#0A4343" points="273 1354.538 196 1609.538 257 1605.538 443.278 1354"></polygon><polygon id="Fill-53" fill="#0A4343" points="3589.278 1354.538 3666.278 1609.538 3605.278 1605.538 3419 1354"></polygon><path d="M461.471333,406 C461.471333,406 471.471333,395 585.471333,418 C699.471333,441 870.308333,382.639 894.890333,400.319 C919.471333,418 915.471333,758 980.471333,845 C1045.47133,932 817.471333,805 607.471333,894 C397.471333,983 567.471333,633 567.471333,633 L461.471333,406 Z" id="Fill-54" fill="#1BC0D7"></path><path d="M339.847733,306.1448 C339.847733,306.1448 305.305733,575.6878 514.604733,830.3148 C723.902733,1084.9408 640.393733,632.6578 519.106733,459.7448 C397.820733,286.8308 341.897733,238.3278 339.847733,306.1448" id="Fill-55" fill="#EECCDC"></path><path d="M3474.47133,694 C3472.44933,688.351 3464.47133,607 3469.47133,505 C3474.47133,403 3323.08033,520.521 3113.47133,483 C2995.12233,461.815 2812.92733,420.795 2845.47133,517 C2879.45933,617.473 2794.47133,793 2854.47133,802 C2914.47133,811 3231.47133,753 3370.47133,815 C3509.47133,877 3503.47133,775 3474.47133,694" id="Fill-56" fill="#1BC0D7"></path><path d="M3.04353319,616.7837 L261.576533,1327.3087 C268.721533,1346.9477 287.360533,1360.0417 308.258533,1360.1047 L3553.77353,1369.89293 C3575.11653,1369.9567 3594.13153,1356.4237 3601.06153,1336.2367 L3855.83453,594.0317 C3866.64053,562.5527 3844.14453,529.5297 3810.89453,528.0627 L3569.89853,517.4307 C3550.18653,516.5607 3531.81753,527.4027 3523.05253,545.0807 L3314.17053,966.3687 C3305.77653,983.2997 3288.52753,994.0257 3269.63053,994.0677 L593.174533,999.9307 C573.830533,999.9727 556.208533,988.8177 547.972533,971.3147 L359.389533,570.5757 C350.938533,552.6177 332.637533,541.3857 312.799533,541.9817 L48.3795332,549.9287 C14.4375332,550.9487 -8.56746681,584.8737 3.04353319,616.7837" id="Fill-57" fill="#165C5D"></path></g></g><g id="Pet" transform="translate(5768.214000, 2258.420000) scale(1 1)"><g id="Pet/Cat 2" stroke="none" stroke-width="1" fill="none" fill-rule="evenodd"><g id="Group-63" transform="translate(332.000000, 597.000000)"><path d="M648.2051,190.8197 C648.2051,190.8197 658.4661,156.3457 706.0721,130.9017 L704.0191,178.0977 L648.2051,190.8197 Z" id="Fill-1" fill="#EECCDC"></path><path d="M703.9199,134.3619 C668.5029,154.2749 655.2259,179.1429 651.4089,188.0379 L702.0879,176.4869 L703.9199,134.3619 Z M645.3119,193.5309 L646.2879,190.2489 C646.7169,188.8089 657.3369,154.6819 705.1299,129.1369 L708.2229,127.4839 L705.9509,179.7079 L645.3119,193.5309 Z" id="Fill-3" fill="#EC7070"></path><path d="M678.5752,188.7677 C678.5752,188.7677 686.5392,152.4257 704.5962,133.1367 L702.6532,184.7607 L678.5752,188.7677 Z" id="Fill-5" fill="#EC7070"></path><path d="M716.3359,204.6298 C716.3359,204.6298 726.5959,170.1568 774.2019,144.7118 L771.7309,205.1158 L716.3359,204.6298 Z" id="Fill-7" fill="#EECCDC"></path><path d="M719.207,202.6549 L769.811,203.0989 L772.059,148.1669 C735.587,168.6759 722.554,194.5449 719.207,202.6549 L719.207,202.6549 Z M773.649,207.1329 L713.661,206.6059 L714.419,204.0589 C714.848,202.6189 725.467,168.4919 773.26,142.9479 L776.344,141.2989 L773.649,207.1329 Z" id="Fill-9" fill="#EC7070"></path><path d="M746.7051,202.5778 C746.7051,202.5778 754.6701,166.2358 772.7271,146.9468 L770.7841,198.5708 L746.7051,202.5778 Z" id="Fill-11" fill="#EC7070"></path><path d="M827.1758,339.8773 C819.7418,360.4543 803.7398,363.3133 803.7398,363.3133 L694.5638,366.1713 L618.0908,275.4913 L599.5608,389.7003 L84.1388,389.7003 L74.3958,352.8853 C74.3958,352.8853 -10.0692,113.5813 110.1278,36.6943 C230.3168,-40.1837 350.5148,15.0433 425.2278,98.4173 C489.6308,170.2973 595.0698,205.1583 622.9458,213.4043 C635.5218,195.1963 656.9608,178.1203 693.4128,175.8283 C775.1548,170.6773 806.5988,232.9833 803.7398,280.4293 C803.7398,280.4293 802.0238,289.0053 811.7408,296.4313 C821.4588,303.8653 834.6108,319.3003 827.1758,339.8773" id="Fill-13" fill="#EECCDC"></path><path d="M545.9434,249.452 C545.9434,249.452 640.9294,248.457 681.2124,296.199 C721.4944,343.941 721.3074,343.505 731.1154,343.505 C740.9234,343.505 771.6554,343.069 771.6554,343.069 L761.6364,391.945 L571.2454,389.606 L545.9434,249.452 Z" id="Fill-15" fill="#EECCDC"></path><path d="M866.8125,392.609 L841.6655,392.609 C827.9425,392.609 816.8185,381.485 816.8185,367.763 C816.8185,354.041 827.9425,342.917 841.6655,342.917 L866.8125,342.917 C880.5345,342.917 891.6585,354.041 891.6585,367.763 C891.6585,381.485 880.5345,392.609 866.8125,392.609" id="Fill-17" fill="#FCEBEC"></path><path d="M841.665,344.9166 C829.067,344.9166 818.818,355.1656 818.818,367.7626 C818.818,380.3606 829.067,390.6086 841.665,390.6086 L866.812,390.6086 C879.409,390.6086 889.658,380.3606 889.658,367.7626 C889.658,355.1656 879.409,344.9166 866.812,344.9166 L841.665,344.9166 Z M866.812,394.6086 L841.665,394.6086 C826.861,394.6086 814.818,382.5656 814.818,367.7626 C814.818,352.9596 826.861,340.9166 841.665,340.9166 L866.812,340.9166 C881.615,340.9166 893.658,352.9596 893.658,367.7626 C893.658,382.5656 881.615,394.6086 866.812,394.6086 L866.812,394.6086 Z" id="Fill-19" fill="#EC7070"></path><path d="M856.7295,359.2894 C856.7295,359.2894 864.4665,362.7064 865.7555,371.5924 C867.0455,380.4774 866.4195,392.5634 866.4195,392.5634" id="Fill-21" fill="#FCEBEC"></path><path d="M868.417,392.6666 L864.423,392.4596 C864.429,392.3406 865.022,380.4626 863.776,371.8796 C862.67,364.2496 856.189,361.2396 855.914,361.1156 L857.537,357.4596 C857.895,357.6176 866.304,361.4376 867.735,371.3046 C869.038,380.2816 868.443,392.1656 868.417,392.6666" id="Fill-23" fill="#EC7070"></path><path d="M550.4541,250.3736 C550.4541,250.3736 635.9441,247.7516 674.7551,289.1856 C713.5661,330.6186 719.8601,344.2556 738.2171,342.6816 C756.5741,341.1086 785.9441,343.7306 785.9441,343.7306 L768.1121,360.5136" id="Fill-25" fill="#EECCDC"></path><path d="M769.4834,361.9703 L766.7414,359.0573 L781.2854,345.3693 C772.3784,344.7173 752.1254,343.4973 738.3874,344.6743 C723.2354,345.9693 715.6744,337.4933 695.4184,314.8403 C689.5294,308.2553 682.2024,300.0613 673.2954,290.5523 C635.5574,250.2643 551.3614,252.3473 550.5154,252.3723 L550.3924,248.3743 C550.6114,248.3673 572.2684,247.7643 598.3904,252.2713 C622.6184,256.4503 655.7874,266.0103 676.2144,287.8183 C685.1534,297.3603 692.4984,305.5743 698.3994,312.1733 C718.2254,334.3453 724.9094,341.8163 738.0464,340.6893 C756.3634,339.1183 784.9154,341.6313 786.1224,341.7383 L790.5584,342.1353 L769.4834,361.9703 Z" id="Fill-27" fill="#EC7070"></path><polygon id="Fill-29" fill="#EC7070" points="676.582 311.4618 676.514 307.4618 738.622 306.3978 682.614 272.5078 684.685 269.0848 752.565 310.1598"></polygon><path d="M694.2139,339.9545 C694.3909,339.7955 694.7249,339.3195 694.7249,338.6585 L690.7249,338.6585 C690.7249,337.0785 690.7249,336.7505 718.1779,321.2825 C731.2509,313.9165 744.4949,306.6005 744.6269,306.5275 L746.5609,310.0295 C727.4459,320.5855 696.3319,338.0435 694.2139,339.9545" id="Fill-31" fill="#EC7070"></path><path d="M820.9346,352.1913 C806.5396,372.8783 773.3276,345.7723 773.3276,345.7723 C773.3276,345.7723 768.3366,340.5203 773.0656,327.1153 C777.7926,313.7103 794.3526,311.8753 794.3526,311.8753 L825.3576,312.3993 L816.6976,317.9553 L827.0486,319.0883 C827.0486,319.0883 835.3296,331.4963 820.9346,352.1913" id="Fill-33" fill="#EC7070"></path><path d="M791.2773,391.9454 L761.6363,391.9454 C747.9143,391.9454 736.7903,380.8214 736.7903,367.0994 C736.7903,353.3774 747.9143,342.2534 761.6363,342.2534 L791.2773,342.2534 C804.9993,342.2534 816.1233,353.3774 816.1233,367.0994 C816.1233,380.8214 804.9993,391.9454 791.2773,391.9454" id="Fill-35" fill="#FCEBEC"></path><path d="M761.6367,344.253 C749.0387,344.253 738.7897,354.502 738.7897,367.099 C738.7897,379.697 749.0387,389.945 761.6367,389.945 L791.2777,389.945 C803.8737,389.945 814.1227,379.697 814.1227,367.099 C814.1227,354.502 803.8737,344.253 791.2777,344.253 L761.6367,344.253 Z M791.2777,393.945 L761.6367,393.945 C746.8327,393.945 734.7897,381.902 734.7897,367.099 C734.7897,352.296 746.8327,340.253 761.6367,340.253 L791.2777,340.253 C806.0797,340.253 818.1227,352.296 818.1227,367.099 C818.1227,381.902 806.0797,393.945 791.2777,393.945 L791.2777,393.945 Z" id="Fill-37" fill="#EC7070"></path><path d="M779.0967,358.6258 C779.0967,358.6258 787.2987,362.0428 788.6657,370.9288 C790.0337,379.8138 789.3697,391.8998 789.3697,391.8998" id="Fill-39" fill="#FCEBEC"></path><path d="M791.3672,392.0091 L787.3732,391.7901 C787.3802,391.6711 788.0082,379.8041 786.6892,371.2331 C785.5162,363.6121 778.6142,360.5941 778.3202,360.4691 L779.8662,356.7801 C780.2432,356.9371 789.1222,360.7431 790.6422,370.6241 C792.0252,379.6131 791.3942,391.5071 791.3672,392.0091" id="Fill-41" fill="#EC7070"></path><path d="M804.2734,311.7579 C804.2734,311.7579 802.5664,331.5819 828.5554,335.4709 C828.5554,335.4709 831.1164,329.4009 828.4604,320.3899 C825.8044,311.3789 825.0454,311.9479 825.0454,311.9479 L804.2734,311.7579 Z" id="Fill-43" fill="#000"></path><path d="M484.7031,343.5353 C484.2551,343.5283 439.6641,342.8193 418.1911,341.4343 C405.9851,340.6463 386.4481,306.9053 355.7221,251.4283 C335.1621,214.3063 313.9011,175.9203 296.5511,155.4723 C258.3911,110.4983 159.7801,101.7243 158.7891,101.6413 L159.1231,97.6553 C159.3751,97.6763 184.6331,99.8573 214.3441,107.6763 C241.8901,114.9253 279.0411,128.6523 299.6011,152.8843 C317.2081,173.6353 338.5661,212.1973 359.2211,249.4903 C382.9781,292.3843 407.5441,336.7393 418.4491,337.4423 C439.8241,338.8213 484.3181,339.5283 484.7651,339.5353 L484.7031,343.5353 Z" id="Fill-45" fill="#EC7070"></path><path d="M402.5869,333.5004 C390.6949,345.5944 372.1489,355.1684 350.9379,362.7204 L323.1119,296.9384 C338.7079,292.5244 347.9599,289.2934 347.9599,289.2934 C348.4589,269.4104 370.1019,260.2164 370.1019,260.2164 C395.9219,245.2214 450.8869,284.3624 402.5869,333.5004" id="Fill-47" fill="#FCEBEC"></path><path d="M325.835,298.2425 L352.042,360.1975 C374.258,352.1075 390.777,342.6585 401.161,332.0985 L401.16,332.0985 C429.639,303.1265 418.636,281.8635 412.584,274.0665 C402.082,260.5375 383.088,254.9875 371.106,261.9465 L370.884,262.0575 C370.681,262.1445 350.419,271.0115 349.959,289.3435 L349.925,290.7255 L348.619,291.1815 C348.53,291.2125 340.009,294.1775 325.835,298.2425 L325.835,298.2425 Z M349.831,365.2375 L320.388,295.6315 L322.567,295.0145 C334.659,291.5915 342.994,288.8585 346.03,287.8375 C346.636,279.6665 350.719,272.0715 357.901,265.7925 C363.165,261.1925 368.331,258.8115 369.199,258.4285 C382.826,250.6065 404.109,256.6255 415.743,271.6135 C429.69,289.5815 425.306,313.2405 404.014,334.9025 L404.013,334.9025 C392.927,346.1775 375.296,356.1705 351.608,364.6045 L349.831,365.2375 Z" id="Fill-49" fill="#EC7070"></path><path d="M350.9375,362.7208 C285.9755,385.8688 196.0465,390.1318 196.0465,390.1318 L18.6525,389.3028 C18.6525,389.3028 2.0005,384.3038 2.0005,360.1498 C2.0005,336.0038 26.9825,330.1678 26.9825,330.1678 C26.9825,330.1678 103.8195,325.2968 187.6155,320.6708 C242.2755,317.6508 293.8575,305.2188 323.1125,296.9388 L350.9375,362.7208 Z" id="Fill-51" fill="#EECCDC"></path><path d="M18.9834,387.3041 L196.0034,388.1311 C198.5554,388.0041 285.1134,383.4921 348.2664,361.5411 L321.9574,299.3421 C294.7274,306.9671 242.5884,319.6371 187.7254,322.6681 C106.8284,327.1331 31.4714,331.8881 27.2864,332.1531 C25.0994,332.7061 4.0004,338.6101 4.0004,360.1501 C4.0004,381.0921 16.9304,386.5681 18.9834,387.3041 L18.9834,387.3041 Z M196.0894,392.1321 L18.3544,391.3011 L18.0774,391.2181 C17.8864,391.1611 13.3674,389.7671 8.8944,385.1801 C4.8374,381.0201 0.0004,373.3001 0.0004,360.1501 C0.0004,334.7111 26.2614,328.2831 26.5274,328.2211 L26.8554,328.1721 C27.6244,328.1231 104.6594,323.2471 187.5044,318.6741 C243.1464,315.6001 296.0084,302.5311 322.5674,295.0141 L324.2664,294.5331 L353.6054,363.8931 L351.6084,364.6051 C287.1134,387.5871 197.0444,392.0861 196.1414,392.1291 L196.0894,392.1321 Z" id="Fill-53" fill="#EC7070"></path><path d="M492.4951,387.3898 L462.8531,387.3898 C449.1321,387.3898 438.0081,376.2658 438.0081,362.5438 C438.0081,348.8218 449.1321,337.6978 462.8531,337.6978 L492.4951,337.6978 C506.2171,337.6978 517.3411,348.8218 517.3411,362.5438 C517.3411,376.2658 506.2171,387.3898 492.4951,387.3898" id="Fill-55" fill="#FCEBEC"></path><path d="M462.8535,339.6974 C450.2565,339.6974 440.0075,349.9464 440.0075,362.5434 C440.0075,375.1414 450.2565,385.3894 462.8535,385.3894 L492.4955,385.3894 C505.0915,385.3894 515.3405,375.1414 515.3405,362.5434 C515.3405,349.9464 505.0915,339.6974 492.4955,339.6974 L462.8535,339.6974 Z M492.4955,389.3894 L462.8535,389.3894 C448.0505,389.3894 436.0075,377.3464 436.0075,362.5434 C436.0075,347.7404 448.0505,335.6974 462.8535,335.6974 L492.4955,335.6974 C507.2975,335.6974 519.3405,347.7404 519.3405,362.5434 C519.3405,377.3464 507.2975,389.3894 492.4955,389.3894 L492.4955,389.3894 Z" id="Fill-57" fill="#EC7070"></path><path d="M480.3145,354.0702 C480.3145,354.0702 488.5165,357.4872 489.8835,366.3732 C491.2505,375.2582 490.5875,387.3442 490.5875,387.3442" id="Fill-59" fill="#FCEBEC"></path><path d="M492.585,387.4532 L488.591,387.2342 C488.598,387.1162 489.225,375.2482 487.907,366.6772 C486.734,359.0562 479.832,356.0382 479.538,355.9132 L481.084,352.2242 C481.461,352.3812 490.34,356.1872 491.86,366.0692 C493.242,375.0572 492.612,386.9512 492.585,387.4532" id="Fill-61" fill="#EC7070"></path></g></g></g><g transform="translate(3128.000000, 293.000000) scale(1 1)" id="Master/Character/Sitting On Floor"><defs><polygon id="mastercharactersitting-on-floor-path-1" points="0 0.216 1141.521 0.216 1141.521 422.785934 0 422.785934"></polygon><polygon id="mastercharactersitting-on-floor-path-3" points="0.893394597 0.106 258.492632 0.106 258.492632 218.7317 0.893394597 218.7317"></polygon></defs><g id="Master/Character/Sitting On Floor" stroke="none" stroke-width="1" fill="none" fill-rule="evenodd"><g id="Upper Body" transform="translate(911.000000, 1121.000000) scale(1 1)"><defs><polygon id="upper-bodywith-tablet-path-1" points="0 0.2826 603.923514 0.2826 603.923514 617 0 617"></polygon><polygon id="upper-bodywith-tablet-path-3" points="0.3831 0.682 291.680835 0.682 291.680835 266.8063 0.3831 266.8063"></polygon><polygon id="upper-bodywith-tablet-path-5" points="0.30206309 0.307802676 128.976 0.307802676 128.976 395.282713 0.30206309 395.282713"></polygon></defs><g id="Upper Body/With Tablet" stroke="none" stroke-width="1" fill="none" fill-rule="evenodd"><path d="M571.998058,659 L536,996.203107 C536,996.203107 886.321032,1080.44905 1014.04118,970.264637 L1027,673.410594 C1027,673.410594 875.332686,668.607063 571.998058,659 Z" id="Fill-1" fill="#D60000"></path><path d="M724.954254,220 C724.954254,220 721.26343,301.153386 673.924004,329.799638 C630.972611,355.790794 721.968632,506.610475 819.857852,497.613536 C873.442212,492.688212 886,346.158072 886,346.158072 C886,346.158072 842.733964,337.796917 858.715877,271.819367 L724.954254,220 Z" id="Neck" fill="#f6cbc3"></path><path d="M803.337113,302.515641 C739.876612,294.840687 694.077698,253.11575 687.664652,183.898064 C669.216286,186.83496 664.86504,138.764927 670.003065,123.322958 C675.146083,107.858975 691.933027,116.900812 691.933027,116.900812 C692.862251,114.457234 693.652358,111.898916 694.303348,109.225857 C722.02532,-4.48555283 799.669805,0.0243586862 799.669805,0.0243586862 C942.344355,7.45715716 908.914243,153.120195 900.762895,191.763142 C892.610548,230.410091 864.683894,309.927426 803.337113,302.515641 Z" id="Head" fill="#f6cbc3"></path><g id="Group-32" transform="translate(446.000000, 287.000000)"><path d="M568.3187,480.127 C547.2707,471.554 520.1427,444.422 487.6897,399.486 C463.6237,366.163 445.4267,334.916 445.2467,334.605 L448.7057,332.597 C449.4237,333.834 521.1277,456.586 569.8287,476.422 L568.3187,480.127 Z" id="Fill-1" fill="#864A56"></path><g id="Group-5" transform="translate(0.000000, 38.318000)"><mask id="upper-bodywith-tablet-mask-2" fill="#fff"><use xlink:href="#upper-bodywith-tablet-path-1"></use></mask><g id="Clip-4"></g><path d="M231.9759,0.2826 C231.9759,0.2826 54.2679,17.1086 17.6219,201.6956 C-19.0241,386.2826 -23.4131,604.0096 258.9759,615.2826 C541.3659,626.5546 565.3839,579.0446 565.1799,568.6636 C564.9759,558.2826 569.9759,387.2826 592.9759,257.2826 C615.9759,127.2826 617.9759,57.2826 441.9759,14.2826 C441.9759,14.2826 363.9759,118.2826 231.9759,0.2826" id="Fill-3" fill="#D60000" mask="url(#upper-bodywith-tablet-mask-2)"></path></g><path d="M366.9759,114.6006 L387.9759,18.6006 C387.9759,18.6006 386.9759,2.6006 411.9759,3.6006 C436.9759,4.6006 613.9759,1.6006 613.9759,1.6006 C613.9759,1.6006 627.9759,-0.3994 631.9759,12.6006 C635.9759,25.6006 583.9759,243.6006 583.9759,243.6006 C583.9759,243.6006 584.9759,258.6006 567.9759,258.6006 C550.9759,258.6006 341.9759,266.6006 341.9759,266.6006 L366.9759,114.6006" id="Fill-6" fill="#204EB2"></path><g id="Group-10" transform="translate(341.000000, 0.318000)"><mask id="upper-bodywith-tablet-mask-4" fill="#fff"><use xlink:href="#upper-bodywith-tablet-path-3"></use></mask><g id="Clip-9"></g><path d="M26.4671,114.3763 L1.5691,265.7593 C14.1091,265.2803 210.6151,257.7823 226.9761,257.7823 C232.2021,257.7823 236.2061,256.3393 238.8741,253.4913 C242.8161,249.2863 242.4811,243.3743 242.4771,243.3153 L242.4721,243.2403 L242.4891,243.1663 C243.0091,240.9873 294.4121,25.1513 290.4981,12.4303 C286.6721,-0.0017 273.5981,1.6983 273.0461,1.7773 C271.2151,1.8133 95.6821,4.7733 70.9561,3.7823 C61.7981,3.4153 55.1511,5.2793 51.1871,9.3203 C47.2331,13.3523 47.4721,18.2033 47.4751,18.2523 L47.4791,18.3213 L47.4641,18.3893 L26.4671,114.3763 Z M0.3831,266.8063 L25.4881,114.1763 L46.4731,18.2403 C46.4471,17.5633 46.4201,12.7653 50.4561,8.6373 C54.6241,4.3743 61.5531,2.4163 70.9951,2.7823 C95.6971,3.7723 271.1971,0.8123 272.9671,0.7823 C273.0491,0.7663 287.3771,-1.1177 291.4531,12.1353 C295.4381,25.0843 245.8361,233.4443 243.4791,243.3273 C243.5161,244.1003 243.6431,249.8583 239.6131,254.1673 C236.7471,257.2303 232.4951,258.7823 226.9761,258.7823 C210.1801,258.7823 3.0851,266.7023 0.9951,266.7823 L0.3831,266.8063 Z" id="Fill-8" fill="#000" mask="url(#upper-bodywith-tablet-mask-4)"></path></g><path d="M373.9759,121.6006 L394.9759,25.6006 C394.9759,25.6006 393.9759,9.6006 418.9759,10.6006 C443.9759,11.6006 620.9759,8.6006 620.9759,8.6006 C620.9759,8.6006 634.9759,6.6006 638.9759,19.6006 C642.9759,32.6006 590.9759,250.6006 590.9759,250.6006 C590.9759,250.6006 591.9759,265.6006 574.9759,265.6006 C557.9759,265.6006 348.9759,273.6006 348.9759,273.6006 L373.9759,121.6006" id="Fill-11" fill="#56ACF6"></path><path d="M265.1771,272.1289 C265.1771,272.1289 323.3331,205.8509 339.1951,177.4449 C355.0561,149.0399 355.0561,132.4699 353.7341,119.4509 C352.4121,106.4319 352.4121,91.0459 362.9861,88.6789 C373.5601,86.3119 374.8821,92.2299 376.2031,106.4319 C377.5261,120.6349 376.2031,134.8369 399.9951,126.5529 C423.7861,118.2679 481.9441,98.1479 488.5521,114.7169 C495.1601,131.2869 480.6211,133.6529 480.6211,133.6529 C480.6211,133.6529 491.1961,134.8369 493.8391,143.1219 C496.4831,151.4069 493.8391,157.3249 485.9081,160.8749 C477.9781,164.4259 474.0131,165.6089 474.0131,165.6089 C474.0131,165.6089 489.8731,163.2419 493.8391,175.0779 C497.8041,186.9129 491.1961,192.8309 484.5871,195.1979 C484.5871,195.1979 493.0871,196.5659 495.1601,205.8509 C496.4831,211.7689 488.5521,215.3179 479.3001,218.8689 C466.7921,223.6699 429.0731,224.7869 397.3521,244.9069 C365.6291,265.0279 288.9681,396.4019 250.6381,436.6429 C212.3071,476.8839 173.9761,372.7319 173.9761,372.7319 C173.9761,372.7319 221.5591,312.3699 265.1771,272.1289" id="Fill-13" fill="#f6cbc3"></path><polygon id="Fill-15" fill="#3F1315" points="414.9241 152.8555 414.1451 149.9595 480.2321 132.2055 481.0111 135.1015"></polygon><polygon id="Fill-17" fill="#3F1315" points="414.9241 183.628 414.1451 180.732 480.2321 162.978 481.0111 165.874"></polygon><polygon id="Fill-19" fill="#3F1315" points="422.8538 214.3995 422.0768 211.5035 488.1638 193.7505 488.9408 196.6465"></polygon><g id="Group-23" transform="translate(540.000000, 85.318000)"><mask id="upper-bodywith-tablet-mask-6" fill="#fff"><use xlink:href="#upper-bodywith-tablet-path-5"></use></mask><g id="Clip-22"></g><path d="M33.7708,338.8559 C33.7708,338.8559 43.0228,291.5139 46.9878,232.3359 C50.9538,173.1599 49.6308,147.1219 44.3438,142.3869 C39.0568,137.6529 2.0478,138.8359 2.0478,119.8999 C2.0478,100.9619 28.4838,106.8799 28.4838,106.8799 C28.4838,106.8799 0.7268,102.1459 3.3708,87.9439 C6.0138,73.7409 21.8748,76.1079 21.8748,76.1079 C21.8748,76.1079 -3.2392,71.3739 0.7268,55.9879 C4.6918,40.6019 28.4838,46.5189 28.4838,46.5189 C28.4838,46.5189 6.0138,42.9689 15.2658,27.5829 C24.5178,12.1969 40.3788,21.6649 58.8828,26.3989 C77.3878,31.1329 78.7098,32.3169 80.0318,25.2149 C81.3528,18.1139 78.7098,-0.8231 93.2498,0.3609 C107.7888,1.5439 110.4318,6.2789 110.4318,32.3169 C110.4318,58.3549 114.3968,82.0259 118.3628,105.6969 C122.3278,129.3679 123.6488,156.5889 121.0058,200.3809 C118.3628,244.1719 155.3718,373.1789 89.2838,392.1169 C23.1968,411.0529 33.7708,338.8559 33.7708,338.8559" id="Fill-21" fill="#f6cbc3" mask="url(#upper-bodywith-tablet-mask-6)"></path></g><polygon id="Fill-24" fill="#3F1315" points="601.722 200.3213 562.85 191.9723 563.481 189.0393 602.353 197.3873"></polygon><polygon id="Fill-26" fill="#3F1315" points="600.7884 171.2422 561.9154 162.8922 562.5464 159.9592 601.4194 168.3082"></polygon><polygon id="Fill-28" fill="#3F1315" points="602.4905 139.9629 563.6185 131.6139 564.2495 128.6809 603.1215 137.0289"></polygon><polygon id="Fill-30" fill="#3F1315" points="638.2708 120.876 619.1058 116.733 619.7408 113.802 638.9058 117.944"></polygon></g></g></g><g id="Lower Body/Sitting on Floor" transform="translate(1165.000000, 2062.000000) scale(-1, 1) translate(-1165.000000, -2062.000000) translate(0.000000, 1624.000000) scale(1 1)"><defs><polygon id="lower-bodysitting-on-floorlegs-crossed-1-path-1" points="0 0.216 1141.521 0.216 1141.521 422.785934 0 422.785934"></polygon></defs><g id="Lower Body/Sitting on Floor/Legs Crossed 1" stroke="none" stroke-width="1" fill="none" fill-rule="evenodd"><g id="Group-46" transform="translate(69.000000, 357.000000)"><path d="M583.8821,306.5582 C583.8821,306.5582 541.1281,325.1022 535.9771,317.8902 C530.8261,310.6792 575.1251,355.4942 575.1251,355.4942 L607.0621,337.4642 L583.8821,306.5582 Z" id="Fill-1" fill="#f6cbc3"></path><path d="M583.8821,306.5582 C583.8821,306.5582 541.1281,325.1022 535.9771,317.8902 C530.8261,310.6792 575.1251,355.4942 575.1251,355.4942 L607.0621,337.4642 L583.8821,306.5582 Z" id="Stroke-3" stroke="#000" stroke-width="3"></path><path d="M241.3362,329.2232 C241.3362,329.2232 178.4932,365.7952 228.4582,422.9722 C278.4232,480.1492 455.1052,441.0012 455.1052,441.0012 L459.7412,418.3362 C459.7412,418.3362 282.0292,332.3142 241.3362,329.2232" id="Fill-5" fill="#F0ECEC"></path><path d="M241.3362,329.2232 C241.3362,329.2232 216.6112,334.3732 208.8842,362.7042 C201.1582,391.0362 218.1892,424.0292 243.1552,435.0902 C243.1552,435.0902 211.2912,364.3752 267.2642,335.2092 L241.3362,329.2232 Z" id="Fill-7" fill="#E0D3CC"></path><path d="M261.5242,443.1266 C261.5242,443.1266 284.0902,397.2176 294.3922,398.2476 C304.6942,399.2776 416.2152,405.0666 427.4192,402.9446 L464.3772,417.8206 L457.8422,441.4046 C457.8422,441.4046 320.3452,473.5836 261.5242,443.1266" id="Fill-9" fill="#E7DADA"></path><path d="M291.8167,356.524 C291.8167,356.524 283.5747,416.276 295.4217,416.276 C307.2697,416.276 310.3607,349.312 312.4207,372.492 C314.4817,395.671 316.0267,425.033 323.7537,416.276 C331.4797,407.519 315.5117,342.616 322.2077,360.644 C328.9037,378.673 333.0247,412.67 343.8427,412.155 C354.6597,411.64 339.7217,377.128 345.3877,376.097 C351.0537,375.067 362.3857,420.912 372.1727,415.246 C381.9607,409.58 363.9317,371.977 374.2337,385.884 C384.5357,399.793 387.6267,416.276 396.8987,414.215 C406.1707,412.155 395.8677,394.127 390.2017,385.37 C384.5357,376.613 297.4827,343.13 294.9067,347.252 C292.3317,351.373 291.8167,356.524 291.8167,356.524" id="Fill-11" fill="#F9F9F9"></path><g id="Group-15" transform="translate(0.000000, 0.784000)"><mask id="lower-bodysitting-on-floorlegs-crossed-1-mask-2" fill="#fff"><use xlink:href="#lower-bodysitting-on-floorlegs-crossed-1-path-1"></use></mask><g id="Clip-14"></g><path d="M424.7141,414.4617 C424.7141,414.4617 216.6111,354.1937 119.7711,277.4427 C22.9311,200.6917 -33.2159,126.0017 21.3851,42.0397 C75.9861,-41.9233 204.2481,21.9497 266.0611,49.2507 C327.8741,76.5517 530.5701,115.1607 627.2801,114.9157 C723.9911,114.6697 853.7981,107.4577 921.2771,87.3687 C988.7561,67.2797 1096.4131,36.8887 1129.3811,118.7907 C1162.3471,200.6917 1123.7141,281.0497 1067.0521,308.3497 C1010.3901,335.6497 835.7691,394.3727 746.1411,388.7067 L656.5121,383.0397 C656.5121,383.0397 617.8791,340.2867 628.1811,277.9587 L574.0951,317.1067 C574.0951,317.1067 543.1891,316.5917 531.8561,312.4707 C520.5241,308.3497 457.6811,459.2757 424.7141,414.4617" id="Fill-13" fill="#56ACF6" mask="url(#lower-bodysitting-on-floorlegs-crossed-1-mask-2)"></path></g><path d="M479.8304,422.4576 C479.8304,422.4576 570.4894,455.9386 592.1234,469.8476 C613.7584,483.7556 658.5724,495.6026 680.2074,480.6646 C701.8414,465.7266 688.9644,391.5516 688.9644,391.5516 C688.9644,391.5516 616.3334,375.0666 608.0924,363.7346 C599.8504,352.4026 533.9164,314.8006 533.9164,314.8006 L479.8304,422.4576 Z" id="Fill-16" fill="#f6cbc3"></path><path d="M681.1965,397.4195 C681.1965,397.4195 685.8735,385.3695 700.2965,387.9445 C714.7195,390.5215 849.1625,375.5825 887.7955,364.7655 C926.4275,353.9475 1008.3305,430.6985 972.7875,484.7845 C937.2455,538.8715 888.8255,513.1155 845.0415,509.5105 C801.2575,505.9045 716.2645,518.2675 697.2055,512.0855 C678.1465,505.9045 659.0875,494.5715 658.5725,481.1795 C658.0575,467.7865 681.1965,397.4195 681.1965,397.4195" id="Fill-18" fill="#F0ECEC"></path><path d="M877.7664,371.8189 C877.7664,371.8189 934.6694,399.7929 944.9724,438.4249 C955.2744,477.0579 950.4914,507.9839 950.4914,507.9839 C950.4914,507.9839 1004.4904,482.5399 973.7014,422.1069 C942.9114,361.6739 894.5234,356.7079 877.7664,365.6299 C861.0094,374.5519 877.7664,371.8189 877.7664,371.8189" id="Fill-20" fill="#E0D3CC"></path><path d="M871.4646,370.5123 C871.4646,370.5123 848.1316,407.5193 845.0416,434.3043 C845.0416,434.3043 847.1016,439.4553 821.3466,438.9413 C795.5906,438.4253 675.5176,412.0763 675.5176,412.0763 C675.5176,412.0763 649.6886,473.9503 659.0246,489.9273 C668.3596,505.9053 845.0416,475.5133 845.0416,475.5133 C845.0416,475.5133 852.2526,471.3923 856.8886,474.9983 C861.5246,478.6043 885.4606,511.6303 918.3066,518.2963 C918.3066,518.2963 867.1906,490.9663 863.0696,454.9083 C858.9486,418.8513 871.4646,370.5123 871.4646,370.5123" id="Fill-22" fill="#EEDFD9"></path><path d="M701.8416,408.0348 C701.8416,408.0348 703.3866,443.0608 696.6906,462.6358 C689.9936,482.2098 684.4326,499.2828 695.9696,497.1848 C707.5076,495.0878 719.8706,417.3058 713.1746,410.6098 C706.4776,403.9138 702.3566,401.8528 701.8416,408.0348" id="Fill-24" fill="#FFF"></path><path d="M720.9006,412.1549 C720.9006,412.1549 722.4456,447.1819 715.7496,466.7569 C709.0526,486.3309 703.4916,503.4029 715.0286,501.3049 C726.5666,499.2089 738.9296,421.4269 732.2326,414.7309 C725.5366,408.0349 721.4156,405.9739 720.9006,412.1549" id="Fill-26" fill="#FFF"></path><path d="M788.3796,413.3853 C788.3796,413.3853 789.9246,445.4233 783.2286,463.3263 C776.5316,481.2303 770.9706,496.8463 782.5076,494.9273 C794.0456,493.0083 806.4086,421.8653 799.7116,415.7403 C793.0156,409.6153 788.8946,407.7313 788.3796,413.3853" id="Fill-28" fill="#FFF"></path><path d="M814.135,417.2809 C814.135,417.2809 815.68,447.1849 808.984,463.8959 C802.287,480.6079 796.726,495.1829 808.263,493.3929 C819.801,491.6019 832.164,425.1969 825.467,419.4799 C818.771,413.7619 814.65,412.0039 814.135,417.2809" id="Fill-30" fill="#FFF"></path><path d="M832.6423,415.1246 C832.6423,415.1246 838.4183,444.5056 834.1633,461.9986 C829.9083,479.4916 826.4733,494.7096 837.6393,491.2986 C848.8053,487.8876 851.6123,420.3986 844.1723,415.6906 C836.7313,410.9826 832.4023,409.8266 832.6423,415.1246" id="Fill-32" fill="#FFF"></path><path d="M744.8552,414.4049 C744.8552,414.4049 742.8102,449.4069 734.1472,468.1939 C725.4832,486.9799 718.2052,503.3939 729.8972,502.4879 C741.5882,501.5819 761.8412,425.4719 755.8652,418.1269 C749.8882,410.7799 746.0002,408.3089 744.8552,414.4049" id="Fill-34" fill="#FFF"></path><path d="M754.9553,413.7564 C754.9553,413.7564 761.9163,448.1194 758.3383,468.4954 C754.7593,488.8714 751.9143,506.6014 762.9873,502.7384 C774.0593,498.8764 774.2043,420.1184 766.5503,414.5424 C758.8953,408.9664 754.5053,407.5694 754.9553,413.7564" id="Fill-36" fill="#FFF"></path><path d="M677.7112,409.7262 C677.7112,409.7262 710.0832,416.7912 703.3872,455.9392 C696.6902,495.0872 656.0132,484.0552 656.0132,484.0552 C656.0132,484.0552 646.3702,419.6602 677.7112,409.7262" id="Fill-38" fill="#FFF"></path><polygon id="Stroke-40" fill="#000" fill-rule="nonzero" points="222.064539 67.357022 506.395 291.638 567.949 317.564 633.126623 276.966138 856.941623 135.370138 859.080177 138.750462 635.253319 280.353906 568.306142 322.054535 504.343936 295.114337 219.587261 70.497578"></polygon><path d="M640.0286,255.5631 C640.0286,255.5631 593.6696,268.4401 580.7916,290.5901 C567.9136,312.7401 572.0346,350.8571 610.1526,366.8261 C648.2706,382.7941 663.7236,396.1871 653.9366,370.9471 C644.1496,345.7071 626.1206,299.3461 640.0286,255.5631" id="Fill-42" fill="#AFDEFF"></path><path d="M505.0706,284.9234 C505.0706,284.9234 500.4346,336.4344 472.1036,376.6124 C443.7736,416.7914 418.5326,420.9114 427.8046,430.6984 C437.0766,440.4854 451.4996,445.1214 460.7716,457.4854 C470.0436,469.8474 469.5286,469.3314 491.1626,443.5764 C512.7976,417.8204 560.1876,360.6444 561.2176,309.6494 C561.2176,309.6494 509.1916,267.9254 505.0706,284.9234" id="Fill-44" fill="#AFDEFF"></path></g></g></g><g id="Expression" transform="translate(1633.000000, 1204.000000) scale(1 1)"><g id="Expression/Happy" stroke="none" stroke-width="1" fill="none" fill-rule="evenodd"><g id="Group-124" transform="translate(25.000000, 52.000000)" fill-rule="nonzero"><path d="M98.9388073,0.515726772 L102.747593,1.73767323 L102.375135,2.93095324 C102.075892,3.9043293 101.742122,5.01790967 101.382468,6.25291663 C100.354215,9.78380887 99.3257634,13.5761133 98.3662837,17.478955 C97.2996742,21.8175645 96.3854385,26.0250163 95.6702376,29.9976992 L95.4631649,31.1740325 C93.7257688,41.2776329 93.4803733,48.9926374 95.0328764,53.1417647 L95.1244408,53.3771728 C104.002358,75.340079 91.9464166,86.4779502 66.6424816,78.6786942 L65.8716485,78.4365483 L67.0907515,74.6268517 C89.8846425,81.9208968 99.0260452,73.7026714 91.4159925,54.8763096 C89.3210345,49.6942966 89.6433125,40.8993486 91.7335247,29.288974 C92.4647551,25.2272527 93.3964651,20.9393815 94.4819426,16.5240234 C95.3476055,13.0027971 96.2678852,9.57278889 97.1943734,6.33814281 L97.5420029,5.13451153 C97.7507758,4.41761123 97.9510908,3.74056192 98.1413397,3.10683734 L98.6297394,1.50244969 L98.9388073,0.515726772 Z" id="Stroke-114" fill="#000"></path><path d="M0.1850015,153.534088 L2.1419985,150.045512 L2.85620174,150.434727 L3.51128674,150.782909 C4.50308988,151.305335 5.6321651,151.880908 6.88714027,152.498006 L7.43266178,152.764985 C11.6537624,154.821142 16.3218862,156.878362 21.3004212,158.797989 C32.7483158,163.212076 44.0600582,166.224884 54.584272,167.202241 C59.3535856,167.645156 63.8735301,167.656119 68.1063644,167.201856 L68.9490919,167.10479 L69.4379081,171.07481 C64.6629697,171.662733 59.5745075,171.682884 54.2143935,171.185103 C43.2765951,170.169337 31.6251616,167.066055 19.8613669,162.530163 C14.7706849,160.567294 9.99959664,158.464698 5.68097489,156.361037 L4.04785364,155.55429 C3.35348222,155.206284 2.70158001,154.872883 2.09423579,154.556252 L0.962732129,153.958187 L0.1850015,153.534088 Z" id="Stroke-122" fill="#C86A5D"></path></g><g id="Group-16" transform="translate(27.000000, 30.000000)" fill="#000"><path d="M70.0371,131.9951 C51.1661,131.9951 36.9381,123.3511 36.2701,122.9381 C34.8611,122.0681 34.4251,120.2191 35.2961,118.8091 C36.1651,117.4011 38.0141,116.9631 39.4241,117.8341 C39.7061,118.0061 56.4191,128.0481 76.5681,125.6031 C78.2011,125.4051 79.7071,126.5751 79.9081,128.2201 C80.1081,129.8641 78.9361,131.3601 77.2911,131.5591 C74.8141,131.8611 72.3881,131.9951 70.0371,131.9951" id="Fill-3" transform="translate(57.388937, 124.690582) rotate(15.000000) translate(-57.388937, -124.690582)"></path><path d="M78.8252,103.1664 C74.7822,103.1664 69.7382,102.3754 63.4432,100.3614 L64.6612,96.5514 C76.3852,100.3024 85.0452,99.9964 89.0462,95.6874 C92.4492,92.0204 92.4282,85.3134 88.9872,76.8014 C86.6522,71.0264 87.2292,60.0734 90.7022,44.2454 C93.2432,32.6624 96.4772,22.5414 96.5102,22.4404 L100.3182,23.6624 C96.8112,34.5954 88.6062,65.1874 92.6952,75.3024 C97.8932,88.1604 95.1742,94.9644 91.9772,98.4084 C89.6972,100.8664 85.7182,103.1664 78.8252,103.1664" id="Fill-5"></path><g id="Group-9" transform="translate(0.000000, 0.956000)"><path d="M62.1387,19.4316 C61.5377,19.4316 60.9257,19.3316 60.3267,19.1226 C54.4907,17.0866 37.6337,11.6746 29.8217,11.0966 C22.4657,10.5516 11.2427,14.1856 7.5387,15.6326 C4.7097,16.7366 1.5207,15.3416 0.4147,12.5146 C-0.6923,9.6866 0.7007,6.4986 3.5277,5.3896 C4.1637,5.1406 19.2597,-0.7164 30.6337,0.1266 C41.4887,0.9306 63.0387,8.4186 63.9507,8.7376 C66.8187,9.7386 68.3317,12.8746 67.3317,15.7426 C66.5397,18.0106 64.4127,19.4316 62.1387,19.4316" id="Fill-7"></path></g><path d="M154.6772,39.1645 C153.5752,39.1645 152.4632,38.8265 151.5062,38.1245 C148.4472,35.8845 139.0022,29.8175 132.1372,28.6695 C124.8122,27.4455 107.9602,28.8295 102.0842,29.4645 C99.1372,29.7795 96.4882,27.6525 96.1692,24.7055 C95.8492,21.7575 97.9802,19.1085 100.9272,18.7895 C101.8492,18.6895 123.6282,16.3615 133.9072,18.0795 C144.7152,19.8855 157.3282,29.0775 157.8602,29.4685 C160.2492,31.2235 160.7642,34.5835 159.0092,36.9735 C157.9572,38.4055 156.3282,39.1645 154.6772,39.1645" id="Fill-10"></path><path d="M51.6362,49.1289 C50.9112,49.1289 50.1852,48.8679 49.6092,48.3389 C49.5712,48.3049 44.6242,43.9129 37.4832,44.1789 C30.0942,44.4519 25.1892,48.0669 25.1402,48.1029 C23.8182,49.0929 21.9392,48.8329 20.9442,47.5169 C19.9472,46.1999 20.1962,44.3309 21.5082,43.3279 C21.7642,43.1319 27.8862,38.5299 37.2612,38.1829 C46.9102,37.8359 53.3942,43.6699 53.6652,43.9189 C54.8862,45.0389 54.9682,46.9369 53.8472,48.1569 C53.2562,48.8019 52.4472,49.1289 51.6362,49.1289" id="Fill-12"></path><path d="M135.7539,58.2724 C135.0289,58.2724 134.3029,58.0114 133.7269,57.4824 C133.6889,57.4484 128.7419,53.0504 121.5999,53.3224 C114.2309,53.5944 109.3169,57.2014 109.2699,57.2374 C107.9529,58.2444 106.0699,57.9924 105.0639,56.6764 C104.0579,55.3604 104.3089,53.4774 105.6249,52.4714 C105.8809,52.2754 112.0039,47.6724 121.3789,47.3264 C131.0239,46.9814 137.5119,52.8134 137.7829,53.0624 C139.0039,54.1824 139.0859,56.0804 137.9649,57.3004 C137.3739,57.9454 136.5649,58.2724 135.7539,58.2724" id="Fill-14"></path></g></g></g><g id="Hairstyle" transform="translate(1142.000000, 877.000000) scale(1 1)"><g id="Hairstyle/Short Bob" stroke="none" stroke-width="1" fill="none" fill-rule="evenodd"><path d="M482.517628,565.67165 C482.517628,565.67165 442.241536,553.080731 401.96597,565.67165 C361.689878,578.263094 334,559.376191 334,559.376191 C334,559.376191 393.7811,539.626543 355.145867,478.600653 C320.518296,423.904879 386.229267,369.13664 393.7811,330.104687 C401.332932,291.072734 398.864821,195.847938 525.882795,188.473917 C642.299753,181.715842 682.529128,248.736833 686.414487,293.707175 C690.340264,339.144334 739.464708,356.548872 724.173126,414.580625 C712.579511,458.579527 741.792669,507.226641 772,522.335953 C772,522.335953 741.794244,559.376191 715.362567,553.080731 C688.931939,546.785272 644.879669,556.858322 644.879669,556.858322 C644.879669,556.858322 606.429728,539.144499 617.494237,505.201319 C628.55822,471.258138 652.899719,455.761825 642.573229,416.653732 C632.24674,377.545114 598.878421,370.786513 600.353933,336.105038 C601.828921,301.424614 570.286228,249.889434 509.801753,270.55066 C509.801753,270.55066 444.153246,265.385222 444.153246,311.872587 C444.153246,358.359952 430.702512,382.441174 425.994624,395.857554 L435.332714,422.269183 C435.332714,422.269183 454.678151,504.056069 482.211607,527.361714 C482.211607,527.361714 489.190766,547.691075 482.517628,565.67165" id="Fill-50-Copy" fill="#481202" transform="translate(553.000000, 379.000000) scale(-1, 1) translate(-553.000000, -379.000000)"></path></g></g><g id="Accessories" transform="translate(1586.000000, 1237.000000) scale(1 1)" fill="#000"><g id="Accessories/None" stroke="none" stroke-width="1" fill="none" fill-rule="evenodd" fill-opacity="0"></g></g><g id="Facial Hair" transform="translate(1596.000000, 1238.000000) scale(1 1)" fill="#000"><g id="Facial Hair/None" stroke="none" stroke-width="1" fill="none" fill-rule="evenodd" fill-opacity="0"></g></g></g></g><g id="Big-Lamp" transform="translate(749.000000, 996.000000)"><mask id="masterscenealone-time-1-mask-14" fill="#fff"><use xlink:href="#masterscenealone-time-1-path-13"></use></mask><g id="Clip-2"></g><path d="M423.35,268.343977 L485.02,207.313977 L405.22,126.654977 L108.26,422.703977 C108.26,422.703977 76.87,453.003977 65.96,483.363977 C55.05,513.723977 55.05,546.503977 55.05,546.503977 L54.27,2367.69398 L498.15,2367.93398 C515.63,2367.93398 529.79,2382.10398 529.79,2399.57398 L529.79,2400.24398 C529.79,2417.71398 515.63,2431.88398 498.15,2431.88398 L31.64,2431.88398 C14.17,2431.88398 1.13686838e-12,2417.71398 1.13686838e-12,2400.24398 L1.13686838e-12,2399.57398 C1.13686838e-12,2385.08398 10.96,2372.70398 24.31,2368.96398 L24.07,546.503977 C24.07,546.503977 24.93,501.793977 39.35,466.173977 C51.68,435.723977 76.44,409.953977 88.7,398.423977 C88.89,398.233977 89.08,398.063977 89.27,397.883977 L383.43,104.633977 L346.36,67.1739771 C340.42,61.1839771 340.47,51.5039771 346.47,45.5739771 L388.06,4.4139771 C394.06,-1.5160229 403.73,-1.4660229 409.67,4.5339771 L538.36,134.583977 C542.88,139.154977 543.93,145.864977 541.5,151.423977 L609.56,84.0839771 L808.19,284.803977 L621.98,469.073977 L423.35,268.343977 Z" id="Fill-1" fill="#0A4343" mask="url(#masterscenealone-time-1-mask-14)"></path></g></g></svg>