<svg viewBox="15 921.9789002557545 2012.4999999999995 1581.0421994884907" xmlns="http://www.w3.org/2000/svg" xmlns:xlink="http://www.w3.org/1999/xlink" overflow="visible" width="2012.4999999999995px" height="1581.0421994884907px"><defs><polygon id="mastercharactersitting-on-floor-path-1" points="0 0.216 1141.521 0.216 1141.521 422.785934 0 422.785934"></polygon><polygon id="mastercharactersitting-on-floor-path-3" points="0.893394597 0.106 258.492632 0.106 258.492632 218.7317 0.893394597 218.7317"></polygon></defs><g id="Master/Character/Sitting On Floor" stroke="none" stroke-width="1" fill="none" fill-rule="evenodd"><g id="Upper Body" transform="translate(911.000000, 1121.000000) scale(1 1)"><defs><polygon id="upper-bodywith-tablet-path-1" points="0 0.2826 603.923514 0.2826 603.923514 617 0 617"></polygon><polygon id="upper-bodywith-tablet-path-3" points="0.3831 0.682 291.680835 0.682 291.680835 266.8063 0.3831 266.8063"></polygon><polygon id="upper-bodywith-tablet-path-5" points="0.30206309 0.307802676 128.976 0.307802676 128.976 395.282713 0.30206309 395.282713"></polygon></defs><g id="Upper Body/With Tablet" stroke="none" stroke-width="1" fill="none" fill-rule="evenodd"><path d="M571.998058,659 L536,996.203107 C536,996.203107 886.321032,1080.44905 1014.04118,970.264637 L1027,673.410594 C1027,673.410594 875.332686,668.607063 571.998058,659 Z" id="Fill-1" fill="#D60000"></path><path d="M724.954254,220 C724.954254,220 721.26343,301.153386 673.924004,329.799638 C630.972611,355.790794 721.968632,506.610475 819.857852,497.613536 C873.442212,492.688212 886,346.158072 886,346.158072 C886,346.158072 842.733964,337.796917 858.715877,271.819367 L724.954254,220 Z" id="Neck" fill="#7d4439"></path><path d="M803.337113,302.515641 C739.876612,294.840687 694.077698,253.11575 687.664652,183.898064 C669.216286,186.83496 664.86504,138.764927 670.003065,123.322958 C675.146083,107.858975 691.933027,116.900812 691.933027,116.900812 C692.862251,114.457234 693.652358,111.898916 694.303348,109.225857 C722.02532,-4.48555283 799.669805,0.0243586862 799.669805,0.0243586862 C942.344355,7.45715716 908.914243,153.120195 900.762895,191.763142 C892.610548,230.410091 864.683894,309.927426 803.337113,302.515641 Z" id="Head" fill="#7d4439"></path><g id="Group-32" transform="translate(446.000000, 287.000000)"><path d="M568.3187,480.127 C547.2707,471.554 520.1427,444.422 487.6897,399.486 C463.6237,366.163 445.4267,334.916 445.2467,334.605 L448.7057,332.597 C449.4237,333.834 521.1277,456.586 569.8287,476.422 L568.3187,480.127 Z" id="Fill-1" fill="#864A56"></path><g id="Group-5" transform="translate(0.000000, 38.318000)"><mask id="upper-bodywith-tablet-mask-2" fill="#fff"><use xlink:href="#upper-bodywith-tablet-path-1"></use></mask><g id="Clip-4"></g><path d="M231.9759,0.2826 C231.9759,0.2826 54.2679,17.1086 17.6219,201.6956 C-19.0241,386.2826 -23.4131,604.0096 258.9759,615.2826 C541.3659,626.5546 565.3839,579.0446 565.1799,568.6636 C564.9759,558.2826 569.9759,387.2826 592.9759,257.2826 C615.9759,127.2826 617.9759,57.2826 441.9759,14.2826 C441.9759,14.2826 363.9759,118.2826 231.9759,0.2826" id="Fill-3" fill="#D60000" mask="url(#upper-bodywith-tablet-mask-2)"></path></g><path d="M366.9759,114.6006 L387.9759,18.6006 C387.9759,18.6006 386.9759,2.6006 411.9759,3.6006 C436.9759,4.6006 613.9759,1.6006 613.9759,1.6006 C613.9759,1.6006 627.9759,-0.3994 631.9759,12.6006 C635.9759,25.6006 583.9759,243.6006 583.9759,243.6006 C583.9759,243.6006 584.9759,258.6006 567.9759,258.6006 C550.9759,258.6006 341.9759,266.6006 341.9759,266.6006 L366.9759,114.6006" id="Fill-6" fill="#204EB2"></path><g id="Group-10" transform="translate(341.000000, 0.318000)"><mask id="upper-bodywith-tablet-mask-4" fill="#fff"><use xlink:href="#upper-bodywith-tablet-path-3"></use></mask><g id="Clip-9"></g><path d="M26.4671,114.3763 L1.5691,265.7593 C14.1091,265.2803 210.6151,257.7823 226.9761,257.7823 C232.2021,257.7823 236.2061,256.3393 238.8741,253.4913 C242.8161,249.2863 242.4811,243.3743 242.4771,243.3153 L242.4721,243.2403 L242.4891,243.1663 C243.0091,240.9873 294.4121,25.1513 290.4981,12.4303 C286.6721,-0.0017 273.5981,1.6983 273.0461,1.7773 C271.2151,1.8133 95.6821,4.7733 70.9561,3.7823 C61.7981,3.4153 55.1511,5.2793 51.1871,9.3203 C47.2331,13.3523 47.4721,18.2033 47.4751,18.2523 L47.4791,18.3213 L47.4641,18.3893 L26.4671,114.3763 Z M0.3831,266.8063 L25.4881,114.1763 L46.4731,18.2403 C46.4471,17.5633 46.4201,12.7653 50.4561,8.6373 C54.6241,4.3743 61.5531,2.4163 70.9951,2.7823 C95.6971,3.7723 271.1971,0.8123 272.9671,0.7823 C273.0491,0.7663 287.3771,-1.1177 291.4531,12.1353 C295.4381,25.0843 245.8361,233.4443 243.4791,243.3273 C243.5161,244.1003 243.6431,249.8583 239.6131,254.1673 C236.7471,257.2303 232.4951,258.7823 226.9761,258.7823 C210.1801,258.7823 3.0851,266.7023 0.9951,266.7823 L0.3831,266.8063 Z" id="Fill-8" fill="#000" mask="url(#upper-bodywith-tablet-mask-4)"></path></g><path d="M373.9759,121.6006 L394.9759,25.6006 C394.9759,25.6006 393.9759,9.6006 418.9759,10.6006 C443.9759,11.6006 620.9759,8.6006 620.9759,8.6006 C620.9759,8.6006 634.9759,6.6006 638.9759,19.6006 C642.9759,32.6006 590.9759,250.6006 590.9759,250.6006 C590.9759,250.6006 591.9759,265.6006 574.9759,265.6006 C557.9759,265.6006 348.9759,273.6006 348.9759,273.6006 L373.9759,121.6006" id="Fill-11" fill="#56ACF6"></path><path d="M265.1771,272.1289 C265.1771,272.1289 323.3331,205.8509 339.1951,177.4449 C355.0561,149.0399 355.0561,132.4699 353.7341,119.4509 C352.4121,106.4319 352.4121,91.0459 362.9861,88.6789 C373.5601,86.3119 374.8821,92.2299 376.2031,106.4319 C377.5261,120.6349 376.2031,134.8369 399.9951,126.5529 C423.7861,118.2679 481.9441,98.1479 488.5521,114.7169 C495.1601,131.2869 480.6211,133.6529 480.6211,133.6529 C480.6211,133.6529 491.1961,134.8369 493.8391,143.1219 C496.4831,151.4069 493.8391,157.3249 485.9081,160.8749 C477.9781,164.4259 474.0131,165.6089 474.0131,165.6089 C474.0131,165.6089 489.8731,163.2419 493.8391,175.0779 C497.8041,186.9129 491.1961,192.8309 484.5871,195.1979 C484.5871,195.1979 493.0871,196.5659 495.1601,205.8509 C496.4831,211.7689 488.5521,215.3179 479.3001,218.8689 C466.7921,223.6699 429.0731,224.7869 397.3521,244.9069 C365.6291,265.0279 288.9681,396.4019 250.6381,436.6429 C212.3071,476.8839 173.9761,372.7319 173.9761,372.7319 C173.9761,372.7319 221.5591,312.3699 265.1771,272.1289" id="Fill-13" fill="#7d4439"></path><polygon id="Fill-15" fill="#3F1315" points="414.9241 152.8555 414.1451 149.9595 480.2321 132.2055 481.0111 135.1015"></polygon><polygon id="Fill-17" fill="#3F1315" points="414.9241 183.628 414.1451 180.732 480.2321 162.978 481.0111 165.874"></polygon><polygon id="Fill-19" fill="#3F1315" points="422.8538 214.3995 422.0768 211.5035 488.1638 193.7505 488.9408 196.6465"></polygon><g id="Group-23" transform="translate(540.000000, 85.318000)"><mask id="upper-bodywith-tablet-mask-6" fill="#fff"><use xlink:href="#upper-bodywith-tablet-path-5"></use></mask><g id="Clip-22"></g><path d="M33.7708,338.8559 C33.7708,338.8559 43.0228,291.5139 46.9878,232.3359 C50.9538,173.1599 49.6308,147.1219 44.3438,142.3869 C39.0568,137.6529 2.0478,138.8359 2.0478,119.8999 C2.0478,100.9619 28.4838,106.8799 28.4838,106.8799 C28.4838,106.8799 0.7268,102.1459 3.3708,87.9439 C6.0138,73.7409 21.8748,76.1079 21.8748,76.1079 C21.8748,76.1079 -3.2392,71.3739 0.7268,55.9879 C4.6918,40.6019 28.4838,46.5189 28.4838,46.5189 C28.4838,46.5189 6.0138,42.9689 15.2658,27.5829 C24.5178,12.1969 40.3788,21.6649 58.8828,26.3989 C77.3878,31.1329 78.7098,32.3169 80.0318,25.2149 C81.3528,18.1139 78.7098,-0.8231 93.2498,0.3609 C107.7888,1.5439 110.4318,6.2789 110.4318,32.3169 C110.4318,58.3549 114.3968,82.0259 118.3628,105.6969 C122.3278,129.3679 123.6488,156.5889 121.0058,200.3809 C118.3628,244.1719 155.3718,373.1789 89.2838,392.1169 C23.1968,411.0529 33.7708,338.8559 33.7708,338.8559" id="Fill-21" fill="#7d4439" mask="url(#upper-bodywith-tablet-mask-6)"></path></g><polygon id="Fill-24" fill="#3F1315" points="601.722 200.3213 562.85 191.9723 563.481 189.0393 602.353 197.3873"></polygon><polygon id="Fill-26" fill="#3F1315" points="600.7884 171.2422 561.9154 162.8922 562.5464 159.9592 601.4194 168.3082"></polygon><polygon id="Fill-28" fill="#3F1315" points="602.4905 139.9629 563.6185 131.6139 564.2495 128.6809 603.1215 137.0289"></polygon><polygon id="Fill-30" fill="#3F1315" points="638.2708 120.876 619.1058 116.733 619.7408 113.802 638.9058 117.944"></polygon></g></g></g><g id="Lower Body/Sitting on Floor" transform="translate(1165.000000, 2062.000000) scale(-1, 1) translate(-1165.000000, -2062.000000) translate(0.000000, 1624.000000) scale(1 1)"><defs><polygon id="lower-bodysitting-on-floorspread-out-2-path-1" points="0.2961 0.0297382716 168.575 0.0297382716 168.575 293.567627 0.2961 293.567627"></polygon></defs><g id="Lower Body/Sitting on Floor/Spread Out 2" stroke="none" stroke-width="1" fill="none" fill-rule="evenodd"><g id="Lower-Body" transform="translate(384.000000, 0.000000)"><polygon id="Fill-1" fill="#F8D8B8" points="1626.2961 637.5588 1598.2961 740.4158 1649.2961 757.5588 1681.2961 656.5588"></polygon><polygon id="Fill-2" fill="#E4F9FF" points="1678.2961 649.5588 1642.2961 763.5588 1694.2961 780.5588 1732.2961 669.5588"></polygon><g id="Group-44" transform="translate(0.000000, 0.494000)"><path d="M1736.2961,657.0648 C1736.2961,657.0648 1728.2961,657.0648 1718.2961,662.0648 C1708.2961,667.0648 1656.2961,736.0648 1686.2961,779.0648 C1686.2961,779.0648 1691.2961,782.0648 1697.2961,783.0648 C1703.2961,784.0648 1714.2961,802.0648 1733.2961,812.0648 C1733.2961,812.0648 1729.2961,799.0648 1744.2961,760.0648 C1759.2961,721.0648 1845.2961,514.0648 1886.2961,512.0648 C1886.2961,512.0648 1870.2961,499.0648 1821.2961,555.0648 C1775.0081,607.9648 1736.2961,657.0648 1736.2961,657.0648" id="Fill-3" fill="#2E2C36"></path><path d="M1733.2961,812.0648 C1733.2961,812.0648 1750.2961,841.0648 1777.2961,836.0648 C1804.2961,831.0648 1812.1331,806.3298 1821.2151,785.6978 C1830.2961,765.0648 1922.2121,538.0708 1922.2121,538.0708 C1922.2121,538.0708 1912.0891,505.3828 1884.3841,511.7228 C1852.2961,519.0648 1822.2961,587.0648 1822.2961,587.0648 L1735.2961,767.0648 C1735.2961,767.0648 1726.2961,793.0648 1733.2961,812.0648" id="Fill-5" fill="#E4F9FF"></path><g id="Group-9" transform="translate(1757.000000, 530.000000)"><mask id="lower-bodysitting-on-floorspread-out-2-mask-2" fill="#fff"><use xlink:href="#lower-bodysitting-on-floorspread-out-2-path-1"></use></mask><g id="Clip-8"></g><path d="M0.2961,272.0648 L111.2961,34.0648 C111.2961,34.0648 134.2961,-6.9352 157.2961,1.0648 C180.2961,9.0648 162.2961,46.0648 154.2961,75.0648 C146.2961,104.0648 66.2961,274.0648 45.2961,290.0648 C30.6291,301.2398 1.2961,283.0648 0.2961,272.0648" id="Fill-7" fill="#2E2C36" mask="url(#lower-bodysitting-on-floorspread-out-2-mask-2)"></path></g><path d="M1697.2961,783.0648 C1697.2961,783.0648 1686.2961,754.0648 1699.2961,719.0648 C1712.2961,684.0648 1736.2961,657.0648 1736.2961,657.0648 C1736.2961,657.0648 1710.9961,649.1378 1689.6461,700.1018 C1668.2961,751.0648 1672.2961,778.0648 1697.2961,785.0648" id="Fill-10" fill="#3B3D4A"></path><path d="M1705.4382,754.8051 C1705.4382,754.8051 1702.2482,725.9021 1717.2712,717.4831 C1732.2962,709.0651 1755.2962,705.0651 1758.2962,693.0651 C1761.2962,681.0651 1759.2962,663.0651 1759.2962,663.0651" id="Stroke-12" stroke="#FFF" stroke-width="10"></path><path d="M466.4167,775.7921 C466.4167,775.7921 477.3987,819.6771 482.4557,827.5521 C487.5127,835.4261 581.4757,877.7511 611.4627,874.8581 C641.4497,871.9651 691.8617,852.8801 698.4727,838.5131 C705.0837,824.1461 696.1837,779.7921 686.6857,771.6301 C677.1867,763.4681 466.4167,775.7921 466.4167,775.7921" id="Fill-14" fill="#E4F9FF"></path><g id="Group-18" transform="translate(0.000000, 332.000000)" fill="#204EB2"><path d="M16.1797,62.5732 C16.1797,62.5732 -57.7043,340.0652 110.2957,383.0652 C278.2957,426.0652 466.0337,387.1912 672.2957,320.0652 C841.2957,265.0652 834.2957,202.0652 1049.2957,264.0652 C1203.1397,308.4292 1599.2957,419.0652 1599.2957,419.0652 L1640.2957,299.0652 C1640.2957,299.0652 1049.2957,-5.9348 814.2957,1.0652 C726.2837,3.6862 449.1117,60.0562 449.1117,60.0562 L16.1797,62.5732 Z" id="Fill-16"></path></g><g id="Group-21" transform="translate(37.000000, 0.000000)" fill="#204EB2"><path d="M0.9712,428.7904 C0.9712,428.7904 185.2962,47.0644 255.2962,13.0644 C325.2962,-20.9356 352.2962,20.0644 358.2962,65.0644 C364.2962,110.0644 494.2962,538.0644 494.2962,538.0644 L339.2962,579.0644 L0.9712,428.7904 Z" id="Fill-19"></path></g><polygon id="Stroke-22" fill="#000" fill-rule="nonzero" points="282.551887 365.987397 378.049887 565.832397 373.538513 567.988203 278.040513 368.143203"></polygon><path d="M508.8442,538.4777 L520.5632,576.8397 C473.9942,576.7947 437.1112,597.9907 427.0342,603.0387 L416.5112,565.4327 L508.8442,538.4777 Z" id="Fill-24" fill="#F7C8A9"></path><path d="M546.2759,649.3451 L444.4279,674.6511 L423.2959,598.0651 C423.2959,598.0651 423.5749,597.9341 425.2959,597.0651 C435.3729,592.0161 475.4189,573.3511 521.9879,573.397015" id="Fill-26" fill="#E4F9FF"></path><path d="M512.6682,801.3766 C512.6682,801.3766 584.0212,830.7676 632.3492,812.1516 C680.6782,793.5356 691.8032,781.1366 691.5272,779.9106 C691.2512,778.6856 611.2772,709.6706 595.5302,702.9166 C579.7832,696.1626 539.2172,666.6706 523.0842,692.1976 C506.9502,717.7246 482.9122,737.3056 486.0132,755.9236 C489.1142,774.5416 512.6682,801.3766 512.6682,801.3766" id="Fill-28" fill="#353644"></path><path d="M446.811,688.7792 C446.811,688.7792 450.745,754.8042 468.615,785.5472 L515.303,803.3582 C515.303,803.3582 501.823,767.8142 512.876,753.7342 C523.928,739.6542 530.263,724.0612 530.413,715.0132 C530.563,705.9652 570.9,695.5892 570.9,695.5892 C570.9,695.5892 577.614,710.8172 589.621,710.6872 C601.629,710.5572 663.471,755.4802 663.471,755.4802 C663.471,755.4802 648.335,739.5172 632.461,722.4902 C616.588,705.4622 560.959,651.4692 560.959,651.4692 L446.811,688.7792 Z" id="Fill-30" fill="#2C262B"></path><path d="M441.4919,661.9867 C441.4919,661.9867 431.5439,672.4287 437.8639,682.2807 C444.1839,692.1327 465.4259,686.3207 485.6929,680.7297 C505.9589,675.1377 554.5169,663.1717 558.0749,656.2197 C561.6339,649.2677 555.1909,634.3187 542.1659,631.1027 C542.1659,631.1027 545.9989,643.5647 540.5849,646.8347 C535.1709,650.1047 450.4219,674.3257 446.8359,672.0587 C443.2499,669.7907 441.4919,661.9867 441.4919,661.9867" id="Fill-32" fill="#3E454F"></path><path d="M513.9958,715.3551 C513.9958,715.3551 540.3778,686.8591 569.7948,694.5821 C569.7948,694.5821 579.4538,696.5061 575.9638,690.1171 C572.4738,683.7271 567.3768,683.8511 567.3768,683.8511 C567.3768,683.8511 568.0088,677.5581 562.6918,676.7061 C562.6918,676.7061 564.2988,670.1931 557.0308,669.7811 C557.0308,669.7811 554.7088,654.9281 539.0038,662.5671 C523.2988,670.2061 492.8378,676.0441 496.7668,684.3851 C500.6958,692.7251 502.9638,689.1391 502.9638,689.1391 C502.9638,689.1391 501.1358,694.6761 505.3808,699.8701 C509.6268,705.0631 508.9678,702.1371 508.9678,702.1371 C508.9678,702.1371 504.1168,712.4551 513.9958,715.3551" id="Fill-34" fill="#FFF"></path><path d="M499.281,690.9936 C499.281,690.9936 505.231,685.5526 514.986,683.3546" id="Stroke-36" stroke="#000" stroke-width="4"></path><path d="M560.7131,667.9262 C560.7131,667.9262 549.7621,669.3682 543.3731,672.8582" id="Stroke-38" stroke="#000" stroke-width="4"></path><path d="M572.0439,683.5956 C572.0439,683.5956 556.9619,683.1226 550.3529,685.6366" id="Stroke-40" stroke="#000" stroke-width="4"></path><path d="M504.5293,705.1872 C504.5293,705.1872 513.9413,696.9162 527.3793,692.8632" id="Stroke-42" stroke="#000" stroke-width="4"></path></g></g></g></g><g id="Expression" transform="translate(1633.000000, 1204.000000) scale(1 1)"><g id="Expression/Holding Laughter" stroke="none" stroke-width="1" fill="none" fill-rule="evenodd"><g id="Group-16" transform="translate(23.000000, 29.000000)" fill="#000"><path d="M42.1189,122.5775 C42.1189,122.5775 58.2689,147.5775 80.2119,133.1175 L42.1189,122.5775 Z" id="Fill-1" transform="translate(61.165400, 130.098393) rotate(10.000000) translate(-61.165400, -130.098393)"></path><g id="Group-9" transform="translate(0.000000, 0.515000)"><path d="M2,22.9756 C2,22.9756 17.26,13.7656 28.897,11.6706 C36.082,10.3776 75.756,15.9766 74.492,24.0666 C73.26,31.9486 69.346,30.8876 53.686,28.1966 C38.026,25.5046 30.873,23.7096 21.82,24.6886 C12.766,25.6666 2.245,27.6246 2,22.9756" id="Fill-7" transform="translate(38.260773, 20.833940) rotate(-19.000000) translate(-38.260773, -20.833940)"></path></g><path d="M163.977136,33.4844194 C163.977136,33.4844194 161.362136,25.4834194 157.059136,21.6384194 C152.756136,17.7954194 120.372136,9.49541944 114.895136,14.6284194 C106.193136,22.7844194 112.446136,25.7074194 129.915136,27.5194194 C143.964136,28.9774194 149.514136,29.4634194 156.025136,32.2914194 C164.921136,36.1554194 163.780136,34.9744194 163.977136,33.4844194" id="Fill-10" transform="translate(137.488568, 23.947836) rotate(28.000000) translate(-137.488568, -23.947836)"></path></g><g id="Group-124" transform="translate(25.000000, 52.000000)" fill-rule="nonzero"><path d="M98.9388073,0.515726772 L102.747593,1.73767323 L102.375135,2.93095324 C102.075892,3.9043293 101.742122,5.01790967 101.382468,6.25291663 C100.354215,9.78380887 99.3257634,13.5761133 98.3662837,17.478955 C97.2996742,21.8175645 96.3854385,26.0250163 95.6702376,29.9976992 L95.4631649,31.1740325 C93.7257688,41.2776329 93.4803733,48.9926374 95.0328764,53.1417647 L95.1244408,53.3771728 C104.002358,75.340079 91.9464166,86.4779502 66.6424816,78.6786942 L65.8716485,78.4365483 L67.0907515,74.6268517 C89.8846425,81.9208968 99.0260452,73.7026714 91.4159925,54.8763096 C89.3210345,49.6942966 89.6433125,40.8993486 91.7335247,29.288974 C92.4647551,25.2272527 93.3964651,20.9393815 94.4819426,16.5240234 C95.3476055,13.0027971 96.2678852,9.57278889 97.1943734,6.33814281 L97.5420029,5.13451153 C97.7507758,4.41761123 97.9510908,3.74056192 98.1413397,3.10683734 L98.6297394,1.50244969 L98.9388073,0.515726772 Z" id="Stroke-114" fill="#000"></path><path d="M0.1850015,153.534088 L2.1419985,150.045512 L2.85620174,150.434727 L3.51128674,150.782909 C4.50308988,151.305335 5.6321651,151.880908 6.88714027,152.498006 L7.43266178,152.764985 C11.6537624,154.821142 16.3218862,156.878362 21.3004212,158.797989 C32.7483158,163.212076 44.0600582,166.224884 54.584272,167.202241 C59.3535856,167.645156 63.8735301,167.656119 68.1063644,167.201856 L68.9490919,167.10479 L69.4379081,171.07481 C64.6629697,171.662733 59.5745075,171.682884 54.2143935,171.185103 C43.2765951,170.169337 31.6251616,167.066055 19.8613669,162.530163 C14.7706849,160.567294 9.99959664,158.464698 5.68097489,156.361037 L4.04785364,155.55429 C3.35348222,155.206284 2.70158001,154.872883 2.09423579,154.556252 L0.962732129,153.958187 L0.1850015,153.534088 Z" id="Stroke-122" fill="#C86A5D"></path></g><path d="M78.6362,79.1289 C77.9112,79.1289 77.1852,78.8679 76.6092,78.3389 C76.5712,78.3049 71.6242,73.9129 64.4832,74.1789 C57.0942,74.4519 52.1892,78.0669 52.1402,78.1029 C50.8182,79.0929 48.9392,78.8329 47.9442,77.5169 C46.9472,76.1999 47.1962,74.3309 48.5082,73.3279 C48.7642,73.1319 54.8862,68.5299 64.2612,68.1829 C73.9102,67.8359 80.3942,73.6699 80.6652,73.9189 C81.8862,75.0389 81.9682,76.9369 80.8472,78.1569 C80.2562,78.8019 79.4472,79.1289 78.6362,79.1289" id="Fill-12" fill="#000"></path><path d="M162.7539,88.2724 C162.0289,88.2724 161.3029,88.0114 160.7269,87.4824 C160.6889,87.4484 155.7419,83.0504 148.5999,83.3224 C141.2309,83.5944 136.3169,87.2014 136.2699,87.2374 C134.9529,88.2444 133.0699,87.9924 132.0639,86.6764 C131.0579,85.3604 131.3089,83.4774 132.6249,82.4714 C132.8809,82.2754 139.0039,77.6724 148.3789,77.3264 C158.0239,76.9814 164.5119,82.8134 164.7829,83.0624 C166.0039,84.1824 166.0859,86.0804 164.9649,87.3004 C164.3739,87.9454 163.5649,88.2724 162.7539,88.2724" id="Fill-14" fill="#000"></path></g></g><g id="Hairstyle" transform="translate(1142.000000, 877.000000) scale(1 1)"><defs><polygon id="hairstylecurly-bun-path-1" points="0.328028164 0.405 215.919 0.405 215.919 152.988863 0.328028164 152.988863"></polygon><polygon id="hairstylecurly-bun-path-3" points="0 0.70825307 250.5147 0.70825307 250.5147 222 0 222"></polygon></defs><g id="Hairstyle/Curly Bun" stroke="none" stroke-width="1" fill="none" fill-rule="evenodd"><g id="Group-11" transform="translate(434.000000, 48.000000)"><g id="Group-3" transform="translate(49.000000, 0.595000)"><mask id="hairstylecurly-bun-mask-2" fill="#fff"><use xlink:href="#hairstylecurly-bun-path-1"></use></mask><g id="Clip-2"></g><path d="M177.9641,151.0493 C177.9641,151.0493 173.9001,141.6203 196.0491,140.5903 C218.1991,139.5603 226.9561,94.2313 195.0191,74.1413 C163.0821,54.0523 197.5951,32.9333 148.6591,7.6933 C99.7241,-17.5477 75.5141,30.8723 75.5141,30.8723 C75.5141,30.8723 24.0041,10.7833 5.9751,51.9923 C-12.0539,93.2003 18.8521,109.6843 18.8521,109.6843 C18.8521,109.6843 -1.7519,123.5923 14.7321,140.5903 C31.2151,157.5893 75.6971,138.6983 83.0751,147.8863 C90.4521,157.0743 177.9641,151.0493 177.9641,151.0493" id="Fill-1" fill="#752B00" mask="url(#hairstylecurly-bun-mask-2)"></path></g><path d="M78.8482,161.0855 C78.8482,161.0855 94.4382,132.3665 131.5252,129.6835 C168.6132,127.0005 185.2512,140.1725 189.5522,161.0855 C193.8532,181.9985 78.8482,161.0855 78.8482,161.0855" id="Fill-4" fill="#FFF"></path><g id="Group-8" transform="translate(0.000000, 148.595000)"><mask id="hairstylecurly-bun-mask-4" fill="#fff"><use xlink:href="#hairstylecurly-bun-path-3"></use></mask><g id="Clip-7"></g><path d="M22.3227,199.6632 C21.2927,195.1992 24.0400333,189.876533 30.5647,183.6952 C40.3517,174.4232 36.7457,131.6692 59.9257,123.9422 C83.1057,116.2162 121.7387,76.5532 139.7667,76.5532 C157.7957,76.5532 188.7027,93.0362 201.0647,92.0062 C213.4277,90.9762 229.9107,115.7012 230.9407,128.5782 C231.9707,141.4562 248.8557,164.4952 238.3527,222.0002 C238.3527,222.0002 250.5147,202.7542 250.5147,180.0892 C250.5147,157.4242 247.4247,152.2732 248.9697,119.8222 C250.5147,87.3702 246.9097,53.8882 223.2147,38.4352 C199.5197,22.9812 184.5817,-5.3488 148.0087,1.8622 C111.4367,9.0742 83.1057,0.3172 61.4707,23.4972 C45.5577,40.5472 21.8077,52.3432 16.6567,87.3702 C11.8577,120.0022 -14.6383,135.0912 11.0537,170.2102 C11.0537,170.2102 22.3227,188.3312 22.3227,199.6632 Z" id="Fill-6" fill="#752B00" mask="url(#hairstylecurly-bun-mask-4)"></path></g><path d="M81.5017,158.7446 C81.5017,158.7446 88.3227,130.4856 133.3227,127.4856 C178.3227,124.4856 187.0857,143.8696 189.2047,159.6776 C189.2047,159.6776 170.7157,147.3106 147.0197,152.3986 C123.3227,157.4856 96.6807,154.0036 81.5017,158.7446" id="Fill-9" fill="#56ACF6"></path></g></g></g><g id="Accessories" transform="translate(1586.000000, 1237.000000) scale(1 1)" fill="#000"><g id="Accessories/Glasses and Earring" stroke="none" stroke-width="1" fill="none" fill-rule="evenodd"><g id="Group-136" transform="translate(21.000000, 0.000000)" fill="#000" fill-rule="nonzero"><path d="M85.2331,-3.5185 C64.1379939,-3.5185 47.0361,13.5830433 47.0361,34.6775 C47.0361,55.7726319 64.1376692,72.8735 85.2331,72.8735 C106.328381,72.8735 123.4291,55.7727814 123.4291,34.6775 C123.4291,13.5828939 106.328057,-3.5185 85.2331,-3.5185 Z M85.2331,5.4815 C101.357453,5.4815 114.4291,18.5534154 114.4291,34.6775 C114.4291,50.8022186 101.357819,63.8735 85.2331,63.8735 C69.1081493,63.8735 56.0361,50.8019866 56.0361,34.6775 C56.0361,18.5536474 69.1085154,5.4815 85.2331,5.4815 Z" id="Stroke-128"></path><path d="M179.1536,5.5889 C158.058169,5.5889 140.9566,22.6897681 140.9566,43.7849 C140.9566,64.8800319 158.058169,81.9809 179.1536,81.9809 C200.248881,81.9809 217.3496,64.8801814 217.3496,43.7849 C217.3496,22.6896186 200.248881,5.5889 179.1536,5.5889 Z M179.1536,14.5889 C195.278319,14.5889 208.3496,27.6601814 208.3496,43.7849 C208.3496,59.9096186 195.278319,72.9809 179.1536,72.9809 C163.028649,72.9809 149.9566,59.9093866 149.9566,43.7849 C149.9566,27.6604134 163.028649,14.5889 179.1536,14.5889 Z" id="Stroke-130"></path><path d="M-3.64184511,7.30994196 C-2.74598214,5.07028454 -0.252551778,3.94709164 2.00319591,4.726899 L2.20755804,4.80305489 L52.207558,24.8030549 C54.5150839,25.7260652 55.6374554,28.3449322 54.7144451,30.652458 C53.8185821,32.8921155 51.3251518,34.0153084 49.0694041,33.235501 L48.865042,33.1593451 L-1.13495804,13.1593451 C-3.44248387,12.2363348 -4.56485544,9.61746778 -3.64184511,7.30994196 Z" id="Stroke-132"></path><path d="M114.843511,36.5654718 C115.110544,34.1660118 117.218034,32.4181733 119.60255,32.5722482 L119.813628,32.5908106 L146.033628,35.5088106 C148.503661,35.7836983 150.283177,38.0088957 150.008289,40.4789282 C149.741256,42.8783882 147.633766,44.6262267 145.24925,44.4721518 L145.038172,44.4535894 L118.818172,41.5355894 C116.348139,41.2607017 114.568623,39.0355043 114.843511,36.5654718 Z" id="Stroke-134"></path></g><g id="Group-5" transform="translate(1.000000, 55.000000)" fill="#FFF"><path d="M21.5,11 C21.5,16.799 16.8,21.5 11,21.5 C5.201,21.5 0.5,16.799 0.5,11 C0.5,5.2 5.201,0.5 11,0.5 C16.8,0.5 21.5,5.2 21.5,11" id="Fill-1"></path></g></g></g><g id="Facial Hair" transform="translate(1596.000000, 1238.000000) scale(1 1)" fill="#000"><g id="Facial Hair/None" stroke="none" stroke-width="1" fill="none" fill-rule="evenodd" fill-opacity="0"></g></g></g></svg>