<svg viewBox="378.9618749999995 385.2561939514426 3209.5346250000002 2886.876190725311" xmlns="http://www.w3.org/2000/svg" xmlns:xlink="http://www.w3.org/1999/xlink" overflow="visible" width="3209.5346250000002px" height="2886.876190725311px"><defs><polygon id="masterspot-illustrationstats-and-graphs-path-1" points="-1.8189894e-12 115.06 382.454938 115.06 382.454938 354.503 -1.8189894e-12 354.503"></polygon><polygon id="masterspot-illustrationstats-and-graphs-path-3" points="0 0.1617 396.768949 0.1617 396.768949 222.999651 0 222.999651"></polygon><polygon id="masterspot-illustrationstats-and-graphs-path-5" points="0.1808 0.1553 298.703924 0.1553 298.703924 343 0.1808 343"></polygon><polygon id="masterspot-illustrationstats-and-graphs-path-7" points="0.550418291 0.388 141.311628 0.388 141.311628 92.088834 0.550418291 92.088834"></polygon></defs><g id="Master/Spot Illustration/Stats and Graphs" stroke="none" stroke-width="1" fill="none" fill-rule="evenodd"><g id="Graph-1" transform="translate(1642.000000, 1544.000000)"><rect id="Rectangle" fill="#EECCDC" opacity=".331" x="0" y="0" width="1869" height="1428" rx="234"></rect><path d="M95,1341 C286.803394,957.561256 440.267905,765.841883 555.393532,765.841883 C728.081972,765.841883 682.334524,1031.97578 870.540379,1053.42094 C1058.74623,1074.8661 1281.98238,497.170792 1409.84721,463.163094 C1537.71204,429.155397 1464.80115,631.666125 1528.70506,631.666125 C1571.30767,631.666125 1657.40598,466.777417 1787,137" id="Path-8" stroke="#56ACF6" stroke-width="30" stroke-linecap="round" stroke-linejoin="round"></path><path d="M95,1140 C252.960592,979.187733 376.578134,912.830185 465.852624,940.927357 C599.764359,983.073114 810.497137,1065.3059 960.47563,822.152949 C1110.45412,579 1301.18789,839.818467 1424.53369,883.455869 C1506.76423,912.54747 1627.58633,811.062181 1787,579" id="Path-10" stroke="#E93737" stroke-width="30" stroke-linecap="round" stroke-linejoin="round"></path></g><g id="Group-3" transform="translate(2161.000000, 868.500000) scale(-1, 1) translate(-2161.000000, -868.500000) translate(1689.000000, 308.000000)"><g id="Group" transform="translate(220.368921, 0.000000)"><path d="M361.236678,78.0693816 C518.169345,78.0693816 645.388408,205.097653 645.388408,361.794966 C645.388408,518.49228 518.169345,645.520551 361.236678,645.520551 C204.304011,645.520551 77.0849482,518.49228 77.0849482,361.794966 C77.0849482,205.097653 204.304011,78.0693816 361.236678,78.0693816 Z M361.236678,208.087319 C276.079417,208.087319 207.045817,276.904577 207.045817,361.794966 C207.045817,446.685356 276.079417,515.502613 361.236678,515.502613 C446.393939,515.502613 515.427539,446.685356 515.427539,361.794966 C515.427539,276.904577 446.393939,208.087319 361.236678,208.087319 Z" id="Combined-Shape-Copy-4" fill="#EECCDC" transform="translate(361.236678, 361.794966) rotate(-109.000000) translate(-361.236678, -361.794966)"></path><path d="M268.119773,327.393064 L143.873559,365.853685 C130.165816,321.715575 97.1640427,286.070465 54.729607,268.778985 L103.78733,147.943835 C182.060237,179.9025 242.913339,245.804034 268.119773,327.393064 Z" id="Combined-Shape-Copy-5" fill="#EA4343" transform="translate(161.424690, 256.899259) rotate(-109.000000) translate(-161.424690, -256.899259)"></path><path d="M615.756357,494.540292 L520.705089,583.526955 C489.780592,550.360388 466.674704,509.778609 454.331758,464.732441 L579.569558,429.773637 C586.255973,454.3458 598.860499,476.47725 615.756357,494.540292 Z" id="Combined-Shape-Copy-6" fill="#56ACF6" transform="translate(535.044057, 506.650296) rotate(-109.000000) translate(-535.044057, -506.650296)"></path></g><g id="Group-Copy" transform="translate(0.000000, 678.041958)"><path d="M220.320822,47.6621418 C316.035173,47.6621418 393.626985,125.214177 393.626985,220.879462 C393.626985,316.544746 316.035173,394.096781 220.320822,394.096781 C124.606471,394.096781 47.0146588,316.544746 47.0146588,220.879462 C47.0146588,125.214177 124.606471,47.6621418 220.320822,47.6621418 Z M220.320822,127.039399 C168.382802,127.039399 126.278718,169.053026 126.278718,220.879462 C126.278718,272.705897 168.382802,314.719524 220.320822,314.719524 C272.258842,314.719524 314.362926,272.705897 314.362926,220.879462 C314.362926,169.053026 272.258842,127.039399 220.320822,127.039399 Z" id="Combined-Shape-Copy-4" fill="#EECCDC" transform="translate(220.320822, 220.879462) rotate(-109.000000) translate(-220.320822, -220.879462)"></path><path d="M163.528326,199.877828 L87.7497499,223.358663 C79.3893352,196.411483 59.2610062,174.649466 33.3795198,164.092861 L63.3007446,90.3220208 C111.040018,109.833145 148.154794,150.066794 163.528326,199.877828 Z" id="Combined-Shape-Copy-5" fill="#204EB2" transform="translate(98.453821, 156.840016) rotate(-109.000000) translate(-98.453821, -156.840016)"></path><path d="M375.553729,301.922313 L317.581319,356.249601 C298.720301,336.001106 284.627891,311.225569 277.09985,283.724488 L353.483056,262.380978 C357.561078,277.38278 365.24871,290.894479 375.553729,301.922313 Z" id="Combined-Shape-Copy-6" fill="#EA4343" transform="translate(326.326789, 309.315290) rotate(-109.000000) translate(-326.326789, -309.315290)"></path></g></g><g id="Group-2" transform="translate(3094.000000, 867.000000) scale(-1, 1) translate(-3094.000000, -867.000000) translate(2678.000000, 453.000000)"><path d="M416,0 C645.750456,0 832,185.354114 832,414 C832,642.645886 645.750456,828 416,828 C186.249544,828 0,642.645886 0,414 C0,185.354114 186.249544,0 416,0 Z M416,189.716505 C291.32921,189.716505 190.263566,290.131646 190.263566,414 C190.263566,537.868354 291.32921,638.283495 416,638.283495 C540.67079,638.283495 641.736434,537.868354 641.736434,414 C641.736434,290.131646 540.67079,189.716505 416,189.716505 Z" id="Combined-Shape-Copy-4" fill="#EECCDC"></path><path d="M811.871162,290.777863 L630.210052,346.864745 C610.167928,282.498617 561.915182,230.517772 499.870652,205.302133 L571.59946,29.0921949 C686.042885,75.6966196 775.016667,171.798936 811.871162,290.777863 Z" id="Combined-Shape-Copy-5" fill="#EA4343"></path><path d="M250.494198,566.449213 L110.898147,695.96689 C65.4810612,647.693982 31.5467463,588.628467 13.419391,523.065179 L197.349218,472.183911 C207.16909,507.947678 225.680454,540.159115 250.494198,566.449213 Z" id="Combined-Shape-Copy-6" fill="#56ACF6"></path></g><ellipse id="Floor" fill="#D5ECFF" opacity=".5" cx="1982" cy="3206" rx="1602" ry="58"></ellipse><g transform="translate(-100.000000, 706.000000) scale(1 1)" id="Master/Character/Standing"><defs><polygon id="mastercharacterstanding-path-1" points="0.893394597 0.106 258.492632 0.106 258.492632 218.7317 0.893394597 218.7317"></polygon></defs><g id="Master/Character/Standing" stroke="none" stroke-width="1" fill="none" fill-rule="evenodd"><g id="Lower Body/Standing" transform="translate(503.000000, 943.000000) scale(1 1)"><defs><polygon id="lower-bodystandingchill-stance-path-1" points="0.468544226 0.286 53.515 0.286 53.515 107.756 0.468544226 107.756"></polygon></defs><g id="Lower Body/Standing/Chill Stance" stroke="none" stroke-width="1" fill="none" fill-rule="evenodd"><g id="Group-22" transform="translate(422.000000, -1.000000)"><polygon id="Fill-1" fill="#f6cbc3" points="206.6874 1313.0332 196.9454 1386.7082 257.2254 1398.8862 284.0164 1324.6012"></polygon><polygon id="Fill-2" fill="#f6cbc3" points="565.3222 1118.7978 607.2572 1118.5278 530.0072 1233.8778 494.6912 1193.6918"></polygon><g id="Group-21" transform="translate(0.000000, 0.420000)"><g id="Group-5" fill="#204EB2"><path d="M449.2298,1227.9879 C445.2498,1227.9879 433.4398,1214.6279 416.2498,1191.8879 L392.6098,1327.8169 C240.6498,1350.7879 177.0498,1306.6179 177.0498,1306.6179 L221.7198,902.8679 C153.3198,796.2079 91.4709165,688.59 65.0698,649.9479 C-15.1454011,532.5406 2,0.58 2,0.58 C113.41,3.62 452,0.58 452,0.58 C452,0.58 478.2198,553.9079 478.2198,602.8279 C478.2198,651.7579 451.0398,860.1479 451.0398,860.1479 C451.0398,860.1479 586.9398,1088.4579 577.8798,1110.2079 C568.8198,1131.9479 472.7798,1227.9879 449.2298,1227.9879 Z" id="Fill-3"></path></g><path d="M254.092047,201.179092 L254.268242,201.187511 C255.921003,201.303901 257.166478,202.738081 257.050089,204.390842 L256.847945,207.514447 C256.778708,208.63601 256.704634,209.881929 256.626638,211.248322 L256.425591,214.885497 C256.174764,219.57077 255.926667,224.772599 255.691775,230.446451 C253.161712,291.560621 253.759407,358.022391 259.674559,420.476525 C266.509348,492.640499 279.805739,550.178245 300.712777,587.557646 L325.383112,631.727823 L353.550621,682.272824 C371.31073,714.171295 389.87809,747.568204 408.554303,781.196963 L451.974464,859.446861 C452.777618,860.896036 452.253915,862.72191 450.804739,863.525064 C449.409237,864.298472 447.664423,863.841487 446.819913,862.51253 L405.503055,788.060996 C386.681974,754.168573 367.943653,720.461184 350.002198,688.233911 L322.974072,639.725888 C313.164473,622.137263 303.971391,605.674946 295.476223,590.486554 C274.067279,552.209804 260.608255,493.968287 253.70129,421.042265 C247.756525,358.275456 247.156557,291.561002 249.69691,230.198269 L249.839989,226.835877 C250.080843,221.327574 250.332946,216.300657 250.585809,211.799577 L250.859423,207.143482 L251.064911,203.969358 C251.177144,202.375624 252.51472,201.160604 254.092047,201.179092 Z" id="Stroke-6" fill="#000" fill-rule="nonzero"></path><path d="M288.640408,990.795302 C289.993382,989.949697 291.759781,990.314448 292.672897,991.597236 L292.774398,991.749308 L417.211398,1190.84931 C418.089526,1192.25432 417.662403,1194.10517 416.257392,1194.9833 C414.904418,1195.8289 413.138019,1195.46415 412.224903,1194.18136 L412.123402,1194.02929 L287.686402,994.929292 C286.808274,993.524281 287.235397,991.673431 288.640408,990.795302 Z" id="Stroke-8" fill="#000" fill-rule="nonzero"></path><path d="M262.4702,1384.5616 C262.4702,1384.5616 270.4162,1382.9746 270.4162,1389.9216 C270.4162,1396.8676 262.4702,1440.1336 270.1482,1474.5006 C277.8252,1508.8676 322.4302,1553.4726 213.4782,1554.9356 C104.5272,1556.3976 129.7542,1513.9876 142.5502,1497.5346 C155.3462,1481.0816 182.6332,1442.0066 188.8482,1417.8766 C195.0642,1393.7456 191.5422,1373.5926 198.4882,1370.3026 C198.4882,1370.3026 229.9312,1383.8296 262.4702,1384.5616 Z" id="Fill-10" fill="#237978"></path><path d="M134.2812,1538.75 C153.4222,1554.646 185.8652,1560.81 238.0972,1554.646 C290.3292,1548.482 291.3032,1528.368 283.1922,1509.226 C283.1922,1509.226 191.6962,1520.231 142.5502,1497.535 C142.5502,1497.535 115.1402,1522.852 134.2812,1538.75 Z" id="Fill-12" fill="#F9C818"></path><path d="M519.2728,1221.677 C519.2728,1221.677 513.0068,1224.625 519.6408,1233.47 C526.2748,1242.314 533.6268,1263.323 545.8988,1307.638 C558.1708,1351.952 561.5788,1371.041 564.9878,1428.309 C568.3968,1485.577 562.9418,1565.343 608.6208,1541.481 C654.2978,1517.62 671.3418,1439.899 663.1608,1392.857 C654.9798,1345.816 637.2548,1297.411 652.2528,1238.098 C667.2518,1178.785 678.1598,1141.288 644.0718,1129.698 C609.9838,1118.108 578.2768,1107.984 578.1088,1120.204 C578.1088,1120.204 579.7128,1194.037 519.2728,1221.677 Z" id="Fill-14" fill="#237978"></path><path d="M663.9044,1448.8431 C663.9044,1448.8431 650.9974,1549.9531 589.6854,1547.2631 C589.6854,1547.2631 567.0974,1554.2561 566.0214,1468.7421 C566.0214,1468.7421 569.2484,1509.0791 663.9044,1448.8431 Z" id="Fill-16" fill="#F9C818"></path><g id="Group-20" transform="translate(614.000000, 1120.000000)"><mask id="lower-bodystandingchill-stance-mask-2" fill="#fff"><use xlink:href="#lower-bodystandingchill-stance-path-1"></use></mask><g id="Clip-19"></g><path d="M2.082,0.286 C2.082,0.286 -11.696,71.32 41.273,107.756 C41.273,107.756 59.644,48.662 51.377,29.067 C43.11,9.472 30.863,8.553 2.082,0.286" id="Fill-18" fill="#F9C818" mask="url(#lower-bodystandingchill-stance-mask-2)"></path></g></g></g></g></g><g id="Upper Body" transform="translate(376.000000, 69.000000) scale(1 1)"><defs><polygon id="upper-bodywith-phone-path-1" points="7.50962456e-05 0.5155 704.395 0.5155 704.395 617 7.50962456e-05 617"></polygon></defs><g id="Upper Body/With Phone" stroke="none" stroke-width="1" fill="none" fill-rule="evenodd"><path d="M724.954254,220 C724.954254,220 721.26343,301.153386 673.924004,329.799638 C630.972611,355.790794 721.968632,506.610475 819.857852,497.613536 C873.442212,492.688212 886,346.158072 886,346.158072 C886,346.158072 842.733964,337.796917 858.715877,271.819367 L724.954254,220 Z" id="Neck" fill="#f6cbc3"></path><path d="M803.337113,302.515641 C739.876612,294.840687 694.077698,253.11575 687.664652,183.898064 C669.216286,186.83496 664.86504,138.764927 670.003065,123.322958 C675.146083,107.858975 691.933027,116.900812 691.933027,116.900812 C692.862251,114.457234 693.652358,111.898916 694.303348,109.225857 C722.02532,-4.48555283 799.669805,0.0243586862 799.669805,0.0243586862 C942.344355,7.45715716 908.914243,153.120195 900.762895,191.763142 C892.610548,230.410091 864.683894,309.927426 803.337113,302.515641 Z" id="Head" fill="#f6cbc3"></path><g id="Group-20" transform="translate(427.000000, 325.000000)"><path d="M144.5029,334.2442 L108.4849,671.3632 C108.4849,671.3632 364.9269,717.4652 586.7909,645.4312 L599.7569,348.6512 C599.7569,348.6512 448.005567,343.848867 144.5029,334.2442 Z" id="Fill-1" fill="#000"></path><g id="Group-3" transform="translate(0.000000, 0.485000)"><mask id="upper-bodywith-phone-mask-2" fill="#fff"><use xlink:href="#upper-bodywith-phone-path-1"></use></mask><g id="Clip-2"></g><path d="M110.2242,571.7275 C110.2242,571.7275 -12.9758,494.9075 1.1242,370.3175 C15.2242,245.7275 67.7462,75.6355 157.9852,40.6815 C248.2242,5.7275 251.0592,0.5155 251.0592,0.5155 C251.0592,0.5155 287.2242,47.7275 350.2242,50.7275 C413.2242,53.7275 454.2242,18.7275 454.2242,18.7275 C454.2242,18.7275 577.9532,48.1985 613.5892,103.9625 C649.2242,159.7275 740.2242,408.7275 689.2242,487.7275 C638.2242,566.7275 539.5942,589.7465 539.5942,589.7465 C539.5942,589.7465 238.2242,661.7275 110.2242,571.7275" id="Fill-1" fill="#000" mask="url(#upper-bodywith-phone-mask-2)"></path></g><path d="M287.2242,342.9967 L286.3152,262.9967 C286.3152,262.9967 283.5882,245.9967 309.9522,244.9967 C336.3152,243.9967 407.2242,242.9967 407.2242,242.9967 C407.2242,242.9967 424.4972,238.9967 425.4062,263.9967 C426.3152,288.9967 427.2242,374.9967 427.2242,374.9967 L318.1332,405.9967 L277.2242,403.9967 L287.2242,342.9967 Z" id="Fill-4" fill="#204EB2"></path><path d="M277.8081,403.525 L318.0761,405.493 L426.7201,374.62 C426.6521,368.343 425.7741,287.874 424.9071,264.015 C424.5891,255.297 422.2501,249.21 417.9541,245.921 C413.1021,242.205 407.3951,243.469 407.3371,243.484 L407.2311,243.497 C406.5221,243.506 336.0261,244.508 309.9711,245.497 C300.3941,245.86 293.6301,248.364 289.8671,252.938 C286.0251,257.609 286.8001,262.866 286.8081,262.919 L287.7251,343.035 L287.7181,343.078 L277.8081,403.525 Z M318.1911,406.5 L318.1091,406.496 L276.6401,404.468 L286.7241,342.959 L285.8151,263.003 C285.7841,262.844 284.9591,257.346 289.0811,252.32 C293.0311,247.504 300.0461,244.872 309.9331,244.497 C335.7041,243.519 404.9121,242.53 407.1661,242.498 C407.8251,242.356 413.5421,241.282 418.5621,245.127 C423.1071,248.606 425.5781,254.949 425.9061,263.978 C426.8051,288.699 427.7151,374.131 427.7241,374.992 L427.7281,375.374 L427.3611,375.477 L318.1911,406.5 Z" id="Fill-6" fill="#000"></path><path d="M286.2837,265.9889 L286.2237,252.2129 C286.2237,252.2129 286.2237,241.2129 301.2237,240.2129 C316.2237,239.2129 405.2237,237.2129 405.2237,237.2129 C405.2237,237.2129 417.2237,236.2129 422.2237,243.2129 C427.2237,250.2129 425.6367,267.2299 425.6367,267.2299 C425.6367,267.2299 425.0797,243.3829 405.1527,243.7979 C385.2237,244.2129 307.6987,245.8149 307.6987,245.8149 C307.6987,245.8149 287.3437,243.7639 286.2837,265.9889" id="Fill-8" fill="#56ACF6"></path><path d="M405.6617,243.2926 C419.2487,243.2926 423.8297,254.5696 425.3677,261.6416 C425.4017,256.0966 424.8827,247.7946 421.8177,243.5036 C417.0377,236.8126 405.3817,237.6986 405.2657,237.7106 C404.3457,237.7316 316.0747,239.7236 301.2577,240.7116 C295.2867,241.1086 290.8817,243.2356 288.5177,246.8606 C286.7447,249.5796 286.7237,252.1866 286.7237,252.2126 L286.7557,259.5216 C287.8327,255.5776 289.7627,252.3926 292.5267,250.0106 C298.9197,244.4986 307.3907,245.2816 307.7487,245.3176 C307.6887,245.3146 385.2137,243.7126 405.1417,243.2976 C405.3157,243.2936 405.4907,243.2926 405.6617,243.2926 M426.1347,267.2766 L425.1367,267.2416 C425.1347,267.1836 424.9657,261.2876 422.3987,255.5356 C418.9967,247.9106 413.2067,244.1186 405.1627,244.2976 C385.2347,244.7126 307.7087,246.3146 307.7087,246.3146 C307.5667,246.3036 299.2327,245.5446 293.1717,250.7736 C289.2537,254.1556 287.1037,259.2826 286.7837,266.0126 L285.7837,265.9906 L285.7237,252.2146 C285.7237,252.0986 285.9007,240.7326 301.1907,239.7136 C316.0307,238.7246 404.3227,236.7326 405.2127,236.7126 C405.6847,236.6726 417.5237,235.7726 422.6307,242.9216 C427.6817,249.9916 426.1997,266.5736 426.1347,267.2766" id="Fill-10" fill="#000"></path><path d="M287.4356,310.9723 C287.4356,310.9723 273.0126,320.2443 268.3766,325.9103 C263.7406,331.5763 267.8616,332.6073 257.5596,343.4243 C247.2576,354.2423 228.7136,381.5423 261.1646,423.2663 C293.6176,464.9903 304.4346,461.3833 317.8276,454.1723 C331.2196,446.9603 332.7656,441.8103 358.0056,439.2343 C383.2456,436.6593 407.4556,411.9333 406.9406,405.7523 L406.4256,399.5713 C406.4256,399.5713 429.6046,390.8143 428.0606,381.0273 C426.5146,371.2403 419.8186,372.2703 419.8186,372.2703 C419.8186,372.2703 424.4546,367.6343 420.8486,359.3923 C417.2426,351.1513 400.2446,352.6963 380.6696,355.2723 C361.0966,357.8473 310.6156,368.1493 307.5246,366.0893 C304.4346,364.0293 305.4646,360.9383 317.3116,359.3923 C329.1596,357.8473 377.0646,357.3323 377.0646,343.9393 C377.0646,330.5463 362.6416,327.9713 334.8256,328.4863 C307.0096,329.0013 301.8586,327.4553 295.1626,330.0323 L288.4656,332.6073 L287.4356,310.9723 Z" id="Fill-12" fill="#f6cbc3"></path><path d="M420.2242,372.2125 C420.2242,372.2125 421.7042,371.1445 410.6812,375.3535 C406.6672,376.8855 401.0072,378.4845 393.0332,379.9965 C363.1562,385.6625 316.2822,395.9655 301.8592,398.0255 C287.4352,400.0865 299.2832,403.1765 332.2502,396.4805 C365.2172,389.7835 404.4622,380.8005 406.2242,380.2125 C409.2242,379.2125 418.2242,376.2125 420.2242,372.2125" id="Fill-14" fill="#995B5D"></path><path d="M395.6079,402.6618 C395.6079,402.6618 371.2239,411.2128 359.2239,414.2128 C346.4829,417.3978 336.8859,421.7208 334.3109,417.5998 C331.7349,413.4788 328.6439,412.4488 328.6439,412.4488 L324.5239,417.0848 C324.5239,417.0848 325.2239,422.2128 322.9779,422.7508 C318.9709,423.7118 311.1299,425.3268 311.1299,425.3268 C311.1299,425.3268 311.2239,428.2128 335.2239,423.2128 C341.1789,421.9728 352.2239,420.2128 359.2239,418.2128 C365.6629,416.3728 388.9119,410.3888 392.0029,407.8128 C395.0929,405.2368 395.6079,402.6618 395.6079,402.6618" id="Fill-16" fill="#995B5D"></path><path d="M319.8872,400.0866 C319.8872,400.0866 319.5072,420.8296 325.3632,420.5026 C331.2202,420.1756 333.2802,420.1756 334.3102,418.6296 C335.3412,417.0846 332.7652,411.9336 332.7652,406.2676 C332.7652,400.6016 332.7652,398.0256 328.1292,398.5406 C323.4932,399.0566 320.4022,399.0566 319.8872,400.0866" id="Fill-18" fill="#F9C818"></path></g></g></g><g id="Expression" transform="translate(1098.000000, 152.000000) scale(1 1)"><defs><polygon id="expressionmake-up-path-1" points="0.000139166 0.824 77.7317814 0.824 77.7317814 24.5342 0.000139166 24.5342"></polygon><polygon id="expressionmake-up-path-3" points="0.528516447 0.459695949 51.522 0.459695949 51.522 17.6481 0.528516447 17.6481"></polygon></defs><g id="Expression/Make Up" stroke="none" stroke-width="1" fill="none" fill-rule="evenodd"><g id="Group-19" transform="translate(21.000000, 25.000000)"><path d="M48.7225,42.3772 C48.7225,45.6902 46.0365,48.3772 42.7225,48.3772 C39.4085,48.3772 36.7225,45.6902 36.7225,42.3772 C36.7225,39.0642 39.4085,36.3772 42.7225,36.3772 C46.0365,36.3772 48.7225,39.0642 48.7225,42.3772" id="Fill-1" fill="#000"></path><path d="M128.2225,55.8772 C128.2225,59.1902 125.5365,61.8772 122.2225,61.8772 C118.9085,61.8772 116.2225,59.1902 116.2225,55.8772 C116.2225,52.5642 118.9085,49.8772 122.2225,49.8772 C125.5365,49.8772 128.2225,52.5642 128.2225,55.8772" id="Fill-3" fill="#000"></path><path d="M38.7602967,127.4406 C38.7602967,127.4406 38.5224,143.3896 60.8994,146.2466 C83.2764,149.1026 93.2754,146.2466 92.7994,136.0096 C92.7994,136.0096 89.2284,124.8216 83.9904,124.3456 C78.7534,123.8696 73.2784,126.7256 73.2784,126.7256 C73.2784,126.7256 68.0414,119.8226 62.5664,120.5366 C57.0904,121.2516 46.1404,127.6776 38.7602967,127.4406" id="Fill-12" fill="#CE4129"></path><g id="Group-7" transform="translate(0.000000, 0.176000)"><mask id="expressionmake-up-mask-2" fill="#fff"><use xlink:href="#expressionmake-up-path-1"></use></mask><g id="Clip-6"></g><path d="M75.2174,24.5342 C75.2174,24.5342 46.3264,16.5272 38.7954,14.2512 C31.2644,11.9732 29.6884,10.3972 20.7554,11.2732 C11.8234,12.1482 1.6644,14.0752 0.0884,12.3242 C-1.4876,10.5722 18.4784,1.8152 25.1344,0.9392 C31.7894,0.0632 71.0984,4.1602 76.1354,13.9092 C80.2014,21.7792 75.2174,24.5342 75.2174,24.5342" id="Fill-5" fill="#000" mask="url(#expressionmake-up-mask-2)"></path></g><path d="M78.12,136.0759 C61.805,133.9009 42.292,131.0109 36.169,127.9499 C31.701,125.7149 30.056,126.2769 30.04,126.2839 C30.041,126.2839 31.473,121.1309 37.957,124.3709 C44.269,127.5279 70.145,130.9779 78.649,132.1119 C93.524,134.0939 94.866,133.3269 96.565,132.3579 L98.549,135.8299 C96.903,136.7719 95.349,137.3469 91.831,137.3469 C88.952,137.3469 84.758,136.9609 78.12,136.0759 Z" id="Fill-10" fill="#000"></path><g id="Group-16" transform="translate(109.000000, 18.176000)"><mask id="expressionmake-up-mask-4" fill="#fff"><use xlink:href="#expressionmake-up-path-3"></use></mask><g id="Clip-15"></g><path d="M0.5721,10.3701 C0.5721,10.3701 1.2001,4.0961 8.8551,1.3351 C16.5101,-1.4259 43.2401,3.0921 45.2481,4.5981 C47.2551,6.1031 50.8951,9.7431 51.5221,17.6481 C51.5221,17.6481 48.6271,11.6261 43.3571,10.6221 C38.0861,9.6181 21.6551,14.1351 11.2391,14.0101 C0.8231,13.8841 0.3211,12.6291 0.5721,10.3701" id="Fill-14" fill="#000" mask="url(#expressionmake-up-mask-4)"></path></g><path d="M65.4615,198.176 C51.6075,198.176 37.2855,194.136 27.0135,190.404 C13.8545,185.623 4.3075,180.297 4.2125,180.244 L5.6805,177.627 C6.0515,177.836 43.1465,198.389 72.7935,194.746 L73.1605,197.723 C70.6315,198.034 68.0535,198.176 65.4615,198.176" id="Fill-17" fill="#000"></path></g><g id="Group-124" transform="translate(25.000000, 52.000000)" fill-rule="nonzero"><path d="M98.9388073,0.515726772 L102.747593,1.73767323 L102.375135,2.93095324 C102.075892,3.9043293 101.742122,5.01790967 101.382468,6.25291663 C100.354215,9.78380887 99.3257634,13.5761133 98.3662837,17.478955 C97.2996742,21.8175645 96.3854385,26.0250163 95.6702376,29.9976992 L95.4631649,31.1740325 C93.7257688,41.2776329 93.4803733,48.9926374 95.0328764,53.1417647 L95.1244408,53.3771728 C104.002358,75.340079 91.9464166,86.4779502 66.6424816,78.6786942 L65.8716485,78.4365483 L67.0907515,74.6268517 C89.8846425,81.9208968 99.0260452,73.7026714 91.4159925,54.8763096 C89.3210345,49.6942966 89.6433125,40.8993486 91.7335247,29.288974 C92.4647551,25.2272527 93.3964651,20.9393815 94.4819426,16.5240234 C95.3476055,13.0027971 96.2678852,9.57278889 97.1943734,6.33814281 L97.5420029,5.13451153 C97.7507758,4.41761123 97.9510908,3.74056192 98.1413397,3.10683734 L98.6297394,1.50244969 L98.9388073,0.515726772 Z" id="Stroke-114" fill="#000"></path><path d="M0.1850015,153.534088 L2.1419985,150.045512 L2.85620174,150.434727 L3.51128674,150.782909 C4.50308988,151.305335 5.6321651,151.880908 6.88714027,152.498006 L7.43266178,152.764985 C11.6537624,154.821142 16.3218862,156.878362 21.3004212,158.797989 C32.7483158,163.212076 44.0600582,166.224884 54.584272,167.202241 C59.3535856,167.645156 63.8735301,167.656119 68.1063644,167.201856 L68.9490919,167.10479 L69.4379081,171.07481 C64.6629697,171.662733 59.5745075,171.682884 54.2143935,171.185103 C43.2765951,170.169337 31.6251616,167.066055 19.8613669,162.530163 C14.7706849,160.567294 9.99959664,158.464698 5.68097489,156.361037 L4.04785364,155.55429 C3.35348222,155.206284 2.70158001,154.872883 2.09423579,154.556252 L0.962732129,153.958187 L0.1850015,153.534088 Z" id="Stroke-122" fill="#C86A5D"></path></g><g id="Group-16" transform="translate(90.000000, 52.000000)" fill="#000"><path d="M15.8252,81.1664 C11.7822,81.1664 6.7382,80.3754 0.4432,78.3614 L1.6612,74.5514 C13.3852,78.3024 22.0452,77.9964 26.0462,73.6874 C29.4492,70.0204 29.4282,63.3134 25.9872,54.8014 C23.6522,49.0264 24.2292,38.0734 27.7022,22.2454 C30.2432,10.6624 33.4772,0.5414 33.5102,0.4404 L37.3182,1.6624 C33.8112,12.5954 25.6062,43.1874 29.6952,53.3024 C34.8932,66.1604 32.1742,72.9644 28.9772,76.4084 C26.6972,78.8664 22.7182,81.1664 15.8252,81.1664" id="Fill-5"></path></g></g></g><g id="Hairstyle" transform="translate(607.000000, -175.000000) scale(1 1)"><g id="Hairstyle/Double Bun" stroke="none" stroke-width="1" fill="none" fill-rule="evenodd"><g id="Group-13" transform="translate(413.000000, 178.000000)"><path d="M185.4792,101.481 C185.4792,101.481 100.3482,103.373 75.7552,169.585 C51.1622,235.798 73.1162,257.966 54.1612,298.684 C35.2072,339.401 0.1062,342.911 0.1062,342.911 C0.1062,342.911 47.8432,313.426 48.5452,277.624 C49.2472,241.82 46.8652,187.377 47.3542,185.464 C47.8432,183.552 28.9122,178.451 25.3902,191.883 C25.3902,191.883 14.2412,112.021 57.1422,65.883 C118.1362,0.285 273.0272,28.528 267.5532,147.585 C263.6322,232.863 270.8322,262.974 270.8322,262.974 C270.8322,262.974 264.7822,228.521 261.8492,195.767 C258.9162,163.013 251.6222,120.46 198.0442,102.473 C198.0442,102.473 176.2302,82.573 169.7242,81.042 C163.2182,79.511 187.8392,93.217 185.4792,101.481" id="Fill-1" fill="#000"></path><path d="M185.4792,101.481 C185.4792,101.481 100.3482,103.373 75.7552,169.585 C51.1622,235.798 73.1162,257.966 54.1612,298.684 C35.2072,339.401 0.1062,342.911 0.1062,342.911 C0.1062,342.911 47.8432,313.426 48.5452,277.624 C49.2472,241.82 46.8652,187.377 47.3542,185.464 C47.8432,183.552 28.9122,178.451 25.3902,191.883 C25.3902,191.883 14.2412,112.021 57.1422,65.883 C118.1362,0.285 273.0272,28.528 267.5532,147.585 C263.6322,232.863 270.8322,262.974 270.8322,262.974 C270.8322,262.974 264.7822,228.521 261.8492,195.767 C258.9162,163.013 251.6222,120.46 198.0442,102.473 C198.0442,102.473 176.2302,82.573 169.7242,81.042 C163.2182,79.511 187.8392,93.217 185.4792,101.481 Z" id="Stroke-3" stroke="#000"></path><path d="M96.2903,87.2213 C96.2903,87.2213 58.7633,109.7373 30.2433,73.7113 C1.7233,37.6863 45.2543,3.1613 82.7803,3.1613 C120.3073,3.1613 133.8173,25.6773 130.8143,49.6953 C127.8123,73.7113 112.8023,81.2173 96.2903,87.2213" id="Fill-5" fill="#000"></path><path d="M96.2903,87.2213 C96.2903,87.2213 58.7633,109.7373 30.2433,73.7113 C1.7233,37.6863 45.2543,3.1613 82.7803,3.1613 C120.3073,3.1613 133.8173,25.6773 130.8143,49.6953 C127.8123,73.7113 112.8023,81.2173 96.2903,87.2213 Z" id="Stroke-7" stroke="#000"></path><path d="M249.7271,5.6187 C249.7271,5.6187 291.9461,12.5147 294.2141,55.9677 C296.4801,99.4197 242.7891,97.4637 213.2051,74.3767 C183.6211,51.2887 185.6061,26.7867 201.4511,11.3627 C217.2951,-4.0603 233.3411,-0.2223 249.7271,5.6187" id="Fill-9" fill="#000"></path><path d="M249.7271,5.6187 C249.7271,5.6187 291.9461,12.5147 294.2141,55.9677 C296.4801,99.4197 242.7891,97.4637 213.2051,74.3767 C183.6211,51.2887 185.6061,26.7867 201.4511,11.3627 C217.2951,-4.0603 233.3411,-0.2223 249.7271,5.6187 Z" id="Stroke-11" stroke="#000"></path></g></g></g><g id="Accessories" transform="translate(1051.000000, 185.000000) scale(1 1)" fill="#000"><g id="Accessories/Glasses and Earring" stroke="none" stroke-width="1" fill="none" fill-rule="evenodd"><g id="Group-136" transform="translate(21.000000, 0.000000)" fill="#000" fill-rule="nonzero"><path d="M85.2331,-3.5185 C64.1379939,-3.5185 47.0361,13.5830433 47.0361,34.6775 C47.0361,55.7726319 64.1376692,72.8735 85.2331,72.8735 C106.328381,72.8735 123.4291,55.7727814 123.4291,34.6775 C123.4291,13.5828939 106.328057,-3.5185 85.2331,-3.5185 Z M85.2331,5.4815 C101.357453,5.4815 114.4291,18.5534154 114.4291,34.6775 C114.4291,50.8022186 101.357819,63.8735 85.2331,63.8735 C69.1081493,63.8735 56.0361,50.8019866 56.0361,34.6775 C56.0361,18.5536474 69.1085154,5.4815 85.2331,5.4815 Z" id="Stroke-128"></path><path d="M179.1536,5.5889 C158.058169,5.5889 140.9566,22.6897681 140.9566,43.7849 C140.9566,64.8800319 158.058169,81.9809 179.1536,81.9809 C200.248881,81.9809 217.3496,64.8801814 217.3496,43.7849 C217.3496,22.6896186 200.248881,5.5889 179.1536,5.5889 Z M179.1536,14.5889 C195.278319,14.5889 208.3496,27.6601814 208.3496,43.7849 C208.3496,59.9096186 195.278319,72.9809 179.1536,72.9809 C163.028649,72.9809 149.9566,59.9093866 149.9566,43.7849 C149.9566,27.6604134 163.028649,14.5889 179.1536,14.5889 Z" id="Stroke-130"></path><path d="M-3.64184511,7.30994196 C-2.74598214,5.07028454 -0.252551778,3.94709164 2.00319591,4.726899 L2.20755804,4.80305489 L52.207558,24.8030549 C54.5150839,25.7260652 55.6374554,28.3449322 54.7144451,30.652458 C53.8185821,32.8921155 51.3251518,34.0153084 49.0694041,33.235501 L48.865042,33.1593451 L-1.13495804,13.1593451 C-3.44248387,12.2363348 -4.56485544,9.61746778 -3.64184511,7.30994196 Z" id="Stroke-132"></path><path d="M114.843511,36.5654718 C115.110544,34.1660118 117.218034,32.4181733 119.60255,32.5722482 L119.813628,32.5908106 L146.033628,35.5088106 C148.503661,35.7836983 150.283177,38.0088957 150.008289,40.4789282 C149.741256,42.8783882 147.633766,44.6262267 145.24925,44.4721518 L145.038172,44.4535894 L118.818172,41.5355894 C116.348139,41.2607017 114.568623,39.0355043 114.843511,36.5654718 Z" id="Stroke-134"></path></g><g id="Group-5" transform="translate(1.000000, 55.000000)" fill="#FFF"><path d="M21.5,11 C21.5,16.799 16.8,21.5 11,21.5 C5.201,21.5 0.5,16.799 0.5,11 C0.5,5.2 5.201,0.5 11,0.5 C16.8,0.5 21.5,5.2 21.5,11" id="Fill-1"></path></g></g></g><g id="Facial Hair" transform="translate(1061.000000, 186.000000) scale(1 1)" fill="#000"><g id="Facial Hair/None" stroke="none" stroke-width="1" fill="none" fill-rule="evenodd" fill-opacity="0"></g></g></g></g></g></svg>