<svg viewBox="515 437.5 1454.3750000000007 1624.9999999999995" xmlns="http://www.w3.org/2000/svg" xmlns:xlink="http://www.w3.org/1999/xlink" overflow="visible" width="1454.3750000000007px" height="1624.9999999999995px"><defs><polygon id="mastercharacteravatar-path-1" points="1.87952991 1.58079744 195.807393 1.58079744 195.807393 195.192308 1.87952991 195.192308"></polygon></defs><g id="Master/Character/Avatar" stroke="none" stroke-width="1" fill="none" fill-rule="evenodd"><g id="Avatar Background" opacity=".747" transform="translate(376.000000, 422.000000) scale(1 1)"><g id="Avatar Background/Backdrop 2" stroke="none" stroke-width="1" fill="none" fill-rule="evenodd"><path d="M1311.43525,63.7596263 C1083.62091,-93.3599731 783.402543,49.8954271 640.879811,383.730268 L640.774057,383.976881 C634.065576,399.698545 622.671627,411.809748 607.642226,419.008022 C534.991542,453.804843 464.768811,500.345734 400.219084,558.49569 C100.714287,828.306135 36.6614585,1245.64185 257.147858,1490.6395 C477.634257,1735.63714 899.169988,1715.52533 1198.67479,1445.71488 C1352.3358,1307.28856 1444.0215,1130.0289 1467.1006,957.135105 C1468.02878,950.178507 1469.72004,943.586205 1472.1902,937.495275 C1606.25373,606.871465 1535.7988,218.498472 1311.43525,63.7596263" id="Fill-3" fill="#FFF5F3" transform="translate(833.000000, 831.000000) scale(1, -1) rotate(-68.000000) translate(-833.000000, -831.000000)"></path></g></g><path d="M1602.87669,1411.34102 C1581.5863,1511.97875 1508.65401,1719.03874 1348.44285,1699.73875 C1182.71158,1679.75347 1063.1047,1571.10078 1046.35661,1390.86067 C998.17749,1398.51084 986.813925,1273.33837 1000.22961,1233.12549 C1013.66354,1192.8605 1057.50375,1216.40508 1057.50375,1216.40508 L1056.81798,1227.32794 C1058.84663,1217.16593 1061.14385,1206.85801 1063.694,1196.41981 C1136.09176,900.319798 1338.86544,912.063429 1338.86544,912.063429 C1711.46941,931.415536 1624.16447,1310.71892 1602.87669,1411.34102" id="Fill-114" fill="#ecafa3"></path><g id="Hairstyle" transform="translate(-144.000000, 277.000000) scale(2.6053268765133173 2.606425702811245)"><g id="Hairstyle/Bob" stroke="none" stroke-width="1" fill="none" fill-rule="evenodd"><path d="M359,546.688025 C359,546.688025 368.956,407.470025 401.03,324.865025 C441.336,221.054025 509.651,178.826025 568.391,198.822025 C568.391,198.822025 652.125,188.824025 678.37,262.560025 C704.615,336.296025 694.617,571.252025 694.617,571.252025 L628.379,566.253025 C628.379,566.253025 619.006,541.258025 623.38,522.512025 C623.38,522.512025 660.596,483.244025 671.063,424.277025 C685.12,345.101025 639.956,344.072025 601.838,327.200025 C563.72,310.328025 541.521,288.180025 541.521,288.180025 C541.521,288.180025 479.09,373.059025 489.759,552.915025 L359,546.688025 Z" id="Fill-1" fill="#000"></path></g></g><g id="Expression" transform="translate(1135.000000, 1128.000000) scale(2.603960396039604 2.611607142857143)"><defs><polygon id="expressionmake-up-meditating-path-1" points="0.000139166 0.824 77.7317814 0.824 77.7317814 24.5342 0.000139166 24.5342"></polygon><polygon id="expressionmake-up-meditating-path-3" points="0.528516447 0.459695949 51.522 0.459695949 51.522 17.6481 0.528516447 17.6481"></polygon></defs><g id="Expression/Make Up Meditating" stroke="none" stroke-width="1" fill="none" fill-rule="evenodd"><g id="Group-19" transform="translate(21.000000, 25.000000)"><path d="M38.7602967,127.4406 C38.7602967,127.4406 38.5224,143.3896 60.8994,146.2466 C83.2764,149.1026 93.2754,146.2466 92.7994,136.0096 C92.7994,136.0096 89.2284,124.8216 83.9904,124.3456 C78.7534,123.8696 73.2784,126.7256 73.2784,126.7256 C73.2784,126.7256 68.0414,119.8226 62.5664,120.5366 C57.0904,121.2516 46.1404,127.6776 38.7602967,127.4406" id="Fill-12" fill="#CE4129"></path><g id="Group-7" transform="translate(0.000000, 0.176000)"><mask id="expressionmake-up-meditating-mask-2" fill="#fff"><use xlink:href="#expressionmake-up-meditating-path-1"></use></mask><g id="Clip-6"></g><path d="M75.2174,24.5342 C75.2174,24.5342 46.3264,16.5272 38.7954,14.2512 C31.2644,11.9732 29.6884,10.3972 20.7554,11.2732 C11.8234,12.1482 1.6644,14.0752 0.0884,12.3242 C-1.4876,10.5722 18.4784,1.8152 25.1344,0.9392 C31.7894,0.0632 71.0984,4.1602 76.1354,13.9092 C80.2014,21.7792 75.2174,24.5342 75.2174,24.5342" id="Fill-5" fill="#000" mask="url(#expressionmake-up-meditating-mask-2)"></path></g><path d="M78.12,136.0759 C61.805,133.9009 42.292,131.0109 36.169,127.9499 C31.701,125.7149 30.056,126.2769 30.04,126.2839 C30.041,126.2839 31.473,121.1309 37.957,124.3709 C44.269,127.5279 70.145,130.9779 78.649,132.1119 C93.524,134.0939 94.866,133.3269 96.565,132.3579 L98.549,135.8299 C96.903,136.7719 95.349,137.3469 91.831,137.3469 C88.952,137.3469 84.758,136.9609 78.12,136.0759 Z" id="Fill-10" fill="#000"></path><g id="Group-16" transform="translate(109.000000, 18.176000)"><mask id="expressionmake-up-meditating-mask-4" fill="#fff"><use xlink:href="#expressionmake-up-meditating-path-3"></use></mask><g id="Clip-15"></g><path d="M0.5721,10.3701 C0.5721,10.3701 1.2001,4.0961 8.8551,1.3351 C16.5101,-1.4259 43.2401,3.0921 45.2481,4.5981 C47.2551,6.1031 50.8951,9.7431 51.5221,17.6481 C51.5221,17.6481 48.6271,11.6261 43.3571,10.6221 C38.0861,9.6181 21.6551,14.1351 11.2391,14.0101 C0.8231,13.8841 0.3211,12.6291 0.5721,10.3701" id="Fill-14" fill="#000" mask="url(#expressionmake-up-meditating-mask-4)"></path></g><path d="M65.4615,198.176 C51.6075,198.176 37.2855,194.136 27.0135,190.404 C13.8545,185.623 4.3075,180.297 4.2125,180.244 L5.6805,177.627 C6.0515,177.836 43.1465,198.389 72.7935,194.746 L73.1605,197.723 C70.6315,198.034 68.0535,198.176 65.4615,198.176" id="Fill-17" fill="#000"></path></g><g id="Group-124" transform="translate(25.000000, 52.000000)" fill-rule="nonzero"><path d="M98.9388073,0.515726772 L102.747593,1.73767323 L102.375135,2.93095324 C102.075892,3.9043293 101.742122,5.01790967 101.382468,6.25291663 C100.354215,9.78380887 99.3257634,13.5761133 98.3662837,17.478955 C97.2996742,21.8175645 96.3854385,26.0250163 95.6702376,29.9976992 L95.4631649,31.1740325 C93.7257688,41.2776329 93.4803733,48.9926374 95.0328764,53.1417647 L95.1244408,53.3771728 C104.002358,75.340079 91.9464166,86.4779502 66.6424816,78.6786942 L65.8716485,78.4365483 L67.0907515,74.6268517 C89.8846425,81.9208968 99.0260452,73.7026714 91.4159925,54.8763096 C89.3210345,49.6942966 89.6433125,40.8993486 91.7335247,29.288974 C92.4647551,25.2272527 93.3964651,20.9393815 94.4819426,16.5240234 C95.3476055,13.0027971 96.2678852,9.57278889 97.1943734,6.33814281 L97.5420029,5.13451153 C97.7507758,4.41761123 97.9510908,3.74056192 98.1413397,3.10683734 L98.6297394,1.50244969 L98.9388073,0.515726772 Z" id="Stroke-114" fill="#000"></path><path d="M0.1850015,153.534088 L2.1419985,150.045512 L2.85620174,150.434727 L3.51128674,150.782909 C4.50308988,151.305335 5.6321651,151.880908 6.88714027,152.498006 L7.43266178,152.764985 C11.6537624,154.821142 16.3218862,156.878362 21.3004212,158.797989 C32.7483158,163.212076 44.0600582,166.224884 54.584272,167.202241 C59.3535856,167.645156 63.8735301,167.656119 68.1063644,167.201856 L68.9490919,167.10479 L69.4379081,171.07481 C64.6629697,171.662733 59.5745075,171.682884 54.2143935,171.185103 C43.2765951,170.169337 31.6251616,167.066055 19.8613669,162.530163 C14.7706849,160.567294 9.99959664,158.464698 5.68097489,156.361037 L4.04785364,155.55429 C3.35348222,155.206284 2.70158001,154.872883 2.09423579,154.556252 L0.962732129,153.958187 L0.1850015,153.534088 Z" id="Stroke-122" fill="#C86A5D"></path></g><g id="Group-16" transform="translate(90.000000, 52.000000)" fill="#000"><path d="M15.8252,81.1664 C11.7822,81.1664 6.7382,80.3754 0.4432,78.3614 L1.6612,74.5514 C13.3852,78.3024 22.0452,77.9964 26.0462,73.6874 C29.4492,70.0204 29.4282,63.3134 25.9872,54.8014 C23.6522,49.0264 24.2292,38.0734 27.7022,22.2454 C30.2432,10.6624 33.4772,0.5414 33.5102,0.4404 L37.3182,1.6624 C33.8112,12.5954 25.6062,43.1874 29.6952,53.3024 C34.8932,66.1604 32.1742,72.9644 28.9772,76.4084 C26.6972,78.8664 22.7182,81.1664 15.8252,81.1664" id="Fill-5"></path></g><path d="M129.685189,72.7608422 C130.799739,71.6260634 132.594825,71.5649295 133.78246,72.5890238 L134.323265,73.0922215 C134.679851,73.417346 135.098676,73.7830843 135.574652,74.1792057 C136.94412,75.3189167 138.484129,76.4610626 140.151599,77.5241767 C144.702796,80.4258418 149.295338,82.172265 153.558587,82.2424016 C157.874539,82.3130298 161.865025,80.9074098 165.437409,78.4948081 C166.67134,77.6614747 167.761501,76.768172 168.691014,75.8802215 L168.992411,75.5872953 C169.224631,75.3574693 169.409243,75.1644586 169.544403,75.0166431 L169.733887,74.8011958 C170.791956,73.526184 172.683292,73.3503175 173.958304,74.408387 C175.233316,75.4664564 175.409182,77.3577925 174.351113,78.6328042 L174.150042,78.8672558 C173.847545,79.210262 173.407828,79.6720596 172.83555,80.2187491 C171.672781,81.3295265 170.323752,82.4349517 168.795434,83.4670978 C164.27381,86.5207674 159.125278,88.3343007 153.460152,88.2415941 C147.909111,88.1502715 142.329711,86.028572 136.926036,82.5834002 C135.031541,81.3755444 133.290777,80.0845082 131.736552,78.7910371 L131.286566,78.4122537 C130.573365,77.8047902 130.045411,77.3196388 129.723342,77.0033113 C128.541281,75.8423217 128.524199,73.9429035 129.685189,72.7608422 Z" id="Stroke-110" fill="#000" fill-rule="nonzero"></path><path d="M42.7652887,62.9386422 C43.8798388,61.8038634 45.6749245,61.7427295 46.8625603,62.7668238 L47.403365,63.2700215 L47.8608172,63.6790108 C48.104155,63.8925979 48.3691663,64.1193328 48.6547521,64.3570057 C50.0242202,65.4967167 51.5642285,66.6388626 53.2316992,67.7019767 C57.782896,70.6036418 62.3754377,72.350065 66.6384215,72.4201973 C70.9543059,72.4904425 74.9447471,71.0848333 78.5171065,68.6725085 C79.7511834,67.8391674 80.8414724,66.9458579 81.7710952,66.0579011 L82.2061483,65.6315612 C82.4192767,65.4167948 82.5844234,65.2405199 82.6997444,65.1111159 L82.8140951,64.9788655 C83.8722365,63.7039134 85.7635824,63.5281537 87.0385345,64.5862951 C88.3134866,65.6444365 88.4892463,67.5357824 87.4311049,68.8107345 L87.2300134,69.0451828 C86.9274859,69.3881843 86.4877247,69.8499766 85.9153892,70.3966598 C84.7525044,71.5074237 83.403344,72.612835 81.8748828,73.6449665 C77.3534608,76.6981695 72.2052461,78.5115975 66.5402524,78.4193941 C60.9892107,78.3280715 55.409811,76.206372 50.0061361,72.7612002 C48.1116412,71.5533444 46.3708772,70.2623082 44.8166522,68.9688371 L44.3666664,68.5900537 C43.6534646,67.9825902 43.1255109,67.4974388 42.8034422,67.1811113 C41.6213809,66.0201217 41.604299,64.1207035 42.7652887,62.9386422 Z" id="Stroke-120" fill="#000" fill-rule="nonzero"></path></g></g><g id="Accessories" transform="translate(1013.000000, 1216.000000) scale(2.606837606837607 2.6025641025641026)"><g id="Accessories/None" stroke="none" stroke-width="1" fill="none" fill-rule="evenodd" fill-opacity="0"></g></g></g></svg>