<svg viewBox="71.66979522184295 625.12345 1233.6604095563137 1721.87655" xmlns="http://www.w3.org/2000/svg" xmlns:xlink="http://www.w3.org/1999/xlink" overflow="visible" width="1233.6604095563137px" height="1721.87655px"><defs><polygon id="masterelementstall-vase-plantplant-6-path-1" points="0.707388507 0.033 535.211993 0.033 535.211993 874.164744 0.707388507 874.164744"></polygon><polygon id="masterelementstall-vase-plantplant-6-path-3" points="0 0.1738 333.4923 0.1738 333.4923 611.1738 0 611.1738"></polygon></defs><g id="Master/Elements/Tall Vase Plant/Plant 6" stroke="none" stroke-width="1" fill="none" fill-rule="evenodd"><g id="Group-21" transform="translate(74.000000, 632.000000)"><g id="Group-3" transform="translate(227.000000, 0.970000)"><mask id="masterelementstall-vase-plantplant-6-mask-2" fill="#fff"><use xlink:href="#masterelementstall-vase-plantplant-6-path-1"></use></mask><g id="Clip-2"></g><path d="M64.5263,677.1738 C64.5263,677.1738 17.5263,591.1738 45.5263,487.1738 C73.5263,383.1738 -25.4737,288.1738 7.5263,207.1738 C40.5263,126.1738 101.5263,6.1738 101.5263,6.1738 C101.5263,6.1738 255.5263,-27.8262 311.5263,64.1738 C367.5263,156.1738 476.5263,175.1738 468.5263,273.1738 C460.5263,371.1738 458.5263,400.1738 515.5263,451.1738 C572.5263,502.1738 483.5263,733.1738 523.5263,847.1738 C563.5263,961.1738 64.5263,677.1738 64.5263,677.1738" id="Fill-1" fill="#E93737" mask="url(#masterelementstall-vase-plantplant-6-mask-2)"></path></g><path d="M328.5263,7.1438 C328.5263,7.1438 440.5263,108.1438 483.5263,339.1438 C526.5263,570.1438 569.1273,618.9518 553.8273,806.0478 C547.5263,818.1438 291.5263,678.1438 291.5263,678.1438 C291.5263,678.1438 248.5263,611.1438 253.5263,545.1438 C258.5263,479.1438 286.5663,415.7898 242.0463,328.4668 C197.5263,241.1438 216.5263,190.1438 328.5263,7.1438" id="Fill-4" fill="#EC7070"></path><path d="M719.5263,611.1438 C719.5263,611.1438 776.5263,618.1438 776.5263,695.1438 L776.5263,1106.1438 L590.5263,1110.1438 C590.5263,1110.1438 532.5263,993.1438 432.5263,955.1438 C332.5263,917.1438 567.5263,630.1438 567.5263,630.1438 C567.5263,630.1438 687.5263,592.1438 719.5263,611.1438" id="Fill-6" fill="#0A4343"></path><path d="M92.5263,595.1438 C92.5263,595.1438 45.5263,626.1438 58.5263,692.1438 C71.5263,758.1438 88.5263,776.1438 49.5263,840.1438 C10.5263,904.1438 -13.4737,1058.1438 110.5263,1206.1438 C110.5263,1206.1438 242.5263,1232.1438 309.5263,1140.1438 C376.5263,1048.1438 367.5263,1016.1438 479.5263,975.1438 C591.5263,934.1438 522.5263,706.1438 595.5263,660.1438 C668.5263,614.1438 698.5263,605.1438 698.5263,605.1438 L92.5263,595.1438 Z" id="Fill-8" fill="#1BC0D7"></path><g id="Group-12" transform="translate(0.000000, 594.970000)"><mask id="masterelementstall-vase-plantplant-6-mask-4" fill="#fff"><use xlink:href="#masterelementstall-vase-plantplant-6-path-3"></use></mask><g id="Clip-11"></g><path d="M92.5263,0.1738 C92.5263,0.1738 38.5263,22.1738 58.5263,97.1738 C78.5263,172.1738 57.5263,169.1738 9.5263,301.1738 C-38.4737,433.1738 110.5263,611.1738 110.5263,611.1738 C110.5263,611.1738 119.5263,439.1738 190.5263,341.1738 C261.5263,243.1738 241.4583,37.4268 333.4923,5.8008 L92.5263,0.1738 Z" id="Fill-10" fill="#237978" mask="url(#masterelementstall-vase-plantplant-6-mask-4)"></path></g><path d="M566.0224,1105.367 L809.1954,1103.4913 C835.7294,1103.289 858.8714,1121.478 864.9424,1147.309 L963.6244,1567.188 C981.2654,1642.25 924.3094,1714.144 847.2024,1714.144 L567.5864,1714.144 C494.7504,1714.144 438.8284,1649.587 449.2154,1577.494 L510.2244,1154.079 C514.2294,1126.284 537.9404,1105.584 566.0224,1105.367" id="Fill-13" fill="#FC7750"></path><path d="M780.5263,826.1438 C780.5263,826.1438 655.5263,1038.1438 746.5263,1146.1438 C837.5263,1254.1438 913.5263,1231.1438 944.5263,1355.1438 C975.5263,1479.1438 1210.5263,1396.1438 1210.5263,1396.1438 C1210.5263,1396.1438 1233.5263,1275.1438 1186.5263,1195.1438 C1139.5263,1115.1438 1082.5263,1124.1438 1081.5263,1009.1438 C1080.5263,894.1438 1018.5263,822.1438 1018.5263,822.1438 L780.5263,826.1438 Z" id="Fill-15" fill="#237978"></path><path d="M892.1562,822.9285 C892.1562,822.9285 856.5262,972.1435 915.5262,1090.1435 C974.5262,1208.1435 1150.5262,1250.1435 1210.5262,1396.1435 C1210.5262,1396.1435 1254.5262,1281.1435 1205.5262,1208.1435 C1156.5262,1135.1435 1106.5262,1121.1435 1097.5262,1025.1435 C1088.5262,929.1435 1018.5262,822.1435 1018.5262,822.1435 L892.1562,822.9285 Z" id="Fill-17" fill="#1BC0D7"></path><path d="M599.7734,1105.0149 L557.4054,1105.0149 C557.4054,1105.0149 515.9374,1104.9199 507.7324,1160.5319 C499.5264,1216.1439 446.5264,1586.1439 446.5264,1586.1439 C446.5264,1586.1439 440.5264,1639.1439 468.5264,1668.1439 C496.5264,1697.1439 517.1274,1713.7959 560.3274,1714.9699 C560.3274,1714.9699 520.5264,1663.1439 524.5264,1575.1439 C528.5264,1487.1439 571.5264,1194.1439 571.5264,1194.1439 C571.5264,1194.1439 581.0194,1111.8859 599.7734,1105.0149" id="Fill-19" fill="#FEA78D"></path></g></g></svg>