<svg viewBox="179.80193661971828 -2.2737367544323206e-13 975.3961267605633 2346.9999999999986" xmlns="http://www.w3.org/2000/svg" xmlns:xlink="http://www.w3.org/1999/xlink" overflow="visible" width="975.3961267605633px" height="2346.9999999999986px"><g id="Master/Elements/Tall Vase Plant/Plant 1" stroke="none" stroke-width="1" fill="none" fill-rule="evenodd"><g id="Tall-Vase-Plant-2" transform="translate(187.000000, 0.000000)"><path d="M363.574946,1694.09031 C363.278946,1693.04531 333.884946,1587.56731 327.939946,1416.25731 C325.843946,1355.84731 326.862946,1294.44331 330.965946,1232.68031 C321.359946,1031.85631 284.864946,826.072308 284.440946,823.705308 L292.315946,822.295308 C292.700946,824.446308 322.797946,994.128308 335.598946,1175.88231 C337.744946,1153.68531 340.285946,1131.46731 343.220946,1109.25431 C360.254946,980.318308 390.672946,851.223308 433.627946,725.555308 L621.576946,175.706308 L629.147946,178.294308 L441.198946,728.143308 C398.412946,853.312308 368.116946,981.889308 351.151946,1110.30231 C345.752946,1151.16731 341.692946,1192.04331 338.977946,1232.76731 C340.427946,1263.19531 341.261946,1293.52031 341.261946,1323.00031 C341.261946,1546.91031 371.036946,1690.74831 371.337946,1692.17431 L363.574946,1694.09031 Z" id="Fill-20" fill="#0A4343"></path><path d="M186.160346,598.463908 C186.160346,598.463908 158.272346,521.825908 177.409346,430.044908 C196.546346,338.263908 136.404346,253.107908 158.282346,181.742908 C180.160346,110.377908 220.119346,4.77990842 220.119346,4.77990842 C220.119346,4.77990842 316.629346,-23.6940916 350.027346,58.3509084 C383.425346,140.395908 451.034346,158.369908 444.456346,245.050908 C437.879346,331.730908 436.161346,357.385908 470.848346,403.140908 C505.536346,448.897908 446.327346,652.473908 469.398346,753.827908 C492.469346,855.181908 186.160346,598.463908 186.160346,598.463908" id="Fill-21" fill="#F9C818"></path><path d="M220.119846,4.78000842 C220.119846,4.78000842 288.264846,95.3850084 311.303846,300.358008 C334.342846,505.330008 360.093846,548.993008 347.519846,714.478008 C343.397846,725.121008 186.160846,598.464008 186.160846,598.464008 C186.160846,598.464008 160.455846,538.690008 164.643846,480.310008 C168.832846,421.929008 187.333846,366.134008 161.012846,288.351008 C134.691846,210.569008 147.358846,165.616008 220.119846,4.78000842" id="Fill-22" fill="#F9DC4A"></path><path d="M391.740946,538.722908 C391.740946,538.722908 414.831946,460.863908 485.352946,397.440908 C555.873946,334.016908 557.741946,230.955908 618.286946,185.612908 C678.831946,140.269908 774.608946,77.4829084 774.608946,77.4829084 C774.608946,77.4829084 870.391946,109.216908 848.562946,194.579908 C826.732946,279.941908 871.146946,332.865908 813.925946,399.289908 C756.703946,465.713908 739.955946,485.503908 740.886946,542.226908 C741.818946,598.949908 571.719946,730.112908 529.913946,825.241908 C488.106946,920.371908 391.740946,538.722908 391.740946,538.722908" id="Fill-23" fill="#FC7750"></path><path d="M774.609615,77.4824084 C774.609615,77.4824084 776.010646,189.497408 672.190646,368.475408 C568.369646,547.453408 563.261646,597.409408 454.003646,724.212408 C444.273646,730.487408 391.740646,538.722408 391.740646,538.722408 C391.740646,538.722408 406.525646,475.753408 444.867646,430.878408 C483.209646,386.003408 531.684646,351.345408 556.738646,273.449408 C581.793646,195.553408 619.021646,166.360408 774.609615,77.4824084" id="Fill-24" fill="#FEA78D"></path><path d="M453.933846,543.670208 C453.933846,543.670208 489.336846,550.470208 488.084846,618.643208 C486.833846,686.815208 481.405846,982.525208 481.405846,982.525208 L365.444846,984.100208 C365.444846,984.100208 331.206846,879.900208 269.515846,845.199208 C207.823846,810.498208 358.914846,558.885208 358.914846,558.885208 C358.914846,558.885208 434.303846,526.510208 453.933846,543.670208" id="Fill-25" fill="#0A4343"></path><path d="M63.5138457,522.875208 C63.5138457,522.875208 33.7238457,549.824208 40.7518457,608.395208 C47.7798457,666.966208 58.0798457,683.083208 32.7388457,739.333208 C7.39784571,795.584208 -10.0591543,931.675208 64.7998457,1064.01921 C64.7998457,1064.01921 146.625846,1088.43421 189.867846,1007.68921 C233.110846,926.945208 228.022846,898.518208 298.475846,863.403208 C368.928846,828.287208 329.639846,625.696208 375.873846,585.741208 C422.106846,545.787208 440.946846,538.136208 440.946846,538.136208 L63.5138457,522.875208 Z" id="Fill-26" fill="#1BC0D7"></path><path d="M63.5138457,522.875208 C63.5138457,522.875208 29.5088457,541.782208 40.7518457,608.395208 C51.9948457,675.009208 38.9588457,672.130208 6.90484571,788.490208 C-25.1491543,904.850208 64.7998457,1064.01921 64.7998457,1064.01921 C64.7998457,1064.01921 73.2028457,911.833208 119.034846,825.818208 C164.867846,739.804208 155.705846,557.432208 213.566846,530.404208 L63.5138457,522.875208 Z" id="Fill-27" fill="#237978"></path><path d="M209.399246,2347.00001 L780.267246,2347.00001 C879.678501,2347.00001 960.267246,2266.41126 960.267246,2167.00001 L960.267246,1345.00001 L960.267246,1345.00001 L29.3992457,1345.00001 L29.3992457,2167.00001 C29.3992457,2266.41126 109.987991,2347.00001 209.399246,2347.00001 Z" id="Fill-28" fill="#56ACF6"></path></g></g></svg>