<svg viewBox="392.8488372093025 647.4836624203822 1617.4534883720924 1526.7715498938423" xmlns="http://www.w3.org/2000/svg" xmlns:xlink="http://www.w3.org/1999/xlink" overflow="visible" width="1617.4534883720924px" height="1526.7715498938423px"><defs><polygon id="mastercharacteravatar-path-1" points="1.87952991 1.58079744 195.807393 1.58079744 195.807393 195.192308 1.87952991 195.192308"></polygon></defs><g id="Master/Character/Avatar" stroke="none" stroke-width="1" fill="none" fill-rule="evenodd"><g id="Avatar Background" opacity=".747" transform="translate(376.000000, 630.000000) scale(1 1)"><g id="Avatar Background/Backdrop 4" stroke="none" stroke-width="1" fill="none" fill-rule="evenodd"><path d="M1255.64333,44.9865217 C1366.09524,155.702828 1440.45583,302.852934 1498.63754,465.92072 C1556.81925,628.988506 1598.19983,807.26652 1577.66511,988.728069 C1557.13039,1170.54335 1474.36923,1354.8347 1343.38259,1443.26626 C1213.3978,1530.46331 1035.84227,1523.70816 868.981007,1506.06011 L863.927939,1505.52207 C695.605442,1487.48204 539.105966,1458.83021 395.985174,1374.9971 C253.175514,1291.16399 123.744536,1151.44213 91.3867917,988.374343 C59.6606456,826.587046 123.075975,641.225028 195.593783,480.339117 L197.79399,475.471328 C270.910047,313.464721 352.426672,176.572675 462.878588,65.8563685 C573.330504,-44.8599375 712.71771,-129.400503 855.838503,-134.706397 C998.648163,-140.01229 1144.88028,-65.7297843 1255.64333,44.9865217 Z M849.805179,338.749091 L840.490883,339.756073 C769.965968,347.606272 704.279141,360.329655 644.044219,395.412358 C581.96962,431.645314 525.710288,492.033574 511.645455,562.512024 C498.028886,631.556135 524.731741,710.534215 555.751422,779.453576 L557.897117,784.190446 C589.67823,854.210251 625.11079,913.375457 673.120556,961.22742 C721.130322,1009.07938 781.717295,1045.6181 843.927132,1047.91133 C906.001731,1050.20455 969.563957,1018.0994 1017.70896,970.247438 C1064.94438,923.167281 1096.99407,860.844178 1122.10123,791.723092 L1123.33045,788.318251 C1148.6201,717.839801 1166.60686,640.787439 1157.6811,562.359142 C1148.75534,483.777964 1112.78182,404.126614 1055.8463,365.906196 C999.389197,328.247988 922.286113,331.134516 849.805179,338.749091 L849.805179,338.749091 Z" id="Shape" fill="#FFF5F3" transform="translate(833.000000, 691.000000) rotate(62.000000) translate(-833.000000, -691.000000)"></path></g></g><path d="M1602.87669,1619.34102 C1581.5863,1719.97875 1508.65401,1927.03874 1348.44285,1907.73875 C1182.71158,1887.75347 1063.1047,1779.10078 1046.35661,1598.86067 C998.17749,1606.51084 986.813925,1481.33837 1000.22961,1441.12549 C1013.66354,1400.8605 1057.50375,1424.40508 1057.50375,1424.40508 L1056.81798,1435.32794 C1058.84663,1425.16593 1061.14385,1414.85801 1063.694,1404.41981 C1136.09176,1108.3198 1338.86544,1120.06343 1338.86544,1120.06343 C1711.46941,1139.41554 1624.16447,1518.71892 1602.87669,1619.34102" id="Fill-114" fill="#f6cbc3"></path><g id="Hairstyle" transform="translate(-144.000000, 485.000000) scale(2.6053268765133173 2.606425702811245)"><defs><polygon id="hairstylepompadour-path-1" points="0.893394597 0.106 258.492632 0.106 258.492632 218.7317 0.893394597 218.7317"></polygon></defs><g id="Hairstyle/Pompadour" stroke="none" stroke-width="1" fill="none" fill-rule="evenodd"><g id="Hairstyle" transform="translate(440.000000, 176.000000)"><mask id="hairstylepompadour-mask-2" fill="#fff"><use xlink:href="#hairstylepompadour-path-1"></use></mask><g id="Clip-126"></g><path d="M6.9223,181.4197 C6.9223,181.4197 -12.0337,88.1867 17.2793,85.3947 L46.5933,82.6027 C46.5933,82.6027 24.3793,25.1567 75.9493,7.9667 C127.5193,-9.2243 176.2763,1.6787 199.7183,41.6667 C223.1593,81.6537 247.2263,73.7077 256.5833,113.4727 C265.9393,153.2367 237.8703,218.7317 237.8703,218.7317 C237.8703,218.7317 233.9383,135.9397 224.5443,126.5457 C215.1503,117.1507 176.4293,151.5307 127.1493,140.9707 C77.8683,130.4107 47.1753,87.9977 38.2633,147.4107 C29.3513,206.8227 21.0163,188.8807 21.0163,188.8807 C21.0163,188.8807 17.9623,180.6537 6.6993,183.4697 L6.9223,181.4197 Z" id="Fill-125" fill="#9b5120" mask="url(#hairstylepompadour-mask-2)"></path></g></g></g><g id="Expression" transform="translate(1135.000000, 1336.000000) scale(2.603960396039604 2.611607142857143)"><g id="Expression/Meditating" stroke="none" stroke-width="1" fill="none" fill-rule="evenodd"><g id="Group-124" transform="translate(25.000000, 31.000000)" fill="#000" fill-rule="nonzero"><path d="M104.685189,41.7608422 C105.799739,40.6260634 107.594825,40.5649295 108.78246,41.5890238 L109.323265,42.0922215 C109.679851,42.417346 110.098676,42.7830843 110.574652,43.1792057 C111.94412,44.3189167 113.484129,45.4610626 115.151599,46.5241767 C119.702796,49.4258418 124.295338,51.172265 128.558587,51.2424016 C132.874539,51.3130298 136.865025,49.9074098 140.437409,47.4948081 C141.67134,46.6614747 142.761501,45.768172 143.691014,44.8802215 L143.992411,44.5872953 C144.224631,44.3574693 144.409243,44.1644586 144.544403,44.0166431 L144.733887,43.8011958 C145.791956,42.526184 147.683292,42.3503175 148.958304,43.408387 C150.233316,44.4664564 150.409182,46.3577925 149.351113,47.6328042 L149.150042,47.8672558 C148.847545,48.210262 148.407828,48.6720596 147.83555,49.2187491 C146.672781,50.3295265 145.323752,51.4349517 143.795434,52.4670978 C139.27381,55.5207674 134.125278,57.3343007 128.460152,57.2415941 C122.909111,57.1502715 117.329711,55.028572 111.926036,51.5834002 C110.031541,50.3755444 108.290777,49.0845082 106.736552,47.7910371 L106.286566,47.4122537 C105.573365,46.8047902 105.045411,46.3196388 104.723342,46.0033113 C103.541281,44.8423217 103.524199,42.9429035 104.685189,41.7608422 Z" id="Stroke-110"></path><path d="M38.7253835,117.884449 C39.5642128,116.527263 41.3095678,116.07235 42.6962173,116.818359 L43.3869917,117.21948 L43.8984869,117.502848 C44.2590401,117.698929 44.6584684,117.908937 45.0953445,118.130389 C46.9879034,119.089729 49.1612767,120.052834 51.576502,120.953225 C60.5558907,124.300723 70.2239338,125.866606 79.9973044,124.67862 C81.6420524,124.478696 83.1374551,125.649956 83.3373798,127.294704 C83.5373044,128.939452 82.3660437,130.434855 80.7212956,130.63478 C69.894657,131.950794 59.2949096,130.234008 49.4806187,126.57526 C46.8465621,125.593288 44.4687237,124.539577 42.3825599,123.482099 L41.6157512,123.086639 C40.7409474,122.627255 40.0965569,122.258685 39.7000485,122.013616 C38.290664,121.142525 37.8542916,119.293833 38.7253835,117.884449 Z" id="Stroke-112"></path><path d="M98.9388073,21.5157268 L102.747593,22.7376732 L102.375135,23.9309532 C102.075892,24.9043293 101.742122,26.0179097 101.382468,27.2529166 C100.354215,30.7838089 99.3257634,34.5761133 98.3662837,38.478955 C97.2996742,42.8175645 96.3854385,47.0250163 95.6702376,50.9976992 L95.4631649,52.1740325 C93.7257688,62.2776329 93.4803733,69.9926374 95.0328764,74.1417647 L95.1244408,74.3771728 C104.002358,96.340079 91.9464166,107.47795 66.6424816,99.6786942 L65.8716485,99.4365483 L67.0907515,95.6268517 C89.8846425,102.920897 99.0260452,94.7026714 91.4159925,75.8763096 C89.3210345,70.6942966 89.6433125,61.8993486 91.7335247,50.288974 C92.4647551,46.2272527 93.3964651,41.9393815 94.4819426,37.5240234 C95.3476055,34.0027971 96.2678852,30.5727889 97.1943734,27.3381428 L97.5420029,26.1345115 C97.7507758,25.4176112 97.9510908,24.7405619 98.1413397,24.1068373 L98.6297394,22.5024497 L98.9388073,21.5157268 Z" id="Stroke-114"></path><path d="M24.5912986,0.515294847 C27.6392394,0.103272361 30.4710762,-0.0333671966 33.0631806,0.158696725 C36.7115321,0.428668329 41.5437912,1.40832846 47.38095,2.94765852 C49.16614,3.41843493 51.0205155,3.93578045 52.9276851,4.49220122 C56.1314208,5.42689786 59.3319836,6.42632221 62.3826864,7.42579929 L64.3883843,8.09051311 L66.3809754,8.76899282 C69.2488284,9.77010581 70.7621202,12.9065224 69.7610072,15.7743754 C68.784922,18.5705321 65.7789638,20.079009 62.9711796,19.2247943 L62.6828368,19.1290737 L61.7501044,18.8096194 C60.9247361,18.529366 59.9876716,18.2164443 58.9579598,17.8790882 C56.0143005,16.9146808 52.9257075,15.9502208 49.8468536,15.0519587 C48.0274857,14.5211542 46.264248,14.0292349 44.57601,13.5840259 L43.4692061,13.2961425 C38.7383101,12.0831846 34.8659461,11.3221737 32.2508875,11.1286639 C30.4966745,10.9986842 28.4072689,11.0995005 26.0648822,11.4161458 C23.2480808,11.7969227 20.1879155,12.4702927 17.0440173,13.3532292 C15.4806567,13.7922855 13.9823806,14.2588747 12.5892526,14.7284835 L11.9016364,14.9634261 C11.4618938,15.1157145 11.0608605,15.2586308 10.7024987,15.389676 L9.97161227,15.6633149 C7.14357473,16.7719229 3.95229301,15.3780498 2.84368505,12.5500123 C1.7350771,9.72197473 3.12895018,6.53069301 5.95698773,5.42208505 L6.52985093,5.20370717 C6.98422439,5.03423142 7.580659,4.81888054 8.30194561,4.56908982 C10.0818577,3.95268364 12.0231675,3.33772818 14.0698269,2.76294164 C17.6714831,1.75144773 21.2151691,0.971682068 24.5912986,0.515294847 Z" id="Stroke-116"></path><path d="M121.789545,16.5878801 L123.114219,16.5529702 C128.555995,16.4306526 133.021889,16.6000706 136.338056,17.1542512 C138.168033,17.4600991 140.074506,17.9728696 142.05661,18.6687631 C144.999596,19.7020115 148.057071,21.1185695 151.173952,22.8231086 C153.163457,23.9111153 155.079106,25.0624467 156.876125,26.2225048 L157.638883,26.7200477 C158.857885,27.5234673 159.765181,28.1586854 160.289098,28.5434618 C162.679021,30.2986767 163.193553,33.6589748 161.438338,36.0488977 C159.730562,38.3742281 156.503291,38.9241706 154.128755,37.3354869 L153.387738,36.810348 L152.775165,36.3869315 C152.451527,36.1659242 152.102331,35.9314768 151.729689,35.6858759 C149.947809,34.5114755 148.017701,33.3358642 146.02174,32.244327 C143.380044,30.7996542 140.834405,29.6202345 138.499485,28.8004711 C137.066648,28.2974188 135.746258,27.9422828 134.568033,27.7453637 C131.847034,27.2906445 127.508258,27.1586717 122.11249,27.3210227 C118.82153,27.420043 115.289632,27.6221963 111.690697,27.8970199 L110.130765,28.0203831 C109.109219,28.103955 108.126228,28.1898666 107.192238,28.2762012 L104.514558,28.5395365 C101.566608,28.8590654 98.9177923,26.7283087 98.5982635,23.7803582 C98.2867228,20.9061064 100.304485,18.31622 103.137903,17.8923638 L103.931548,17.8040918 L105.143479,17.6838888 L105.484548,17.6512271 C107.138496,17.4939444 108.952748,17.3368342 110.873097,17.1901915 C114.625356,16.9036597 118.316967,16.6923651 121.789545,16.5878801 Z" id="Stroke-118"></path><path d="M17.7652887,31.9386422 C18.8798388,30.8038634 20.6749245,30.7427295 21.8625603,31.7668238 L22.403365,32.2700215 L22.8608172,32.6790108 C23.104155,32.8925979 23.3691663,33.1193328 23.6547521,33.3570057 C25.0242202,34.4967167 26.5642285,35.6388626 28.2316992,36.7019767 C32.782896,39.6036418 37.3754377,41.350065 41.6384215,41.4201973 C45.9543059,41.4904425 49.9447471,40.0848333 53.5171065,37.6725085 C54.7511834,36.8391674 55.8414724,35.9458579 56.7710952,35.0579011 L57.2061483,34.6315612 C57.4192767,34.4167948 57.5844234,34.2405199 57.6997444,34.1111159 L57.8140951,33.9788655 C58.8722365,32.7039134 60.7635824,32.5281537 62.0385345,33.5862951 C63.3134866,34.6444365 63.4892463,36.5357824 62.4311049,37.8107345 L62.2300134,38.0451828 C61.9274859,38.3881843 61.4877247,38.8499766 60.9153892,39.3966598 C59.7525044,40.5074237 58.403344,41.612835 56.8748828,42.6449665 C52.3534608,45.6981695 47.2052461,47.5115975 41.5402524,47.4193941 C35.9892107,47.3280715 30.409811,45.206372 25.0061361,41.7612002 C23.1116412,40.5533444 21.3708772,39.2623082 19.8166522,37.9688371 L19.3666664,37.5900537 C18.6534646,36.9825902 18.1255109,36.4974388 17.8034422,36.1811113 C16.6213809,35.0201217 16.604299,33.1207035 17.7652887,31.9386422 Z" id="Stroke-120"></path><path d="M0.1850015,174.534088 L2.1419985,171.045512 L2.85620174,171.434727 L3.51128674,171.782909 C4.50308988,172.305335 5.6321651,172.880908 6.88714027,173.498006 L7.43266178,173.764985 C11.6537624,175.821142 16.3218862,177.878362 21.3004212,179.797989 C32.7483158,184.212076 44.0600582,187.224884 54.584272,188.202241 C59.3535856,188.645156 63.8735301,188.656119 68.1063644,188.201856 L68.9490919,188.10479 L69.4379081,192.07481 C64.6629697,192.662733 59.5745075,192.682884 54.2143935,192.185103 C43.2765951,191.169337 31.6251616,188.066055 19.8613669,183.530163 C14.7706849,181.567294 9.99959664,179.464698 5.68097489,177.361037 L4.04785364,176.55429 C3.35348222,176.206284 2.70158001,175.872883 2.09423579,175.556252 L0.962732129,174.958187 L0.1850015,174.534088 Z" id="Stroke-122"></path></g></g></g><g id="Accessories" transform="translate(1013.000000, 1424.000000) scale(2.606837606837607 2.6025641025641026)"><g id="Accessories/None" stroke="none" stroke-width="1" fill="none" fill-rule="evenodd" fill-opacity="0"></g></g></g></svg>